SplineFontDB: 3.2
FontName: CMUSerif-Roman
FullName: CMU Serif Roman
FamilyName: CMU Serif
Weight: Medium
Copyright: Converted by Andrey V. Panov from TeX fonts. Some glyphs are copied from Blue Sky fonts released by AMS.
Version: 0.7.0
ItalicAngle: 0
UnderlinePosition: -307
UnderlineWidth: 102
Ascent: 1638
Descent: 410
InvalidEm: 0
sfntRevision: 0x0000b333
LayerCount: 2
Layer: 0 1 "+gMyXYgAA" 1
Layer: 1 1 "+Uk2XYgAA" 0
XUID: [1021 210 -1168193948 23918]
StyleMap: 0x0040
FSType: 4
OS2Version: 1
OS2_WeightWidthSlopeOnly: 0
OS2_UseTypoMetrics: 0
CreationTime: 1245311475
ModificationTime: 1640149143
PfmFamily: 17
TTFWeight: 500
TTFWidth: 5
LineGap: 0
VLineGap: 0
Panose: 2 0 6 3 0 0 0 0 0 0
OS2TypoAscent: 1638
OS2TypoAOffset: 0
OS2TypoDescent: -410
OS2TypoDOffset: 0
OS2TypoLinegap: 0
OS2WinAscent: 1915
OS2WinAOffset: 0
OS2WinDescent: 763
OS2WinDOffset: 0
HheadAscent: 1915
HheadAOffset: 0
HheadDescent: -763
HheadDOffset: 0
OS2SubXSize: 1331
OS2SubYSize: 1434
OS2SubXOff: 0
OS2SubYOff: 287
OS2SupXSize: 1331
OS2SupYSize: 1434
OS2SupXOff: 0
OS2SupYOff: 983
OS2StrikeYSize: 100
OS2StrikeYPos: 528
OS2Vendor: 'PfEd'
OS2CodePages: 0000019f.00000000
OS2UnicodeRanges: e10002ff.5201e9eb.02020004.00000000
Lookup: 4 0 1 "'liga' +ahluljBuVAhbVwAA in +MOkwxjDzZYdbVwAA lookup 0" { "'liga' +ahluljBuVAhbVwAA in +MOkwxjDzZYdbVwAA lookup 0 +MLUw1jDGMPww1jDr"  } ['liga' ('latn' <'NLD ' 'VIT ' 'dflt' > ) ]
Lookup: 4 0 1 "'liga' +ahluljBuVAhbVwAA in +MOkwxjDzZYdbVwAA lookup 1" { "'liga' +ahluljBuVAhbVwAA in +MOkwxjDzZYdbVwAA lookup 1 +MLUw1jDGMPww1jDr"  } ['liga' ('latn' <'AZE ' 'NLD ' 'TRK ' 'VIT ' 'dflt' > ) ]
Lookup: 258 0 0 "'kern' +aipm+DBNMKsw/DDLMPMwsAAA lookup 0" { "'kern' +aipm+DBNMKsw/DDLMPMwsAAA lookup 0 +MLUw1jDGMPww1jDr"  } ['kern' ('DFLT' <'dflt' > ) ]
Lookup: 258 0 0 "'kern' +aipm+DBNMKsw/DDLMPMwsAAA lookup 1" { "'kern' +aipm+DBNMKsw/DDLMPMwsAAA lookup 1 +MLUw1jDGMPww1jDr"  } ['kern' ('cyrl' <'dflt' > 'grek' <'dflt' > 'latn' <'dflt' > ) ]
DEI: 91125
TtTable: prep
PUSHW_1
 511

StartChar: .notdef
Encoding: 0 -1 0
AltUni2: 000000.ffffffff.0
Width: 1556
Flags: W
LayerCount: 2
Fore
SplineSet
20 20 m 1,0,-1
 20 1567 l 1,1,-1
 1536 1567 l 1,2,-1
 1536 20 l 1,3,-1
 20 20 l 1,0,-1
143 229 m 1,4,-1
 709 795 l 1,5,-1
 143 1358 l 1,6,-1
 143 229 l 1,4,-1
215 143 m 1,7,-1
 1341 143 l 1,8,-1
 778 709 l 1,9,-1
 215 143 l 1,7,-1
215 1444 m 1,10,-1
 778 879 l 1,11,-1
 1341 1444 l 1,12,-1
 215 1444 l 1,10,-1
848 795 m 1,13,-1
 1413 229 l 1,14,-1
 1413 1358 l 1,15,-1
 848 795 l 1,13,-1
EndSplineSet
EndChar

StartChar: exclam
Encoding: 33 33 4
Width: 569
GlyphClass: 2
Flags: W
LayerCount: 2
Fore
SplineSet
174 109 m 0,0,1
 174 156 174 156 207 186.5 c 128,-1,2
 240 217 240 217 283 217 c 128,-1,3
 326 217 326 217 357.5 186.5 c 128,-1,4
 389 156 389 156 389 109 c 0,5,6
 389 64 389 64 356.5 33 c 128,-1,7
 324 2 324 2 283 2 c 0,8,9
 236 2 236 2 205 34 c 128,-1,10
 174 66 174 66 174 109 c 0,0,1
174 1360 m 0,11,12
 174 1409 174 1409 207 1437.5 c 128,-1,13
 240 1466 240 1466 283 1466 c 128,-1,14
 326 1466 326 1466 358.5 1437.5 c 128,-1,15
 391 1409 391 1409 391 1360 c 0,16,17
 391 1356 391 1356 390 1348.5 c 128,-1,18
 389 1341 389 1341 389 1337 c 2,19,-1
 311 432 l 2,20,21
 307 385 307 385 281 385 c 0,22,23
 258 385 258 385 254 440 c 2,24,-1
 176 1331 l 2,25,26
 176 1335 176 1335 175 1345.5 c 128,-1,27
 174 1356 174 1356 174 1360 c 0,11,12
EndSplineSet
EndChar

StartChar: quotedbl
Encoding: 34 34 5
Width: 1024
GlyphClass: 2
Flags: W
LayerCount: 2
Fore
SplineSet
244 1360 m 0,0,1
 244 1411 244 1411 274.5 1432.5 c 128,-1,2
 305 1454 305 1454 338 1454 c 0,3,4
 373 1454 373 1454 403.5 1432.5 c 128,-1,5
 434 1411 434 1411 434 1360 c 0,6,7
 434 1350 434 1350 416.5 1193 c 128,-1,8
 399 1036 399 1036 380.5 876.5 c 128,-1,9
 362 717 362 717 362 711 c 1,10,-1
 315 711 l 1,11,12
 309 774 309 774 290.5 934 c 128,-1,13
 272 1094 272 1094 258 1222 c 128,-1,14
 244 1350 244 1350 244 1360 c 0,0,1
588 1358 m 0,15,16
 588 1405 588 1405 615.5 1429.5 c 128,-1,17
 643 1454 643 1454 682 1454 c 0,18,19
 715 1454 715 1454 745.5 1432.5 c 128,-1,20
 776 1411 776 1411 776 1360 c 0,21,22
 776 1350 776 1350 762 1223 c 128,-1,23
 748 1096 748 1096 729.5 936 c 128,-1,24
 711 776 711 776 705 711 c 1,25,-1
 659 711 l 1,26,27
 655 742 655 742 621.5 1041 c 128,-1,28
 588 1340 588 1340 588 1358 c 0,15,16
EndSplineSet
EndChar

StartChar: numbersign
Encoding: 35 35 6
Width: 1705
GlyphClass: 2
Flags: W
LayerCount: 2
Fore
SplineSet
117 313 m 0,0,1
 117 336 117 336 170 336 c 2,2,-1
 535 336 l 1,3,-1
 631 688 l 1,4,-1
 164 688 l 2,5,6
 117 688 117 688 117 711 c 0,7,8
 117 736 117 736 178 735 c 2,9,-1
 645 735 l 1,10,-1
 811 1341 l 2,11,12
 811 1343 811 1343 815 1359.5 c 128,-1,13
 819 1376 819 1376 822 1381 c 128,-1,14
 825 1386 825 1386 829.5 1397.5 c 128,-1,15
 834 1409 834 1409 840 1413 c 128,-1,16
 846 1417 846 1417 852 1417 c 0,17,18
 870 1417 870 1417 870 1393 c 0,19,20
 870 1381 870 1381 858 1331 c 2,21,-1
 694 735 l 1,22,-1
 1135 735 l 1,23,-1
 1300 1341 l 2,24,25
 1302 1345 1302 1345 1305.5 1359.5 c 128,-1,26
 1309 1374 1309 1374 1311 1381.5 c 128,-1,27
 1313 1389 1313 1389 1317 1398 c 128,-1,28
 1321 1407 1321 1407 1327 1412 c 128,-1,29
 1333 1417 1333 1417 1339 1417 c 0,30,31
 1359 1417 1359 1417 1360 1393 c 0,32,33
 1360 1389 1360 1389 1346 1331 c 2,34,-1
 1182 735 l 1,35,-1
 1536 735 l 2,36,37
 1587 735 1587 735 1587 711 c 0,38,39
 1585 688 1585 688 1534 688 c 2,40,-1
 1167 688 l 1,41,-1
 1073 336 l 1,42,-1
 1538 336 l 2,43,44
 1587 336 1587 336 1587 313 c 0,45,46
 1587 288 1587 288 1538 289 c 2,47,-1
 1059 289 l 1,48,-1
 891 -317 l 2,49,50
 891 -321 891 -321 887 -335.5 c 128,-1,51
 883 -350 883 -350 881 -357.5 c 128,-1,52
 879 -365 879 -365 873.5 -375 c 128,-1,53
 868 -385 868 -385 863 -389 c 128,-1,54
 858 -393 858 -393 852 -393 c 0,55,56
 834 -393 834 -393 834 -369 c 0,57,58
 834 -357 834 -357 846 -307 c 2,59,-1
 1010 289 l 1,60,-1
 569 289 l 1,61,-1
 403 -317 l 2,62,63
 403 -321 403 -321 399 -335.5 c 128,-1,64
 395 -350 395 -350 393 -357.5 c 128,-1,65
 391 -365 391 -365 386 -375 c 128,-1,66
 381 -385 381 -385 376 -389 c 128,-1,67
 371 -393 371 -393 365 -393 c 0,68,69
 345 -393 345 -393 344 -369 c 0,70,71
 344 -365 344 -365 358 -307 c 2,72,-1
 522 289 l 1,73,-1
 168 289 l 2,74,75
 117 288 117 288 117 313 c 0,0,1
584 336 m 1,76,-1
 1024 336 l 1,77,-1
 1120 688 l 1,78,-1
 680 688 l 1,79,-1
 584 336 l 1,76,-1
EndSplineSet
EndChar

StartChar: dollar
Encoding: 36 36 7
Width: 1024
GlyphClass: 2
Flags: W
LayerCount: 2
Fore
SplineSet
113 362 m 0,0,1
 113 417 113 417 142.5 442 c 128,-1,2
 172 467 172 467 207 467 c 0,3,4
 244 467 244 467 272.5 441.5 c 128,-1,5
 301 416 301 416 301 375 c 0,6,7
 301 336 301 336 275.5 308.5 c 128,-1,8
 250 281 250 281 209 281 c 0,9,10
 199 281 199 281 174 285 c 1,11,12
 231 64 231 64 479 41 c 1,13,-1
 479 653 l 1,14,15
 477 653 477 653 455.5 658.5 c 128,-1,16
 434 664 434 664 423 667 c 128,-1,17
 412 670 412 670 386 678 c 128,-1,18
 360 686 360 686 343 694 c 128,-1,19
 326 702 326 702 300 717.5 c 128,-1,20
 274 733 274 733 253.5 749.5 c 128,-1,21
 233 766 233 766 211.5 790.5 c 128,-1,22
 190 815 190 815 172 844 c 0,23,24
 113 938 113 938 113 1051 c 0,25,26
 113 1203 113 1203 214 1314 c 128,-1,27
 315 1425 315 1425 479 1444 c 1,28,-1
 479 1536 l 1,29,-1
 543 1536 l 1,30,-1
 543 1444 l 1,31,32
 631 1438 631 1438 698.5 1409 c 128,-1,33
 766 1380 766 1380 805 1341.5 c 128,-1,34
 844 1303 844 1303 867.5 1253.5 c 128,-1,35
 891 1204 891 1204 899 1164 c 128,-1,36
 907 1124 907 1124 907 1085 c 0,37,38
 907 1028 907 1028 878.5 1005.5 c 128,-1,39
 850 983 850 983 815 983 c 0,40,41
 776 983 776 983 748.5 1008.5 c 128,-1,42
 721 1034 721 1034 721 1075 c 0,43,44
 721 1114 721 1114 746.5 1141.5 c 128,-1,45
 772 1169 772 1169 813 1169 c 0,46,47
 825 1169 825 1169 846 1165 c 1,48,49
 785 1358 785 1358 543 1380 c 1,50,-1
 543 825 l 1,51,52
 545 825 545 825 565.5 820 c 128,-1,53
 586 815 586 815 596 812 c 128,-1,54
 606 809 606 809 629.5 802 c 128,-1,55
 653 795 653 795 668.5 786.5 c 128,-1,56
 684 778 684 778 707.5 767 c 128,-1,57
 731 756 731 756 749.5 739.5 c 128,-1,58
 768 723 768 723 788.5 703.5 c 128,-1,59
 809 684 809 684 827.5 658.5 c 128,-1,60
 846 633 846 633 860 604 c 0,61,62
 909 508 909 508 909 399 c 0,63,64
 909 237 909 237 805.5 115.5 c 128,-1,65
 702 -6 702 -6 543 -20 c 1,66,-1
 543 -113 l 1,67,-1
 479 -113 l 1,68,-1
 479 -20 l 1,69,70
 368 -12 368 -12 290.5 32 c 128,-1,71
 213 76 213 76 177 138.5 c 128,-1,72
 141 201 141 201 127 255 c 128,-1,73
 113 309 113 309 113 362 c 0,0,1
219 1112 m 0,74,75
 219 1024 219 1024 271.5 959.5 c 128,-1,76
 324 895 324 895 391 866 c 0,77,78
 407 858 407 858 442 850 c 128,-1,79
 477 842 477 842 479 842 c 1,80,-1
 479 1378 l 1,81,82
 366 1366 366 1366 292.5 1290 c 128,-1,83
 219 1214 219 1214 219 1112 c 0,74,75
543 43 m 1,84,85
 664 59 664 59 733.5 145 c 128,-1,86
 803 231 803 231 803 338 c 0,87,88
 803 430 803 430 754 504 c 128,-1,89
 705 578 705 578 629 610 c 0,90,91
 617 616 617 616 543 637 c 1,92,-1
 543 43 l 1,84,85
EndSplineSet
EndChar

StartChar: percent
Encoding: 37 37 8
Width: 1705
GlyphClass: 2
Flags: W
LayerCount: 2
Fore
SplineSet
115 1124 m 0,0,1
 115 1300 115 1300 205 1418 c 128,-1,2
 295 1536 295 1536 416 1536 c 0,3,4
 490 1536 490 1536 563 1470 c 0,5,6
 729 1312 729 1312 946 1313 c 0,7,8
 1192 1313 1192 1313 1335 1507 c 0,9,10
 1360 1536 1360 1536 1378 1536 c 0,11,12
 1394 1536 1394 1536 1406.5 1523.5 c 128,-1,13
 1419 1511 1419 1511 1419 1495 c 0,14,15
 1419 1483 1419 1483 1403 1458 c 2,16,-1
 367 -84 l 2,17,18
 344 -115 344 -115 326 -115 c 0,19,20
 310 -115 310 -115 297.5 -102.5 c 128,-1,21
 285 -90 285 -90 285 -74 c 0,22,23
 285 -60 285 -60 303 -33 c 2,24,-1
 1223 1337 l 1,25,-1
 1221 1339 l 1,26,27
 1115 1267 1115 1267 948 1268 c 0,28,29
 790 1268 790 1268 639 1354 c 1,30,31
 682 1248 682 1248 682 1122 c 0,32,33
 682 950 682 950 605 830.5 c 128,-1,34
 528 711 528 711 416 711 c 0,35,36
 295 711 295 711 205 827.5 c 128,-1,37
 115 944 115 944 115 1124 c 0,0,1
242 1122.5 m 128,-1,39
 242 1026 242 1026 256 954.5 c 128,-1,40
 270 883 270 883 290.5 846 c 128,-1,41
 311 809 311 809 339 787.5 c 128,-1,42
 367 766 367 766 384 761 c 128,-1,43
 401 756 401 756 418 756 c 0,44,45
 502 756 502 756 566.5 860.5 c 128,-1,46
 631 965 631 965 631 1124 c 0,47,48
 631 1280 631 1280 566.5 1385.5 c 128,-1,49
 502 1491 502 1491 418 1491 c 0,50,51
 400 1491 400 1491 382.5 1486 c 128,-1,52
 365 1481 365 1481 338 1459.5 c 128,-1,53
 311 1438 311 1438 290.5 1401 c 128,-1,54
 270 1364 270 1364 256 1291.5 c 128,-1,38
 242 1219 242 1219 242 1122.5 c 128,-1,39
1022 299 m 0,55,56
 1022 475 1022 475 1112 593 c 128,-1,57
 1202 711 1202 711 1323 711 c 0,58,59
 1434 711 1434 711 1511.5 591 c 128,-1,60
 1589 471 1589 471 1589 297 c 0,61,62
 1589 125 1589 125 1512.5 5 c 128,-1,63
 1436 -115 1436 -115 1323 -115 c 0,64,65
 1202 -115 1202 -115 1112 2 c 128,-1,66
 1022 119 1022 119 1022 299 c 0,55,56
1149 297 m 128,-1,68
 1149 201 1149 201 1163.5 129 c 128,-1,69
 1178 57 1178 57 1198.5 20.5 c 128,-1,70
 1219 -16 1219 -16 1246.5 -37.5 c 128,-1,71
 1274 -59 1274 -59 1291.5 -64.5 c 128,-1,72
 1309 -70 1309 -70 1325 -70 c 0,73,74
 1409 -70 1409 -70 1473.5 34.5 c 128,-1,75
 1538 139 1538 139 1538 299 c 0,76,77
 1538 455 1538 455 1473.5 560.5 c 128,-1,78
 1409 666 1409 666 1325 666 c 0,79,80
 1307 666 1307 666 1289.5 660.5 c 128,-1,81
 1272 655 1272 655 1245.5 633.5 c 128,-1,82
 1219 612 1219 612 1198.5 575.5 c 128,-1,83
 1178 539 1178 539 1163.5 466 c 128,-1,67
 1149 393 1149 393 1149 297 c 128,-1,68
EndSplineSet
EndChar

StartChar: ampersand
Encoding: 38 38 9
Width: 1591
GlyphClass: 2
Flags: W
LayerCount: 2
Fore
SplineSet
86 262 m 0,0,1
 86 338 86 338 118 388 c 128,-1,2
 150 438 150 438 231 522 c 2,3,-1
 418 721 l 1,4,5
 334 934 334 934 334 1137 c 0,6,7
 334 1289 334 1289 420 1377.5 c 128,-1,8
 506 1466 506 1466 612 1466 c 0,9,10
 663 1466 663 1466 701 1438.5 c 128,-1,11
 739 1411 739 1411 756.5 1368 c 128,-1,12
 774 1325 774 1325 782.5 1284 c 128,-1,13
 791 1243 791 1243 791 1202 c 0,14,15
 791 1139 791 1139 745.5 1058 c 128,-1,16
 700 977 700 977 658 924.5 c 128,-1,17
 616 872 616 872 541 788 c 1,18,19
 598 638 598 638 710.5 472.5 c 128,-1,20
 823 307 823 307 881 242 c 1,21,22
 1012 404 1012 404 1174 688 c 1,23,24
 1186 725 1186 725 1186 729 c 0,25,26
 1186 768 1186 768 1148 793.5 c 128,-1,27
 1110 819 1110 819 1040 819 c 1,28,-1
 1040 883 l 1,29,30
 1122 877 1122 877 1290 877 c 0,31,32
 1376 877 1376 877 1489 883 c 1,33,-1
 1489 819 l 1,34,35
 1421 819 1421 819 1376 807 c 128,-1,36
 1331 795 1331 795 1296.5 762 c 128,-1,37
 1262 729 1262 729 1241.5 701.5 c 128,-1,38
 1221 674 1221 674 1184 610 c 0,39,40
 1010 311 1010 311 913 201 c 1,41,42
 1067 19 1067 19 1196 18 c 0,43,44
 1278 18 1278 18 1349.5 77.5 c 128,-1,45
 1421 137 1421 137 1425 248 c 1,46,-1
 1477 248 l 1,47,48
 1475 119 1475 119 1391 37 c 128,-1,49
 1307 -45 1307 -45 1188 -45 c 0,50,51
 1006 -45 1006 -45 827 111 c 1,52,53
 653 -45 653 -45 457 -45 c 0,54,55
 303 -45 303 -45 194.5 43 c 128,-1,56
 86 131 86 131 86 262 c 0,0,1
256 328 m 0,57,58
 256 262 256 262 273.5 196.5 c 128,-1,59
 291 131 291 131 343 74.5 c 128,-1,60
 395 18 395 18 473 18 c 0,61,62
 641 18 641 18 788 150 c 1,63,64
 708 230 708 230 600 389 c 0,65,66
 506 524 506 524 436 674 c 1,67,68
 338 580 338 580 297 510.5 c 128,-1,69
 256 441 256 441 256 328 c 0,57,58
463 1184 m 0,70,71
 463 1020 463 1020 524 838 c 1,72,73
 739 1071 739 1071 739 1204 c 0,74,75
 739 1214 739 1214 738 1229.5 c 128,-1,76
 737 1245 737 1245 731 1282 c 128,-1,77
 725 1319 725 1319 713.5 1346.5 c 128,-1,78
 702 1374 702 1374 676.5 1397.5 c 128,-1,79
 651 1421 651 1421 616 1421 c 0,80,81
 555 1421 555 1421 509 1362 c 128,-1,82
 463 1303 463 1303 463 1184 c 0,70,71
EndSplineSet
EndChar

StartChar: quotesingle
Encoding: 39 39 10
Width: 569
GlyphClass: 2
Flags: W
LayerCount: 2
Fore
SplineSet
188 1360 m 0,0,1
 188 1411 188 1411 219 1432.5 c 128,-1,2
 250 1454 250 1454 283 1454 c 0,3,4
 324 1454 324 1454 350.5 1429.5 c 128,-1,5
 377 1405 377 1405 377 1360 c 0,6,7
 377 1340 377 1340 375 1329 c 2,8,-1
 307 711 l 1,9,-1
 260 711 l 1,10,-1
 190 1329 l 2,11,12
 188 1340 188 1340 188 1360 c 0,0,1
EndSplineSet
EndChar

StartChar: parenleft
Encoding: 40 40 11
Width: 794
GlyphClass: 2
Flags: W
LayerCount: 2
Fore
SplineSet
203 512 m 0,0,1
 203 858 203 858 332 1137 c 0,2,3
 387 1254 387 1254 464 1352 c 128,-1,4
 541 1450 541 1450 592 1493 c 128,-1,5
 643 1536 643 1536 657 1536 c 0,6,7
 677 1536 677 1536 678 1516 c 0,8,9
 678 1506 678 1506 651 1481 c 0,10,11
 321 1145 321 1145 322 512 c 0,12,13
 322 -123 322 -123 643 -446 c 0,14,15
 678 -481 678 -481 678 -492 c 0,16,17
 678 -512 678 -512 657 -512 c 0,18,19
 643 -512 643 -512 594 -471 c 128,-1,20
 545 -430 545 -430 469 -336 c 128,-1,21
 393 -242 393 -242 338 -127 c 0,22,23
 203 152 203 152 203 512 c 0,0,1
EndSplineSet
EndChar

StartChar: parenright
Encoding: 41 41 12
Width: 794
GlyphClass: 2
Flags: W
LayerCount: 2
Fore
SplineSet
117 -492 m 0,0,1
 117 -482 117 -482 143 -457 c 0,2,3
 473 -121 473 -121 473 512 c 0,4,5
 473 1147 473 1147 156 1468 c 0,6,7
 117 1505 117 1505 117 1516 c 0,8,9
 117 1536 117 1536 137 1536 c 0,10,11
 151 1536 151 1536 200.5 1495 c 128,-1,12
 250 1454 250 1454 325.5 1360 c 128,-1,13
 401 1266 401 1266 457 1151 c 0,14,15
 592 872 592 872 592 512 c 0,16,17
 592 166 592 166 463 -113 c 0,18,19
 408 -230 408 -230 331 -328 c 128,-1,20
 254 -426 254 -426 203 -469 c 128,-1,21
 152 -512 152 -512 137 -512 c 0,22,23
 117 -512 117 -512 117 -492 c 0,0,1
EndSplineSet
EndChar

StartChar: asterisk
Encoding: 42 42 13
Width: 1024
GlyphClass: 2
Flags: W
LayerCount: 2
Fore
SplineSet
133 903 m 0,0,1
 133 938 133 938 180 961 c 2,2,-1
 465 1096 l 1,3,-1
 176 1231 l 2,4,5
 133 1251 133 1251 133 1286 c 0,6,7
 133 1306 133 1306 149.5 1324.5 c 128,-1,8
 166 1343 166 1343 188 1343 c 0,9,10
 204 1343 204 1343 233 1321 c 2,11,-1
 487 1137 l 1,12,13
 456 1475 456 1475 457 1485 c 0,14,15
 457 1505 457 1505 472 1520.5 c 128,-1,16
 487 1536 487 1536 512 1536 c 0,17,18
 532 1536 532 1536 548.5 1521.5 c 128,-1,19
 565 1507 565 1507 565 1485 c 2,20,-1
 535 1137 l 1,21,-1
 762 1305 l 2,22,23
 815 1344 815 1344 834 1343 c 0,24,25
 857 1343 857 1343 873 1325 c 128,-1,26
 889 1307 889 1307 889 1286 c 0,27,28
 889 1251 889 1251 842 1229 c 2,29,-1
 557 1094 l 1,30,-1
 846 958 l 2,31,32
 889 938 889 938 889 903 c 0,33,34
 889 883 889 883 872.5 864.5 c 128,-1,35
 856 846 856 846 834 846 c 0,36,37
 822 846 822 846 801 858 c 0,38,39
 797 860 797 860 754 892 c 128,-1,40
 711 924 711 924 644.5 973 c 128,-1,41
 578 1022 578 1022 535 1053 c 1,42,43
 566 715 566 715 565 705 c 0,44,45
 565 685 565 685 550 669 c 128,-1,46
 535 653 535 653 510 653 c 0,47,48
 490 653 490 653 473.5 667.5 c 128,-1,49
 457 682 457 682 457 705 c 2,50,-1
 487 1053 l 1,51,-1
 201 846 l 1,52,53
 170 846 170 846 153.5 861.5 c 128,-1,54
 137 877 137 877 135 886 c 128,-1,55
 133 895 133 895 133 903 c 0,0,1
EndSplineSet
EndChar

StartChar: plus
Encoding: 43 43 14
Width: 1593
GlyphClass: 2
Flags: W
LayerCount: 2
Fore
SplineSet
117 512 m 128,-1,1
 117 537 117 537 166 537 c 0,2,3
 172 537 172 537 182.5 536 c 128,-1,4
 193 535 193 535 195 535 c 2,5,-1
 772 535 l 1,6,-1
 772 1114 l 2,7,8
 772 1116 772 1116 771 1125.5 c 128,-1,9
 770 1135 770 1135 770 1141 c 0,10,11
 770 1190 770 1190 794.5 1190 c 128,-1,12
 819 1190 819 1190 819 1141 c 2,13,-1
 819 535 l 1,14,-1
 1397 535 l 2,15,16
 1399 535 1399 535 1409 536 c 128,-1,17
 1419 537 1419 537 1425 537 c 0,18,19
 1472 537 1472 537 1472.5 512 c 128,-1,20
 1473 487 1473 487 1423 487 c 0,21,22
 1417 487 1417 487 1408 488 c 128,-1,23
 1399 489 1399 489 1397 489 c 2,24,-1
 819 489 l 1,25,-1
 819 -119 l 2,26,27
 819 -166 819 -166 794.5 -166 c 128,-1,28
 770 -166 770 -166 770 -117 c 0,29,30
 770 -111 770 -111 771 -101.5 c 128,-1,31
 772 -92 772 -92 772 -90 c 2,32,-1
 772 489 l 1,33,-1
 195 489 l 2,34,35
 193 489 193 489 181.5 488 c 128,-1,36
 170 487 170 487 164 487 c 0,37,0
 117 487 117 487 117 512 c 128,-1,1
EndSplineSet
EndChar

StartChar: comma
Encoding: 44 44 15
Width: 567
GlyphClass: 2
Flags: W
LayerCount: 2
Fore
SplineSet
176 109 m 128,-1,1
 176 152 176 152 204.5 184.5 c 128,-1,2
 233 217 233 217 285 217 c 0,3,4
 346 217 346 217 381 158.5 c 128,-1,5
 416 100 416 100 416 2 c 0,6,7
 416 -104 416 -104 373 -202.5 c 128,-1,8
 330 -301 330 -301 288 -348 c 128,-1,9
 246 -395 246 -395 229 -395 c 0,10,11
 209 -395 209 -395 209 -373 c 0,12,13
 209 -365 209 -365 223 -350 c 0,14,15
 370 -192 370 -192 371 2 c 0,16,17
 371 33 371 33 367 33 c 2,18,-1
 362 29 l 2,19,20
 327 0 327 0 285 0 c 0,21,22
 234 0 234 0 205 33 c 128,-1,0
 176 66 176 66 176 109 c 128,-1,1
EndSplineSet
EndChar

StartChar: hyphen
Encoding: 45 45 16
Width: 681
GlyphClass: 2
Flags: W
LayerCount: 2
Fore
SplineSet
20 381 m 1,0,-1
 20 502 l 1,1,-1
 565 502 l 1,2,-1
 565 381 l 1,3,-1
 20 381 l 1,0,-1
EndSplineSet
EndChar

StartChar: period
Encoding: 46 46 17
Width: 569
GlyphClass: 2
Flags: W
LayerCount: 2
Fore
SplineSet
174 109 m 128,-1,1
 174 152 174 152 205 183.5 c 128,-1,2
 236 215 236 215 283 215 c 0,3,4
 328 215 328 215 358.5 185.5 c 128,-1,5
 389 156 389 156 389 108.5 c 128,-1,6
 389 61 389 61 356.5 30.5 c 128,-1,7
 324 0 324 0 283 0 c 0,8,9
 236 0 236 0 205 33 c 128,-1,0
 174 66 174 66 174 109 c 128,-1,1
EndSplineSet
EndChar

StartChar: slash
Encoding: 47 47 18
Width: 1024
GlyphClass: 2
Flags: W
LayerCount: 2
Fore
SplineSet
117 -483 m 0,0,1
 117 -473 117 -473 125 -451 c 2,2,-1
 848 1481 l 2,3,4
 848 1483 848 1483 853 1494 c 128,-1,5
 858 1505 858 1505 861 1512.5 c 128,-1,6
 864 1520 864 1520 870.5 1526 c 128,-1,7
 877 1532 877 1532 885 1532 c 0,8,9
 905 1532 905 1532 905 1507 c 0,10,11
 905 1505 905 1505 899 1481 c 2,12,-1
 174 -453 l 2,13,14
 162 -488 162 -488 154.5 -498 c 128,-1,15
 147 -508 147 -508 135 -508 c 0,16,17
 117 -508 117 -508 117 -483 c 0,0,1
EndSplineSet
EndChar

StartChar: zero
Encoding: 48 48 19
Width: 1024
GlyphClass: 2
Flags: W
LayerCount: 2
Fore
SplineSet
80 655 m 0,0,1
 80 956 80 956 156 1120 c 1,2,3
 262 1364 262 1364 512 1364 c 0,4,5
 565 1364 565 1364 620.5 1349.5 c 128,-1,6
 676 1335 676 1335 746.5 1280 c 128,-1,7
 817 1225 817 1225 860 1135 c 0,8,9
 942 961 942 961 942 655 c 0,10,11
 942 356 942 356 866 193 c 0,12,13
 755 -45 755 -45 510 -45 c 0,14,15
 418 -45 418 -45 324.5 2 c 128,-1,16
 231 49 231 49 172 162 c 0,17,18
 80 331 80 331 80 655 c 0,0,1
250 680 m 0,19,20
 250 371 250 371 272 248 c 0,21,22
 297 115 297 115 365.5 57.5 c 128,-1,23
 434 0 434 0 510 0 c 0,24,25
 592 0 592 0 660.5 61.5 c 128,-1,26
 729 123 729 123 750 256 c 0,27,28
 773 387 773 387 772 680 c 0,29,30
 772 965 772 965 752 1079 c 0,31,32
 725 1212 725 1212 653.5 1265.5 c 128,-1,33
 582 1319 582 1319 510 1319 c 0,34,35
 483 1319 483 1319 454.5 1311 c 128,-1,36
 426 1303 426 1303 385 1280 c 128,-1,37
 344 1257 344 1257 312.5 1200 c 128,-1,38
 281 1143 281 1143 266 1057 c 0,39,40
 250 946 250 946 250 680 c 0,19,20
EndSplineSet
EndChar

StartChar: one
Encoding: 49 49 20
Width: 1024
GlyphClass: 2
Flags: W
LayerCount: 2
Fore
SplineSet
182 1169 m 1,0,-1
 182 1233 l 1,1,2
 428 1233 428 1233 555 1364 c 1,3,4
 590 1364 590 1364 596 1356 c 128,-1,5
 602 1348 602 1348 602 1311 c 2,6,-1
 602 162 l 2,7,8
 602 101 602 101 632 82 c 128,-1,9
 662 63 662 63 793 63 c 2,10,-1
 858 63 l 1,11,-1
 858 0 l 1,12,13
 786 6 786 6 526 6 c 128,-1,14
 266 6 266 6 195 0 c 1,15,-1
 195 63 l 1,16,-1
 260 63 l 2,17,18
 389 63 389 63 420 81.5 c 128,-1,19
 451 100 451 100 451 162 c 2,20,-1
 451 1223 l 1,21,22
 344 1169 344 1169 182 1169 c 1,0,-1
EndSplineSet
EndChar

StartChar: two
Encoding: 50 50 21
Width: 1024
GlyphClass: 2
Flags: W
LayerCount: 2
Fore
SplineSet
102 0 m 1,0,1
 102 37 102 37 105.5 48 c 128,-1,2
 109 59 109 59 125 76 c 2,3,-1
 518 514 l 2,4,5
 733 756 733 756 733 967 c 0,6,7
 733 1104 733 1104 661.5 1202 c 128,-1,8
 590 1300 590 1300 459 1300 c 0,9,10
 369 1300 369 1300 293 1245 c 128,-1,11
 217 1190 217 1190 182 1092 c 1,12,13
 188 1094 188 1094 209 1094 c 0,14,15
 260 1094 260 1094 288.5 1062 c 128,-1,16
 317 1030 317 1030 317 987 c 0,17,18
 317 932 317 932 281.5 905.5 c 128,-1,19
 246 879 246 879 211 879 c 0,20,21
 197 879 197 879 178.5 882 c 128,-1,22
 160 885 160 885 131 913.5 c 128,-1,23
 102 942 102 942 102 993 c 0,24,25
 102 1136 102 1136 210.5 1250 c 128,-1,26
 319 1364 319 1364 485 1364 c 0,27,28
 673 1364 673 1364 796.5 1252.5 c 128,-1,29
 920 1141 920 1141 920 967 c 0,30,31
 920 906 920 906 901.5 850.5 c 128,-1,32
 883 795 883 795 858.5 752 c 128,-1,33
 834 709 834 709 768 640 c 128,-1,34
 702 571 702 571 649 522 c 128,-1,35
 596 473 596 473 477 369 c 1,36,-1
 260 158 l 1,37,-1
 629 158 l 2,38,39
 809 158 809 158 823 174 c 0,40,41
 843 203 843 203 868 356 c 1,42,-1
 920 356 l 1,43,-1
 862 0 l 1,44,-1
 102 0 l 1,0,1
EndSplineSet
EndChar

StartChar: three
Encoding: 51 51 22
Width: 1024
GlyphClass: 2
Flags: W
LayerCount: 2
Fore
SplineSet
86 276 m 0,0,1
 86 337 86 337 121 366 c 128,-1,2
 156 395 156 395 201 395 c 0,3,4
 248 395 248 395 281.5 364.5 c 128,-1,5
 315 334 315 334 315 281 c 0,6,7
 315 224 315 224 275.5 192 c 128,-1,8
 236 160 236 160 180 168 c 1,9,10
 229 86 229 86 319.5 49 c 128,-1,11
 410 12 410 12 494 12 c 0,12,13
 582 12 582 12 653.5 88 c 128,-1,14
 725 164 725 164 725 350 c 0,15,16
 725 508 725 508 663.5 599 c 128,-1,17
 602 690 602 690 481 690 c 2,18,-1
 391 690 l 2,19,20
 360 690 360 690 351 693 c 128,-1,21
 342 696 342 696 342 713 c 0,22,23
 342 733 342 733 373 737 c 0,24,25
 404 737 404 737 453 743 c 1,26,27
 572 747 572 747 635 850 c 0,28,29
 692 946 692 946 692 1083 c 0,30,31
 692 1208 692 1208 632.5 1260.5 c 128,-1,32
 573 1313 573 1313 496 1313 c 0,33,34
 424 1313 424 1313 345 1283 c 128,-1,35
 266 1253 266 1253 223 1186 c 1,36,37
 350 1186 350 1186 350 1083 c 0,38,39
 350 1038 350 1038 321.5 1008.5 c 128,-1,40
 293 979 293 979 246 979 c 0,41,42
 201 979 201 979 171 1007.5 c 128,-1,43
 141 1036 141 1036 141 1085 c 0,44,45
 141 1202 141 1202 245.5 1283 c 128,-1,46
 350 1364 350 1364 504 1364 c 0,47,48
 656 1364 656 1364 768.5 1284 c 128,-1,49
 881 1204 881 1204 881 1081 c 0,50,51
 881 960 881 960 801 861 c 128,-1,52
 721 762 721 762 594 721 c 1,53,54
 750 690 750 690 843 584.5 c 128,-1,55
 936 479 936 479 936 350 c 0,56,57
 936 190 936 190 810 72.5 c 128,-1,58
 684 -45 684 -45 500 -45 c 0,59,60
 330 -45 330 -45 208 47 c 128,-1,61
 86 139 86 139 86 276 c 0,0,1
EndSplineSet
EndChar

StartChar: four
Encoding: 52 52 23
Width: 1024
GlyphClass: 2
Flags: W
LayerCount: 2
Fore
SplineSet
57 338 m 1,0,-1
 57 401 l 1,1,-1
 686 1362 l 2,2,3
 702 1387 702 1387 727 1386 c 0,4,5
 750 1386 750 1386 755 1377 c 128,-1,6
 760 1368 760 1368 760 1333 c 2,7,-1
 760 401 l 1,8,-1
 965 401 l 1,9,-1
 965 338 l 1,10,-1
 760 338 l 1,11,-1
 760 160 l 2,12,13
 760 101 760 101 784.5 82 c 128,-1,14
 809 63 809 63 915 63 c 2,15,-1
 958 63 l 1,16,-1
 958 0 l 1,17,18
 874 6 874 6 680 6 c 0,19,20
 487 6 487 6 403 0 c 1,21,-1
 403 63 l 1,22,-1
 446 63 l 2,23,24
 552 63 552 63 577 81.5 c 128,-1,25
 602 100 602 100 602 160 c 2,26,-1
 602 338 l 1,27,-1
 57 338 l 1,0,-1
115 401 m 1,28,-1
 614 401 l 1,29,-1
 614 1165 l 1,30,-1
 115 401 l 1,28,-1
EndSplineSet
EndChar

StartChar: five
Encoding: 53 53 24
Width: 1024
GlyphClass: 2
Flags: W
LayerCount: 2
Fore
SplineSet
102 330 m 0,0,1
 102 391 102 391 135 414.5 c 128,-1,2
 168 438 168 438 203 438 c 0,3,4
 250 438 250 438 277.5 408.5 c 128,-1,5
 305 379 305 379 305 338 c 128,-1,6
 305 297 305 297 277.5 267.5 c 128,-1,7
 250 238 250 238 203 238 c 0,8,9
 180 238 180 238 168 242 c 1,10,11
 195 148 195 148 277.5 80 c 128,-1,12
 360 12 360 12 469 12 c 0,13,14
 606 12 606 12 688 145 c 0,15,16
 737 231 737 231 737 426 c 0,17,18
 737 598 737 598 700 684 c 0,19,20
 643 815 643 815 526 815 c 0,21,22
 360 815 360 815 262 672 c 0,23,24
 250 654 250 654 236 653 c 0,25,26
 216 653 216 653 211.5 664.5 c 128,-1,27
 207 676 207 676 207 707 c 2,28,-1
 207 1313 l 2,29,30
 207 1362 207 1362 227 1362 c 0,31,32
 235 1362 235 1362 252 1356 c 0,33,34
 381 1299 381 1299 524 1298 c 0,35,36
 671 1298 671 1298 803 1358 c 0,37,38
 813 1364 813 1364 819 1364 c 0,39,40
 839 1364 839 1364 840 1341 c 0,41,42
 840 1333 840 1333 823.5 1309.5 c 128,-1,43
 807 1286 807 1286 772 1255.5 c 128,-1,44
 737 1225 737 1225 692 1196 c 128,-1,45
 647 1167 647 1167 581.5 1147.5 c 128,-1,46
 516 1128 516 1128 444 1128 c 0,47,48
 358 1128 358 1128 270 1155 c 1,49,-1
 270 756 l 1,50,51
 376 860 376 860 530 860 c 0,52,53
 694 860 694 860 807 728 c 128,-1,54
 920 596 920 596 920 412 c 0,55,56
 920 219 920 219 786.5 87 c 128,-1,57
 653 -45 653 -45 473 -45 c 0,58,59
 309 -45 309 -45 205.5 72 c 128,-1,60
 102 189 102 189 102 330 c 0,0,1
EndSplineSet
EndChar

StartChar: six
Encoding: 54 54 25
Width: 1024
GlyphClass: 2
Flags: W
LayerCount: 2
Fore
SplineSet
86 647 m 0,0,1
 86 969 86 969 250 1166.5 c 128,-1,2
 414 1364 414 1364 625 1364 c 0,3,4
 748 1364 748 1364 816.5 1301.5 c 128,-1,5
 885 1239 885 1239 885 1143 c 0,6,7
 885 1090 885 1090 854 1067 c 128,-1,8
 823 1044 823 1044 791 1044 c 0,9,10
 754 1044 754 1044 725 1069 c 128,-1,11
 696 1094 696 1094 696 1139 c 0,12,13
 696 1231 696 1231 809 1231 c 1,14,15
 756 1313 756 1313 629 1313 c 0,16,17
 590 1313 590 1313 550 1301.5 c 128,-1,18
 510 1290 510 1290 458 1252 c 128,-1,19
 406 1214 406 1214 366 1154 c 128,-1,20
 326 1094 326 1094 298 981 c 128,-1,21
 270 868 270 868 270 721 c 2,22,-1
 270 672 l 1,23,24
 354 875 354 875 526 874.5 c 128,-1,25
 698 874 698 874 817 743 c 128,-1,26
 936 612 936 612 936 418 c 0,27,28
 936 219 936 219 812 87 c 128,-1,29
 688 -45 688 -45 514 -45 c 0,30,31
 436 -45 436 -45 365.5 -12.5 c 128,-1,32
 295 20 295 20 229.5 94 c 128,-1,33
 164 168 164 168 125 310 c 128,-1,34
 86 452 86 452 86 647 c 0,0,1
274 463 m 0,35,36
 274 262 274 262 311 166 c 0,37,38
 317 150 317 150 330.5 128 c 128,-1,39
 344 106 344 106 367.5 77.5 c 128,-1,40
 391 49 391 49 430 30.5 c 128,-1,41
 469 12 469 12 514 12 c 0,42,43
 651 12 651 12 717 145 c 0,44,45
 752 219 752 219 752 420 c 0,46,47
 752 625 752 625 715 700 c 0,48,49
 652 827 652 827 524 827 c 0,50,51
 438 827 438 827 378.5 768 c 128,-1,52
 319 709 319 709 296.5 630 c 128,-1,53
 274 551 274 551 274 463 c 0,35,36
EndSplineSet
EndChar

StartChar: seven
Encoding: 55 55 26
Width: 1024
GlyphClass: 2
Flags: W
LayerCount: 2
Fore
SplineSet
115 963 m 1,0,-1
 182 1384 l 1,1,-1
 233 1384 l 1,2,3
 239 1359 239 1359 249.5 1348 c 128,-1,4
 260 1337 260 1337 318.5 1328 c 128,-1,5
 377 1319 377 1319 496 1319 c 2,6,-1
 993 1319 l 1,7,8
 993 1272 993 1272 975 1247 c 2,9,-1
 698 858 l 2,10,11
 610 735 610 735 571 508 c 0,12,13
 548 356 548 356 549 172 c 2,14,-1
 549 68 l 2,15,16
 549 -45 549 -45 454.5 -45 c 128,-1,17
 360 -45 360 -45 360 68 c 0,18,19
 360 459 360 459 612 838 c 0,20,21
 639 877 639 877 738.5 1016 c 128,-1,22
 838 1155 838 1155 842 1161 c 1,23,-1
 418 1161 l 2,24,25
 232 1161 232 1161 217 1149 c 0,26,27
 197 1131 197 1131 166 963 c 1,28,-1
 115 963 l 1,0,-1
EndSplineSet
EndChar

StartChar: eight
Encoding: 56 56 27
Width: 1024
GlyphClass: 2
Flags: W
LayerCount: 2
Fore
SplineSet
86 309 m 0,0,1
 86 538 86 538 381 686 c 1,2,3
 254 772 254 772 231 797 c 0,4,5
 141 897 141 897 141 1022 c 0,6,7
 141 1165 141 1165 249.5 1264.5 c 128,-1,8
 358 1364 358 1364 512 1364 c 0,9,10
 659 1364 659 1364 770 1279 c 128,-1,11
 881 1194 881 1194 881 1059 c 0,12,13
 881 869 881 869 633 741 c 1,14,15
 797 639 797 639 836 596 c 0,16,17
 936 485 936 485 936 344 c 0,18,19
 936 180 936 180 810 67.5 c 128,-1,20
 684 -45 684 -45 510 -45 c 0,21,22
 340 -45 340 -45 213 54 c 128,-1,23
 86 153 86 153 86 309 c 0,0,1
188 309 m 0,24,25
 188 182 188 182 283.5 97 c 128,-1,26
 379 12 379 12 512 12 c 0,27,28
 641 12 641 12 737.5 86 c 128,-1,29
 834 160 834 160 834 270 c 0,30,31
 834 313 834 313 819.5 350 c 128,-1,32
 805 387 805 387 776.5 416.5 c 128,-1,33
 748 446 748 446 730.5 459.5 c 128,-1,34
 713 473 713 473 680 496 c 2,35,-1
 428 655 l 1,36,37
 188 522 188 522 188 309 c 0,24,25
231 1102 m 0,38,39
 231 1004 231 1004 334 936 c 2,40,-1
 588 772 l 1,41,42
 791 891 791 891 791 1059 c 0,43,44
 791 1168 791 1168 708 1240.5 c 128,-1,45
 625 1313 625 1313 510 1313 c 0,46,47
 397 1313 397 1313 314 1253.5 c 128,-1,48
 231 1194 231 1194 231 1102 c 0,38,39
EndSplineSet
EndChar

StartChar: nine
Encoding: 57 57 28
Width: 1024
GlyphClass: 2
Flags: W
LayerCount: 2
Fore
SplineSet
86 903 m 0,0,1
 86 1012 86 1012 118 1086.5 c 128,-1,2
 150 1161 150 1161 217 1235 c 0,3,4
 340 1364 340 1364 518 1364 c 0,5,6
 594 1364 594 1364 661.5 1332 c 128,-1,7
 729 1300 729 1300 793.5 1227.5 c 128,-1,8
 858 1155 858 1155 897 1012.5 c 128,-1,9
 936 870 936 870 936 674 c 0,10,11
 936 357 936 357 782.5 156 c 128,-1,12
 629 -45 629 -45 422 -45 c 0,13,14
 291 -45 291 -45 214 14.5 c 128,-1,15
 137 74 137 74 137 176 c 0,16,17
 137 229 137 229 167 251.5 c 128,-1,18
 197 274 197 274 231 274 c 0,19,20
 268 274 268 274 297 249.5 c 128,-1,21
 326 225 326 225 326 180 c 0,22,23
 326 143 326 143 302.5 114.5 c 128,-1,24
 279 86 279 86 219 86 c 1,25,26
 278 12 278 12 420 12 c 0,27,28
 471 12 471 12 522 35.5 c 128,-1,29
 573 59 573 59 628.5 116.5 c 128,-1,30
 684 174 684 174 718 295 c 128,-1,31
 752 416 752 416 752 586 c 2,32,-1
 752 651 l 1,33,34
 670 446 670 446 496 446 c 0,35,36
 324 446 324 446 205 578 c 128,-1,37
 86 710 86 710 86 903 c 0,0,1
270 901 m 0,38,39
 270 698 270 698 307 623 c 0,40,41
 370 494 370 494 498 494 c 0,42,43
 623 494 623 494 685.5 605.5 c 128,-1,44
 748 717 748 717 748 862 c 0,45,46
 748 1063 748 1063 715 1151 c 0,47,48
 654 1313 654 1313 518.5 1313 c 128,-1,49
 383 1313 383 1313 313 1184 c 0,50,51
 270 1108 270 1108 270 901 c 0,38,39
EndSplineSet
EndChar

StartChar: colon
Encoding: 58 58 29
Width: 567
GlyphClass: 2
Flags: W
LayerCount: 2
Fore
SplineSet
176 108 m 128,-1,1
 176 153 176 153 208 185 c 128,-1,2
 240 217 240 217 285 217 c 128,-1,3
 330 217 330 217 362 185 c 128,-1,4
 394 153 394 153 394 108 c 128,-1,5
 394 63 394 63 362 31.5 c 128,-1,6
 330 0 330 0 285 0 c 128,-1,7
 240 0 240 0 208 31.5 c 128,-1,0
 176 63 176 63 176 108 c 128,-1,1
176 774 m 128,-1,9
 176 819 176 819 208 851 c 128,-1,10
 240 883 240 883 285 883 c 128,-1,11
 330 883 330 883 362 851 c 128,-1,12
 394 819 394 819 394 774 c 128,-1,13
 394 729 394 729 362 697.5 c 128,-1,14
 330 666 330 666 285 666 c 128,-1,15
 240 666 240 666 208 697.5 c 128,-1,8
 176 729 176 729 176 774 c 128,-1,9
EndSplineSet
EndChar

StartChar: semicolon
Encoding: 59 59 30
Width: 569
GlyphClass: 2
Flags: W
LayerCount: 2
Fore
SplineSet
174 775 m 128,-1,1
 174 818 174 818 205 849.5 c 128,-1,2
 236 881 236 881 283 881 c 0,3,4
 328 881 328 881 358.5 851.5 c 128,-1,5
 389 822 389 822 389 774.5 c 128,-1,6
 389 727 389 727 356.5 696.5 c 128,-1,7
 324 666 324 666 283 666 c 0,8,9
 236 666 236 666 205 699 c 128,-1,0
 174 732 174 732 174 775 c 128,-1,1
176 109 m 128,-1,11
 176 152 176 152 204.5 184.5 c 128,-1,12
 233 217 233 217 285 217 c 0,13,14
 346 217 346 217 381 158.5 c 128,-1,15
 416 100 416 100 416 2 c 0,16,17
 416 -104 416 -104 373 -202.5 c 128,-1,18
 330 -301 330 -301 288 -348 c 128,-1,19
 246 -395 246 -395 229 -395 c 0,20,21
 209 -395 209 -395 209 -373 c 0,22,23
 209 -365 209 -365 223 -350 c 0,24,25
 370 -192 370 -192 371 2 c 0,26,27
 371 33 371 33 367 33 c 2,28,-1
 362 29 l 2,29,30
 327 0 327 0 285 0 c 0,31,32
 234 0 234 0 205 33 c 128,-1,10
 176 66 176 66 176 109 c 128,-1,11
EndSplineSet
EndChar

StartChar: less
Encoding: 60 60 31
Width: 1593
GlyphClass: 2
Flags: W
LayerCount: 2
Fore
SplineSet
174 512 m 0,0,1
 174 528 174 528 207 545 c 2,2,-1
 1343 1063 l 2,3,4
 1384 1083 1384 1083 1395 1083 c 0,5,6
 1415 1083 1415 1083 1415 1063 c 0,7,8
 1415 1047 1415 1047 1368 1024 c 2,9,-1
 369 565 l 2,10,11
 308 536 308 536 250 512 c 1,12,13
 307 487 307 487 369 459 c 2,14,-1
 1368 0 l 2,15,16
 1415 -20 1415 -20 1415 -39 c 0,17,18
 1415 -59 1415 -59 1395 -59 c 0,19,20
 1385 -59 1385 -59 1343 -39 c 2,21,-1
 207 479 l 2,22,23
 176 492 176 492 174 512 c 0,0,1
EndSplineSet
EndChar

StartChar: equal
Encoding: 61 61 32
Width: 1593
GlyphClass: 2
Flags: W
LayerCount: 2
Fore
SplineSet
117 311 m 0,0,1
 119 336 119 336 158 336 c 2,2,-1
 1413 336 l 2,3,4
 1472 336 1472 336 1473 313 c 0,5,6
 1473 288 1473 288 1417 289 c 2,7,-1
 172 289 l 2,8,9
 117 288 117 288 117 311 c 0,0,1
117 711 m 0,10,11
 117 736 117 736 160 735 c 2,12,-1
 1411 735 l 2,13,14
 1472 735 1472 735 1473 711 c 0,15,16
 1473 688 1473 688 1421 688 c 2,17,-1
 158 688 l 2,18,19
 117 688 117 688 117 711 c 0,10,11
EndSplineSet
EndChar

StartChar: greater
Encoding: 62 62 33
Width: 1593
GlyphClass: 2
Flags: W
LayerCount: 2
Fore
SplineSet
174 -39 m 0,0,1
 174 -27 174 -27 183.5 -20.5 c 128,-1,2
 193 -14 193 -14 223 0 c 2,3,-1
 1223 459 l 2,4,5
 1301 496 1301 496 1341 512 c 1,6,7
 1300 528 1300 528 1223 565 c 2,8,-1
 223 1024 l 2,9,10
 219 1026 219 1026 210 1030 c 128,-1,11
 201 1034 201 1034 195.5 1037 c 128,-1,12
 190 1040 190 1040 185 1044.5 c 128,-1,13
 180 1049 180 1049 177 1053 c 128,-1,14
 174 1057 174 1057 174 1063 c 0,15,16
 174 1083 174 1083 197 1083 c 0,17,18
 207 1083 207 1083 248 1063 c 2,19,-1
 1384 545 l 2,20,21
 1386 545 1386 545 1391.5 542 c 128,-1,22
 1397 539 1397 539 1401 535.5 c 128,-1,23
 1405 532 1405 532 1409 529 c 128,-1,24
 1413 526 1413 526 1415 522 c 128,-1,25
 1417 518 1417 518 1417 512 c 0,26,27
 1415 494 1415 494 1358 467 c 2,28,-1
 248 -39 l 2,29,30
 207 -59 207 -59 197 -59 c 0,31,32
 174 -59 174 -59 174 -39 c 0,0,1
EndSplineSet
EndChar

StartChar: question
Encoding: 63 63 34
Width: 966
GlyphClass: 2
Flags: W
LayerCount: 2
Fore
SplineSet
115 1171 m 0,0,1
 115 1277 115 1277 210 1360.5 c 128,-1,2
 305 1444 305 1444 463 1444 c 0,3,4
 670 1444 670 1444 760 1360 c 128,-1,5
 850 1276 850 1276 850 1167 c 0,6,7
 850 1040 850 1040 752 967 c 0,8,9
 482 766 482 766 481 510 c 2,10,-1
 481 438 l 2,11,12
 481 415 481 415 480 406 c 128,-1,13
 479 397 479 397 473 390 c 128,-1,14
 467 383 467 383 455 383 c 0,15,16
 439 383 439 383 434.5 392 c 128,-1,17
 430 401 430 401 430 432 c 2,18,-1
 430 524 l 2,19,20
 430 633 430 633 473 758 c 128,-1,21
 516 883 516 883 610 985 c 0,22,23
 633 1008 633 1008 645 1025 c 128,-1,24
 657 1042 657 1042 668.5 1082 c 128,-1,25
 680 1122 680 1122 680 1180 c 0,26,27
 680 1215 680 1215 679 1235 c 128,-1,28
 678 1255 678 1255 665.5 1290 c 128,-1,29
 653 1325 653 1325 631.5 1345.5 c 128,-1,30
 610 1366 610 1366 565 1382.5 c 128,-1,31
 520 1399 520 1399 457 1399 c 0,32,33
 271 1399 271 1399 188 1260 c 1,34,35
 303 1260 303 1260 303 1167 c 0,36,37
 303 1126 303 1126 277.5 1099.5 c 128,-1,38
 252 1073 252 1073 209 1073 c 0,39,40
 170 1073 170 1073 142.5 1097.5 c 128,-1,41
 115 1122 115 1122 115 1171 c 0,0,1
346 108.5 m 128,-1,43
 346 154 346 154 378 185.5 c 128,-1,44
 410 217 410 217 455 217 c 128,-1,45
 500 217 500 217 531.5 185.5 c 128,-1,46
 563 154 563 154 563 108.5 c 128,-1,47
 563 63 563 63 531.5 31.5 c 128,-1,48
 500 0 500 0 455 0 c 128,-1,49
 410 0 410 0 378 31.5 c 128,-1,42
 346 63 346 63 346 108.5 c 128,-1,43
EndSplineSet
EndChar

StartChar: at
Encoding: 64 64 35
Width: 1591
GlyphClass: 2
Flags: W
LayerCount: 2
Fore
SplineSet
115 711 m 0,0,1
 115 1016 115 1016 314.5 1230 c 128,-1,2
 514 1444 514 1444 797 1444 c 0,3,4
 922 1444 922 1444 1042.5 1392.5 c 128,-1,5
 1163 1341 1163 1341 1260.5 1249 c 128,-1,6
 1358 1157 1358 1157 1417.5 1011.5 c 128,-1,7
 1477 866 1477 866 1477 692 c 0,8,9
 1477 600 1477 600 1468.5 531.5 c 128,-1,10
 1460 463 1460 463 1439.5 397.5 c 128,-1,11
 1419 332 1419 332 1376 297 c 128,-1,12
 1333 262 1333 262 1268 262 c 0,13,14
 1200 262 1200 262 1138.5 298 c 128,-1,15
 1077 334 1077 334 1063 408 c 1,16,17
 959 263 959 263 793 262 c 0,18,19
 631 262 631 262 509 392 c 128,-1,20
 387 522 387 522 387 710.5 c 128,-1,21
 387 899 387 899 509 1029 c 128,-1,22
 631 1159 631 1159 793 1159 c 0,23,24
 959 1159 959 1159 1073 1001 c 0,25,26
 1087 985 1087 985 1120 985 c 2,27,-1
 1155 985 l 2,28,29
 1190 985 1190 985 1197 978 c 128,-1,30
 1204 971 1204 971 1204 936 c 2,31,-1
 1204 442 l 2,32,33
 1204 307 1204 307 1276 307 c 0,34,35
 1325 307 1325 307 1355.5 337 c 128,-1,36
 1386 367 1386 367 1400.5 425 c 128,-1,37
 1415 483 1415 483 1420 540.5 c 128,-1,38
 1425 598 1425 598 1425 680 c 0,39,40
 1425 856 1425 856 1367 998.5 c 128,-1,41
 1309 1141 1309 1141 1214.5 1226 c 128,-1,42
 1120 1311 1120 1311 1011.5 1355 c 128,-1,43
 903 1399 903 1399 795 1399 c 0,44,45
 539 1399 539 1399 352.5 1199 c 128,-1,46
 166 999 166 999 166 711 c 0,47,48
 166 430 166 430 348 226.5 c 128,-1,49
 530 23 530 23 805 23 c 0,50,51
 1084 23 1084 23 1362 154 c 0,52,53
 1372 160 1372 160 1409 160 c 2,54,-1
 1427 160 l 2,55,56
 1447 160 1447 160 1454.5 159 c 128,-1,57
 1462 158 1462 158 1468.5 154 c 128,-1,58
 1475 150 1475 150 1475 139 c 0,59,60
 1475 119 1475 119 1360 79 c 128,-1,61
 1245 39 1245 39 1176 23 c 0,62,63
 983 -22 983 -22 807 -23 c 0,64,65
 508 -23 508 -23 311.5 195.5 c 128,-1,66
 115 414 115 414 115 711 c 0,0,1
528 711 m 128,-1,68
 528 541 528 541 608 424 c 128,-1,69
 688 307 688 307 799 307 c 0,70,71
 936 307 936 307 1034 449 c 0,72,73
 1063 492 1063 492 1063 537 c 2,74,-1
 1063 885 l 2,75,76
 1063 928 1063 928 1036 967 c 0,77,78
 942 1114 942 1114 799 1114 c 0,79,80
 686 1114 686 1114 607 997.5 c 128,-1,67
 528 881 528 881 528 711 c 128,-1,68
EndSplineSet
EndChar

StartChar: A
Encoding: 65 65 36
Width: 1536
GlyphClass: 2
Flags: W
LayerCount: 2
Fore
SplineSet
66 0 m 1,0,-1
 66 63 l 1,1,2
 248 67 248 67 295 201 c 2,3,-1
 719 1425 l 2,4,5
 727 1450 727 1450 736 1458 c 128,-1,6
 745 1466 745 1466 768 1466 c 0,7,8
 780 1466 780 1466 787.5 1464 c 128,-1,9
 795 1462 795 1462 800 1455 c 128,-1,10
 805 1448 805 1448 807 1444 c 128,-1,11
 809 1440 809 1440 815 1425 c 2,12,-1
 1257 145 l 2,13,14
 1273 94 1273 94 1306 78.5 c 128,-1,15
 1339 63 1339 63 1432 63 c 2,16,-1
 1468 63 l 1,17,-1
 1468 0 l 1,18,19
 1339 6 1339 6 1200 6 c 0,20,21
 979 6 979 6 905 0 c 1,22,-1
 905 63 l 1,23,24
 1075 63 1075 63 1075 125 c 0,25,26
 1075 129 1075 129 1069 154 c 2,27,-1
 961 467 l 1,28,-1
 455 467 l 1,29,-1
 360 199 l 2,30,31
 356 191 356 191 356 168 c 0,32,33
 356 125 356 125 396 94 c 128,-1,34
 436 63 436 63 510 63 c 1,35,-1
 510 0 l 1,36,37
 313 6 313 6 274 6 c 0,38,39
 207 6 207 6 66 0 c 1,0,-1
477 530 m 1,40,-1
 938 530 l 1,41,-1
 707 1196 l 1,42,-1
 477 530 l 1,40,-1
EndSplineSet
EndChar

StartChar: B
Encoding: 66 66 37
Width: 1449
GlyphClass: 2
Flags: W
LayerCount: 2
Fore
SplineSet
74 0 m 1,0,-1
 74 63 l 1,1,-1
 123 63 l 2,2,3
 234 63 234 63 259.5 81.5 c 128,-1,4
 285 100 285 100 285 160 c 2,5,-1
 285 1239 l 2,6,7
 285 1298 285 1298 259 1316.5 c 128,-1,8
 233 1335 233 1335 123 1335 c 2,9,-1
 74 1335 l 1,10,-1
 74 1399 l 1,11,-1
 823 1399 l 2,12,13
 1018 1399 1018 1399 1148 1294.5 c 128,-1,14
 1278 1190 1278 1190 1278 1053 c 0,15,16
 1278 940 1278 940 1182.5 850 c 128,-1,17
 1087 760 1087 760 938 731 c 1,18,19
 1108 713 1108 713 1220.5 610.5 c 128,-1,20
 1333 508 1333 508 1333 375 c 0,21,22
 1333 225 1333 225 1204 112.5 c 128,-1,23
 1075 0 1075 0 877 0 c 2,24,-1
 74 0 l 1,0,-1
455 145 m 2,25,26
 455 92 455 92 470 77.5 c 128,-1,27
 485 63 485 63 555 63 c 2,28,-1
 811 63 l 2,29,30
 958 63 958 63 1043 159.5 c 128,-1,31
 1128 256 1128 256 1128 377 c 128,-1,32
 1128 498 1128 498 1053.5 601.5 c 128,-1,33
 979 705 979 705 840 705 c 2,34,-1
 455 705 l 1,35,-1
 455 145 l 2,25,26
455 750 m 1,36,-1
 752 750 l 2,37,38
 910 750 910 750 994.5 845 c 128,-1,39
 1079 940 1079 940 1079 1053 c 0,40,41
 1079 1153 1079 1153 1011.5 1244 c 128,-1,42
 944 1335 944 1335 809 1335 c 2,43,-1
 555 1335 l 2,44,45
 485 1335 485 1335 470 1321 c 128,-1,46
 455 1307 455 1307 455 1253 c 2,47,-1
 455 750 l 1,36,-1
EndSplineSet
EndChar

StartChar: C
Encoding: 67 67 38
Width: 1478
GlyphClass: 2
Flags: W
LayerCount: 2
Fore
SplineSet
115 700 m 0,0,1
 115 1009 115 1009 326 1226.5 c 128,-1,2
 537 1444 537 1444 827 1444 c 0,3,4
 917 1444 917 1444 997 1411 c 128,-1,5
 1077 1378 1077 1378 1114 1349.5 c 128,-1,6
 1151 1321 1151 1321 1204 1268 c 1,7,-1
 1307 1419 l 2,8,9
 1323 1444 1323 1444 1339.5 1444 c 128,-1,10
 1356 1444 1356 1444 1359 1434.5 c 128,-1,11
 1362 1425 1362 1425 1362 1395 c 2,12,-1
 1362 909 l 2,13,14
 1362 876 1362 876 1358 868 c 128,-1,15
 1354 860 1354 860 1329 860 c 0,16,17
 1309 860 1309 860 1304.5 866 c 128,-1,18
 1300 872 1300 872 1296 895 c 0,19,20
 1265 1116 1265 1116 1142.5 1248 c 128,-1,21
 1020 1380 1020 1380 850 1380 c 0,22,23
 801 1380 801 1380 746.5 1369 c 128,-1,24
 692 1358 692 1358 613.5 1316 c 128,-1,25
 535 1274 535 1274 474.5 1204.5 c 128,-1,26
 414 1135 414 1135 370 1003.5 c 128,-1,27
 326 872 326 872 326 698 c 0,28,29
 326 526 326 526 370 394 c 128,-1,30
 414 262 414 262 474.5 193.5 c 128,-1,31
 535 125 535 125 613.5 83 c 128,-1,32
 692 41 692 41 747.5 29.5 c 128,-1,33
 803 18 803 18 852 18 c 0,34,35
 1028 18 1028 18 1163 143 c 128,-1,36
 1298 268 1298 268 1311 479 c 0,37,38
 1313 489 1313 489 1313 493.5 c 128,-1,39
 1313 498 1313 498 1315 503 c 128,-1,40
 1317 508 1317 508 1322 510 c 128,-1,41
 1327 512 1327 512 1335 512 c 0,42,43
 1362 512 1362 512 1362 477 c 0,44,45
 1362 282 1362 282 1212.5 118.5 c 128,-1,46
 1063 -45 1063 -45 827 -45 c 0,47,48
 536 -45 536 -45 325.5 171 c 128,-1,49
 115 387 115 387 115 700 c 0,0,1
EndSplineSet
EndChar

StartChar: D
Encoding: 68 68 39
Width: 1562
GlyphClass: 2
Flags: W
LayerCount: 2
Fore
SplineSet
72 0 m 1,0,-1
 72 63 l 1,1,-1
 121 63 l 2,2,3
 232 63 232 63 257.5 81.5 c 128,-1,4
 283 100 283 100 283 160 c 2,5,-1
 283 1239 l 2,6,7
 283 1298 283 1298 257 1316.5 c 128,-1,8
 231 1335 231 1335 121 1335 c 2,9,-1
 72 1335 l 1,10,-1
 72 1399 l 1,11,-1
 821 1399 l 2,12,13
 1083 1399 1083 1399 1265.5 1190 c 128,-1,14
 1448 981 1448 981 1448 688 c 0,15,16
 1448 401 1448 401 1264.5 200.5 c 128,-1,17
 1081 0 1081 0 821 0 c 2,18,-1
 72 0 l 1,0,-1
459 145 m 2,19,20
 459 92 459 92 474 77.5 c 128,-1,21
 489 63 489 63 559 63 c 2,22,-1
 766 63 l 2,23,24
 901 63 901 63 992 118.5 c 128,-1,25
 1083 174 1083 174 1130 238 c 0,26,27
 1243 392 1243 392 1243 688 c 0,28,29
 1243 999 1243 999 1137 1145 c 0,30,31
 1000 1335 1000 1335 764 1335 c 2,32,-1
 559 1335 l 2,33,34
 489 1335 489 1335 474 1321 c 128,-1,35
 459 1307 459 1307 459 1253 c 2,36,-1
 459 145 l 2,19,20
EndSplineSet
EndChar

StartChar: E
Encoding: 69 69 40
Width: 1392
GlyphClass: 2
Flags: W
LayerCount: 2
Fore
SplineSet
68 0 m 1,0,-1
 68 63 l 1,1,-1
 117 63 l 2,2,3
 228 63 228 63 253.5 81.5 c 128,-1,4
 279 100 279 100 279 160 c 2,5,-1
 279 1233 l 2,6,7
 279 1292 279 1292 253 1310.5 c 128,-1,8
 227 1329 227 1329 117 1329 c 2,9,-1
 68 1329 l 1,10,-1
 68 1393 l 1,11,-1
 1221 1393 l 1,12,-1
 1278 932 l 1,13,-1
 1227 932 l 1,14,15
 1213 1049 1213 1049 1194.5 1116.5 c 128,-1,16
 1176 1184 1176 1184 1131.5 1236 c 128,-1,17
 1087 1288 1087 1288 1014.5 1308.5 c 128,-1,18
 942 1329 942 1329 825 1329 c 2,19,-1
 561 1329 l 2,20,21
 491 1329 491 1329 476 1314.5 c 128,-1,22
 461 1300 461 1300 461 1247 c 2,23,-1
 461 756 l 1,24,-1
 645 756 l 2,25,26
 786 756 786 756 826 805 c 128,-1,27
 866 854 866 854 866 995 c 1,28,-1
 918 995 l 1,29,-1
 918 453 l 1,30,-1
 866 453 l 1,31,32
 866 592 866 592 826 642 c 128,-1,33
 786 692 786 692 645 692 c 2,34,-1
 461 692 l 1,35,-1
 461 145 l 2,36,37
 461 92 461 92 476.5 77.5 c 128,-1,38
 492 63 492 63 561 63 c 2,39,-1
 834 63 l 2,40,41
 922 63 922 63 986.5 74.5 c 128,-1,42
 1051 86 1051 86 1096 114.5 c 128,-1,43
 1141 143 1141 143 1171.5 176 c 128,-1,44
 1202 209 1202 209 1223.5 268.5 c 128,-1,45
 1245 328 1245 328 1257.5 383 c 128,-1,46
 1270 438 1270 438 1284 528 c 1,47,-1
 1335 528 l 1,48,-1
 1249 0 l 1,49,-1
 68 0 l 1,0,-1
EndSplineSet
EndChar

StartChar: F
Encoding: 70 70 41
Width: 1335
GlyphClass: 2
Flags: W
LayerCount: 2
Fore
SplineSet
68 0 m 1,0,-1
 68 63 l 1,1,-1
 117 63 l 2,2,3
 228 63 228 63 253.5 81.5 c 128,-1,4
 279 100 279 100 279 160 c 2,5,-1
 279 1233 l 2,6,7
 279 1292 279 1292 253 1310.5 c 128,-1,8
 227 1329 227 1329 117 1329 c 2,9,-1
 68 1329 l 1,10,-1
 68 1393 l 1,11,-1
 1192 1393 l 1,12,-1
 1249 932 l 1,13,-1
 1198 932 l 1,14,15
 1184 1049 1184 1049 1165.5 1115.5 c 128,-1,16
 1147 1182 1147 1182 1105 1235 c 128,-1,17
 1063 1288 1063 1288 992.5 1308.5 c 128,-1,18
 922 1329 922 1329 807 1329 c 2,19,-1
 561 1329 l 2,20,21
 491 1329 491 1329 476 1314.5 c 128,-1,22
 461 1300 461 1300 461 1247 c 2,23,-1
 461 729 l 1,24,-1
 637 729 l 2,25,26
 776 729 776 729 815 779 c 128,-1,27
 854 829 854 829 854 969 c 1,28,-1
 905 969 l 1,29,-1
 905 426 l 1,30,-1
 854 426 l 1,31,32
 854 567 854 567 815 616.5 c 128,-1,33
 776 666 776 666 637 666 c 2,34,-1
 461 666 l 1,35,-1
 461 162 l 2,36,37
 461 119 461 119 468 102.5 c 128,-1,38
 475 86 475 86 518 74.5 c 128,-1,39
 561 63 561 63 655 63 c 2,40,-1
 723 63 l 1,41,-1
 723 0 l 1,42,43
 649 6 649 6 379 6 c 0,44,45
 140 6 140 6 68 0 c 1,0,-1
EndSplineSet
EndChar

StartChar: G
Encoding: 71 71 42
Width: 1605
GlyphClass: 2
Flags: W
LayerCount: 2
Fore
SplineSet
115 700.5 m 128,-1,1
 115 1012 115 1012 327 1228 c 128,-1,2
 539 1444 539 1444 827 1444 c 0,3,4
 899 1444 899 1444 960.5 1427.5 c 128,-1,5
 1022 1411 1022 1411 1071 1378.5 c 128,-1,6
 1120 1346 1120 1346 1145.5 1324.5 c 128,-1,7
 1171 1303 1171 1303 1206 1268 c 1,8,-1
 1309 1419 l 2,9,10
 1325 1444 1325 1444 1341.5 1444 c 128,-1,11
 1358 1444 1358 1444 1361 1434.5 c 128,-1,12
 1364 1425 1364 1425 1364 1395 c 2,13,-1
 1364 909 l 2,14,15
 1364 876 1364 876 1360 868 c 128,-1,16
 1356 860 1356 860 1331 860 c 0,17,18
 1311 860 1311 860 1307 866 c 128,-1,19
 1303 872 1303 872 1298 895 c 0,20,21
 1267 1116 1267 1116 1143.5 1248 c 128,-1,22
 1020 1380 1020 1380 852 1380 c 0,23,24
 803 1380 803 1380 748.5 1369 c 128,-1,25
 694 1358 694 1358 614.5 1316 c 128,-1,26
 535 1274 535 1274 474.5 1205.5 c 128,-1,27
 414 1137 414 1137 370 1005.5 c 128,-1,28
 326 874 326 874 326 700 c 0,29,30
 326 528 326 528 370 396 c 128,-1,31
 414 264 414 264 475.5 195.5 c 128,-1,32
 537 127 537 127 617.5 84 c 128,-1,33
 698 41 698 41 755.5 29.5 c 128,-1,34
 813 18 813 18 864 18 c 0,35,36
 899 18 899 18 940 25.5 c 128,-1,37
 981 33 981 33 1042.5 55.5 c 128,-1,38
 1104 78 1104 78 1143 132 c 128,-1,39
 1182 186 1182 186 1182 266 c 2,40,-1
 1182 397 l 2,41,42
 1182 458 1182 458 1152 477 c 128,-1,43
 1122 496 1122 496 991 496 c 2,44,-1
 926 496 l 1,45,-1
 926 559 l 1,46,47
 1000 553 1000 553 1255 553 c 0,48,49
 1278 553 1278 553 1505 559 c 1,50,-1
 1505 496 l 1,51,52
 1407 496 1407 496 1385.5 481.5 c 128,-1,53
 1364 467 1364 467 1364 406 c 2,54,-1
 1364 49 l 2,55,56
 1364 2 1364 2 1346 2 c 0,57,58
 1330 2 1330 2 1282.5 48 c 128,-1,59
 1235 94 1235 94 1214 129 c 1,60,61
 1165 43 1165 43 1058.5 -1 c 128,-1,62
 952 -45 952 -45 831 -45 c 0,63,64
 536 -45 536 -45 325.5 172 c 128,-1,0
 115 389 115 389 115 700.5 c 128,-1,1
EndSplineSet
EndChar

StartChar: H
Encoding: 72 72 43
Width: 1536
GlyphClass: 2
Flags: W
LayerCount: 2
Fore
SplineSet
68 0 m 1,0,-1
 68 63 l 1,1,-1
 117 63 l 2,2,3
 228 63 228 63 253.5 81.5 c 128,-1,4
 279 100 279 100 279 160 c 2,5,-1
 279 1239 l 2,6,7
 279 1298 279 1298 253 1316.5 c 128,-1,8
 227 1335 227 1335 117 1335 c 2,9,-1
 68 1335 l 1,10,-1
 68 1399 l 1,11,12
 140 1393 140 1393 371 1393 c 0,13,14
 600 1393 600 1393 672 1399 c 1,15,-1
 672 1335 l 1,16,-1
 623 1335 l 2,17,18
 512 1335 512 1335 486.5 1316.5 c 128,-1,19
 461 1298 461 1298 461 1239 c 2,20,-1
 461 760 l 1,21,-1
 1073 760 l 1,22,-1
 1073 1239 l 2,23,24
 1073 1298 1073 1298 1047.5 1316.5 c 128,-1,25
 1022 1335 1022 1335 911 1335 c 2,26,-1
 862 1335 l 1,27,-1
 862 1399 l 1,28,29
 934 1393 934 1393 1165 1393 c 0,30,31
 1394 1393 1394 1393 1466 1399 c 1,32,-1
 1466 1335 l 1,33,-1
 1417 1335 l 2,34,35
 1306 1335 1306 1335 1280.5 1316.5 c 128,-1,36
 1255 1298 1255 1298 1255 1239 c 2,37,-1
 1255 160 l 2,38,39
 1255 101 1255 101 1281 82 c 128,-1,40
 1307 63 1307 63 1417 63 c 2,41,-1
 1466 63 l 1,42,-1
 1466 0 l 1,43,44
 1394 6 1394 6 1163 6 c 0,45,46
 934 6 934 6 862 0 c 1,47,-1
 862 63 l 1,48,-1
 911 63 l 2,49,50
 1022 63 1022 63 1047.5 81.5 c 128,-1,51
 1073 100 1073 100 1073 160 c 2,52,-1
 1073 696 l 1,53,-1
 461 696 l 1,54,-1
 461 160 l 2,55,56
 461 101 461 101 486.5 82 c 128,-1,57
 512 63 512 63 623 63 c 2,58,-1
 672 63 l 1,59,-1
 672 0 l 1,60,61
 600 6 600 6 369 6 c 0,62,63
 140 6 140 6 68 0 c 1,0,-1
EndSplineSet
EndChar

StartChar: I
Encoding: 73 73 44
Width: 739
GlyphClass: 2
Flags: W
LayerCount: 2
Fore
SplineSet
57 0 m 1,0,-1
 57 63 l 1,1,-1
 111 63 l 2,2,3
 226 63 226 63 252.5 81.5 c 128,-1,4
 279 100 279 100 279 160 c 2,5,-1
 279 1239 l 2,6,7
 279 1298 279 1298 252 1316.5 c 128,-1,8
 225 1335 225 1335 111 1335 c 2,9,-1
 57 1335 l 1,10,-1
 57 1399 l 1,11,12
 129 1393 129 1393 371 1393 c 0,13,14
 611 1393 611 1393 682 1399 c 1,15,-1
 682 1335 l 1,16,-1
 629 1335 l 2,17,18
 514 1335 514 1335 487.5 1316.5 c 128,-1,19
 461 1298 461 1298 461 1239 c 2,20,-1
 461 160 l 2,21,22
 461 101 461 101 487.5 82 c 128,-1,23
 514 63 514 63 629 63 c 2,24,-1
 682 63 l 1,25,-1
 682 0 l 1,26,27
 610 6 610 6 369 6 c 0,28,29
 129 6 129 6 57 0 c 1,0,-1
EndSplineSet
EndChar

StartChar: J
Encoding: 74 74 45
Width: 1050
GlyphClass: 2
Flags: W
LayerCount: 2
Fore
SplineSet
84 229 m 0,0,1
 84 290 84 290 120 319 c 128,-1,2
 156 348 156 348 199 348 c 0,3,4
 244 348 244 348 278.5 317.5 c 128,-1,5
 313 287 313 287 313 233 c 0,6,7
 313 119 313 119 184 119 c 0,8,9
 183 119 183 119 182 119 c 1,10,11
 256 0 256 0 408 0 c 0,12,13
 494 0 494 0 556 84 c 128,-1,14
 618 168 618 168 618 303 c 2,15,-1
 618 1237 l 2,16,17
 618 1280 618 1280 610 1296.5 c 128,-1,18
 602 1313 602 1313 559 1324 c 128,-1,19
 516 1335 516 1335 418 1335 c 2,20,-1
 344 1335 l 1,21,-1
 344 1399 l 1,22,23
 422 1393 422 1393 688 1393 c 0,24,25
 817 1393 817 1393 952 1399 c 1,26,-1
 952 1335 l 1,27,28
 848 1335 848 1335 821.5 1323 c 128,-1,29
 795 1311 795 1311 795 1251 c 2,30,-1
 795 342 l 2,31,32
 795 268 795 268 793 252 c 0,33,34
 775 131 775 131 669 43 c 128,-1,35
 563 -45 563 -45 412 -45 c 0,36,37
 275 -45 275 -45 179.5 34.5 c 128,-1,38
 84 114 84 114 84 229 c 0,0,1
EndSplineSet
EndChar

StartChar: K
Encoding: 75 75 46
Width: 1591
GlyphClass: 2
Flags: W
LayerCount: 2
Fore
SplineSet
68 0 m 1,0,-1
 68 63 l 1,1,-1
 117 63 l 2,2,3
 228 63 228 63 253.5 81.5 c 128,-1,4
 279 100 279 100 279 160 c 2,5,-1
 279 1239 l 2,6,7
 279 1298 279 1298 253 1316.5 c 128,-1,8
 227 1335 227 1335 117 1335 c 2,9,-1
 68 1335 l 1,10,-1
 68 1399 l 1,11,12
 140 1393 140 1393 371 1393 c 0,13,14
 600 1393 600 1393 672 1399 c 1,15,-1
 672 1335 l 1,16,-1
 623 1335 l 2,17,18
 512 1335 512 1335 486.5 1316.5 c 128,-1,19
 461 1298 461 1298 461 1239 c 2,20,-1
 461 588 l 1,21,-1
 1102 1200 l 2,22,23
 1139 1233 1139 1233 1139 1268 c 0,24,25
 1139 1280 1139 1280 1133.5 1293.5 c 128,-1,26
 1128 1307 1128 1307 1104.5 1321 c 128,-1,27
 1081 1335 1081 1335 1044 1335 c 1,28,-1
 1044 1399 l 1,29,30
 1114 1393 1114 1393 1305 1393 c 0,31,32
 1426 1393 1426 1393 1479 1399 c 1,33,-1
 1479 1335 l 1,34,35
 1309 1333 1309 1333 1188 1212 c 2,36,-1
 819 858 l 1,37,-1
 1292 162 l 2,38,39
 1335 99 1335 99 1377 81 c 128,-1,40
 1419 63 1419 63 1507 63 c 1,41,-1
 1507 0 l 1,42,43
 1378 6 1378 6 1272 6 c 0,44,45
 1051 6 1051 6 979 0 c 1,46,-1
 979 63 l 1,47,48
 1100 63 1100 63 1100 125 c 0,49,50
 1100 148 1100 148 1069 195 c 2,51,-1
 698 743 l 1,52,-1
 461 518 l 1,53,-1
 461 160 l 2,54,55
 461 101 461 101 486.5 82 c 128,-1,56
 512 63 512 63 623 63 c 2,57,-1
 672 63 l 1,58,-1
 672 0 l 1,59,60
 600 6 600 6 369 6 c 0,61,62
 140 6 140 6 68 0 c 1,0,-1
EndSplineSet
EndChar

StartChar: L
Encoding: 76 76 47
Width: 1280
GlyphClass: 2
Flags: W
LayerCount: 2
Fore
SplineSet
68 0 m 1,0,-1
 68 63 l 1,1,-1
 117 63 l 2,2,3
 228 63 228 63 253.5 81.5 c 128,-1,4
 279 100 279 100 279 160 c 2,5,-1
 279 1239 l 2,6,7
 279 1298 279 1298 253 1316.5 c 128,-1,8
 227 1335 227 1335 117 1335 c 2,9,-1
 68 1335 l 1,10,-1
 68 1399 l 1,11,12
 140 1393 140 1393 379 1393 c 0,13,14
 649 1393 649 1393 723 1399 c 1,15,-1
 723 1335 l 1,16,-1
 655 1335 l 2,17,18
 561 1335 561 1335 518 1323 c 128,-1,19
 475 1311 475 1311 468 1294.5 c 128,-1,20
 461 1278 461 1278 461 1237 c 2,21,-1
 461 145 l 2,22,23
 461 92 461 92 476.5 77.5 c 128,-1,24
 492 63 492 63 561 63 c 2,25,-1
 729 63 l 2,26,27
 833 63 833 63 908 94 c 128,-1,28
 983 125 983 125 1023 164 c 128,-1,29
 1063 203 1063 203 1089.5 276.5 c 128,-1,30
 1116 350 1116 350 1124.5 397 c 128,-1,31
 1133 444 1133 444 1141 528 c 1,32,-1
 1192 528 l 1,33,-1
 1135 0 l 1,34,-1
 68 0 l 1,0,-1
EndSplineSet
EndChar

StartChar: M
Encoding: 77 77 48
Width: 1875
GlyphClass: 2
Flags: W
LayerCount: 2
Fore
SplineSet
76 0 m 1,0,-1
 76 63 l 1,1,2
 150 63 150 63 197 77.5 c 128,-1,3
 244 92 244 92 261.5 119.5 c 128,-1,4
 279 147 279 147 283 165.5 c 128,-1,5
 287 184 287 184 287 215 c 2,6,-1
 287 1239 l 2,7,8
 287 1298 287 1298 261.5 1316.5 c 128,-1,9
 236 1335 236 1335 125 1335 c 2,10,-1
 76 1335 l 1,11,-1
 76 1399 l 1,12,-1
 422 1399 l 2,13,14
 459 1399 459 1399 469 1392.5 c 128,-1,15
 479 1386 479 1386 494 1354 c 2,16,-1
 938 207 l 1,17,-1
 1386 1360 l 2,18,19
 1396 1389 1396 1389 1405.5 1394 c 128,-1,20
 1415 1399 1415 1399 1454 1399 c 2,21,-1
 1800 1399 l 1,22,-1
 1800 1335 l 1,23,-1
 1751 1335 l 2,24,25
 1640 1335 1640 1335 1614.5 1316.5 c 128,-1,26
 1589 1298 1589 1298 1589 1239 c 2,27,-1
 1589 160 l 2,28,29
 1589 101 1589 101 1614.5 82 c 128,-1,30
 1640 63 1640 63 1751 63 c 2,31,-1
 1800 63 l 1,32,-1
 1800 0 l 1,33,34
 1724 6 1724 6 1507 6 c 0,35,36
 1288 6 1288 6 1212 0 c 1,37,-1
 1212 63 l 1,38,-1
 1262 63 l 2,39,40
 1373 63 1373 63 1398 81.5 c 128,-1,41
 1423 100 1423 100 1423 160 c 2,42,-1
 1423 1335 l 1,43,-1
 1421 1335 l 1,44,-1
 918 39 l 2,45,46
 904 0 904 0 881 0 c 0,47,48
 856 0 856 0 840 45 c 2,49,-1
 346 1319 l 1,50,-1
 344 1319 l 1,51,-1
 344 215 l 2,52,53
 344 184 344 184 348 165.5 c 128,-1,54
 352 147 352 147 369.5 119.5 c 128,-1,55
 387 92 387 92 434 77.5 c 128,-1,56
 481 63 481 63 555 63 c 1,57,-1
 555 0 l 1,58,59
 340 6 340 6 315.5 6 c 128,-1,60
 291 6 291 6 76 0 c 1,0,-1
EndSplineSet
EndChar

StartChar: N
Encoding: 78 78 49
Width: 1536
GlyphClass: 2
Flags: W
LayerCount: 2
Fore
SplineSet
68 0 m 1,0,-1
 68 63 l 1,1,2
 142 63 142 63 189 77.5 c 128,-1,3
 236 92 236 92 253 119.5 c 128,-1,4
 270 147 270 147 274.5 165.5 c 128,-1,5
 279 184 279 184 279 215 c 2,6,-1
 279 1284 l 2,7,8
 279 1313 279 1313 271.5 1320 c 128,-1,9
 264 1327 264 1327 229 1331 c 0,10,11
 168 1335 168 1335 127 1335 c 2,12,-1
 68 1335 l 1,13,-1
 68 1399 l 1,14,-1
 416 1399 l 2,15,16
 445 1399 445 1399 453 1395 c 128,-1,17
 461 1391 461 1391 475 1372 c 2,18,-1
 1198 309 l 1,19,-1
 1198 1184 l 2,20,21
 1198 1215 1198 1215 1194 1233 c 128,-1,22
 1190 1251 1190 1251 1172.5 1279 c 128,-1,23
 1155 1307 1155 1307 1108 1321 c 128,-1,24
 1061 1335 1061 1335 987 1335 c 1,25,-1
 987 1399 l 1,26,27
 1202 1393 1202 1393 1226.5 1393 c 128,-1,28
 1251 1393 1251 1393 1466 1399 c 1,29,-1
 1466 1335 l 1,30,31
 1392 1335 1392 1335 1345 1321 c 128,-1,32
 1298 1307 1298 1307 1281 1279 c 128,-1,33
 1264 1251 1264 1251 1259.5 1232.5 c 128,-1,34
 1255 1214 1255 1214 1255 1184 c 2,35,-1
 1255 53 l 2,36,37
 1255 20 1255 20 1251 10 c 128,-1,38
 1247 0 1247 0 1227 0 c 0,39,40
 1213 0 1213 0 1192 27 c 2,41,-1
 356 1255 l 2,42,43
 348 1267 348 1267 336 1280 c 1,44,-1
 336 215 l 2,45,46
 336 184 336 184 340 165.5 c 128,-1,47
 344 147 344 147 361.5 119.5 c 128,-1,48
 379 92 379 92 426 77.5 c 128,-1,49
 473 63 473 63 547 63 c 1,50,-1
 547 0 l 1,51,52
 332 6 332 6 307.5 6 c 128,-1,53
 283 6 283 6 68 0 c 1,0,-1
EndSplineSet
EndChar

StartChar: O
Encoding: 79 79 50
Width: 1591
GlyphClass: 2
Flags: W
LayerCount: 2
Fore
SplineSet
115 694 m 0,0,1
 115 1007 115 1007 315.5 1225.5 c 128,-1,2
 516 1444 516 1444 795 1444 c 0,3,4
 1076 1444 1076 1444 1276.5 1225 c 128,-1,5
 1477 1006 1477 1006 1477 694 c 0,6,7
 1477 385 1477 385 1276 170 c 128,-1,8
 1075 -45 1075 -45 795 -45 c 0,9,10
 519 -45 519 -45 317 169 c 128,-1,11
 115 383 115 383 115 694 c 0,0,1
326 723 m 0,12,13
 326 533 326 533 371 387.5 c 128,-1,14
 416 242 416 242 488.5 163 c 128,-1,15
 561 84 561 84 639 46 c 128,-1,16
 717 8 717 8 797 8 c 0,17,18
 875 8 875 8 951.5 45 c 128,-1,19
 1028 82 1028 82 1101 160 c 128,-1,20
 1174 238 1174 238 1220 384 c 128,-1,21
 1266 530 1266 530 1266 723 c 0,22,23
 1266 873 1266 873 1234 993.5 c 128,-1,24
 1202 1114 1202 1114 1152 1187 c 128,-1,25
 1102 1260 1102 1260 1037.5 1308 c 128,-1,26
 973 1356 973 1356 912.5 1374.5 c 128,-1,27
 852 1393 852 1393 795 1393 c 0,28,29
 723 1393 723 1393 648 1361 c 128,-1,30
 573 1329 573 1329 497.5 1258.5 c 128,-1,31
 422 1188 422 1188 374 1049.5 c 128,-1,32
 326 911 326 911 326 723 c 0,12,13
EndSplineSet
EndChar

StartChar: P
Encoding: 80 80 51
Width: 1392
GlyphClass: 2
Flags: W
LayerCount: 2
Fore
SplineSet
72 0 m 1,0,-1
 72 63 l 1,1,-1
 121 63 l 2,2,3
 232 63 232 63 257.5 81.5 c 128,-1,4
 283 100 283 100 283 160 c 2,5,-1
 283 1239 l 2,6,7
 283 1298 283 1298 257 1316.5 c 128,-1,8
 231 1335 231 1335 121 1335 c 2,9,-1
 72 1335 l 1,10,-1
 72 1399 l 1,11,-1
 795 1399 l 2,12,13
 1002 1399 1002 1399 1140 1285 c 128,-1,14
 1278 1171 1278 1171 1278 1018 c 0,15,16
 1278 866 1278 866 1137.5 756.5 c 128,-1,17
 997 647 997 647 811 647 c 2,18,-1
 465 647 l 1,19,-1
 465 160 l 2,20,21
 465 101 465 101 490.5 82 c 128,-1,22
 516 63 516 63 627 63 c 2,23,-1
 676 63 l 1,24,-1
 676 0 l 1,25,26
 604 6 604 6 373 6 c 0,27,28
 144 6 144 6 72 0 c 1,0,-1
459 700 m 1,29,-1
 741 700 l 2,30,31
 833 700 833 700 900 726 c 128,-1,32
 967 752 967 752 997.5 783.5 c 128,-1,33
 1028 815 1028 815 1045.5 866.5 c 128,-1,34
 1063 918 1063 918 1065 946.5 c 128,-1,35
 1067 975 1067 975 1067 1018 c 0,36,37
 1067 1063 1067 1063 1065 1091.5 c 128,-1,38
 1063 1120 1063 1120 1045.5 1171.5 c 128,-1,39
 1028 1223 1028 1223 997.5 1254.5 c 128,-1,40
 967 1286 967 1286 900.5 1310.5 c 128,-1,41
 834 1335 834 1335 741 1335 c 2,42,-1
 559 1335 l 2,43,44
 489 1335 489 1335 474 1321 c 128,-1,45
 459 1307 459 1307 459 1253 c 2,46,-1
 459 700 l 1,29,-1
EndSplineSet
EndChar

StartChar: Q
Encoding: 81 81 52
Width: 1591
GlyphClass: 2
Flags: W
LayerCount: 2
Fore
SplineSet
115 694 m 0,0,1
 115 1007 115 1007 315.5 1225.5 c 128,-1,2
 516 1444 516 1444 795 1444 c 0,3,4
 1076 1444 1076 1444 1276.5 1225 c 128,-1,5
 1477 1006 1477 1006 1477 694 c 0,6,7
 1477 467 1477 467 1361 282.5 c 128,-1,8
 1245 98 1245 98 1061 14 c 1,9,10
 1100 -90 1100 -90 1144 -138 c 128,-1,11
 1188 -186 1188 -186 1257.5 -186 c 128,-1,12
 1327 -186 1327 -186 1381.5 -140 c 128,-1,13
 1436 -94 1436 -94 1444 -14 c 0,14,15
 1448 23 1448 23 1466 23 c 0,16,17
 1489 23 1489 23 1489 -20 c 0,18,19
 1489 -69 1489 -69 1478.5 -124.5 c 128,-1,20
 1468 -180 1468 -180 1443.5 -245.5 c 128,-1,21
 1419 -311 1419 -311 1367 -354 c 128,-1,22
 1315 -397 1315 -397 1241 -397 c 0,23,24
 1186 -397 1186 -397 1145 -373.5 c 128,-1,25
 1104 -350 1104 -350 1080.5 -321.5 c 128,-1,26
 1057 -293 1057 -293 1037.5 -231.5 c 128,-1,27
 1018 -170 1018 -170 1011 -131 c 128,-1,28
 1004 -92 1004 -92 991 -14 c 1,29,30
 893 -45 893 -45 797 -45 c 0,31,32
 516 -45 516 -45 315.5 170 c 128,-1,33
 115 385 115 385 115 694 c 0,0,1
319 694 m 0,34,35
 319 528 319 528 355 400 c 128,-1,36
 391 272 391 272 449.5 199.5 c 128,-1,37
 508 127 508 127 558 89 c 128,-1,38
 608 51 608 51 659 33 c 1,39,40
 630 90 630 90 631 131 c 0,41,42
 631 199 631 199 678 251 c 128,-1,43
 725 303 725 303 799 303 c 0,44,45
 944 303 944 303 1030 86 c 1,46,47
 1272 264 1272 264 1272 694 c 0,48,49
 1272 880 1272 880 1226 1021.5 c 128,-1,50
 1180 1163 1180 1163 1106 1241 c 128,-1,51
 1032 1319 1032 1319 953 1356 c 128,-1,52
 874 1393 874 1393 795 1393 c 0,53,54
 717 1393 717 1393 639 1357 c 128,-1,55
 561 1321 561 1321 487.5 1245 c 128,-1,56
 414 1169 414 1169 366.5 1025.5 c 128,-1,57
 319 882 319 882 319 694 c 0,34,35
676 131 m 0,58,59
 676 108 676 108 683 83.5 c 128,-1,60
 690 59 690 59 720 32.5 c 128,-1,61
 750 6 750 6 797 6 c 0,62,63
 893 6 893 6 977 53 c 1,64,65
 938 258 938 258 799 258 c 0,66,67
 744 258 744 258 710 219 c 128,-1,68
 676 180 676 180 676 131 c 0,58,59
EndSplineSet
EndChar

StartChar: R
Encoding: 82 82 53
Width: 1507
GlyphClass: 2
Flags: W
LayerCount: 2
Fore
SplineSet
72 0 m 1,0,-1
 72 63 l 1,1,-1
 121 63 l 2,2,3
 232 63 232 63 257.5 81.5 c 128,-1,4
 283 100 283 100 283 160 c 2,5,-1
 283 1239 l 2,6,7
 283 1298 283 1298 257 1316.5 c 128,-1,8
 231 1335 231 1335 121 1335 c 2,9,-1
 72 1335 l 1,10,-1
 72 1399 l 1,11,-1
 715 1399 l 2,12,13
 938 1399 938 1399 1093.5 1289.5 c 128,-1,14
 1249 1180 1249 1180 1249 1030 c 0,15,16
 1249 915 1249 915 1148 825 c 128,-1,17
 1047 735 1047 735 891 696 c 1,18,19
 1094 626 1094 626 1141 459 c 1,20,-1
 1167 295 l 2,21,22
 1175 236 1175 236 1180.5 206 c 128,-1,23
 1186 176 1186 176 1195 135 c 128,-1,24
 1204 94 1204 94 1213.5 74.5 c 128,-1,25
 1223 55 1223 55 1237 34.5 c 128,-1,26
 1251 14 1251 14 1269.5 7 c 128,-1,27
 1288 0 1288 0 1313 0 c 0,28,29
 1360 0 1360 0 1400 42 c 128,-1,30
 1440 84 1440 84 1448 182 c 0,31,32
 1452 215 1452 215 1473 215 c 0,33,34
 1499 215 1499 215 1499 182 c 0,35,36
 1499 153 1499 153 1491 119.5 c 128,-1,37
 1483 86 1483 86 1463.5 47 c 128,-1,38
 1444 8 1444 8 1402 -18.5 c 128,-1,39
 1360 -45 1360 -45 1305 -45 c 0,40,41
 1145 -45 1145 -45 1047 41 c 0,42,43
 1006 78 1006 78 987.5 126 c 128,-1,44
 969 174 969 174 966 212 c 128,-1,45
 963 250 963 250 963 334 c 0,46,47
 963 453 963 453 950.5 505 c 128,-1,48
 938 557 938 557 885 608 c 0,49,50
 813 678 813 678 694 678 c 2,51,-1
 459 678 l 1,52,-1
 459 160 l 2,53,54
 459 101 459 101 484.5 82 c 128,-1,55
 510 63 510 63 621 63 c 2,56,-1
 670 63 l 1,57,-1
 670 0 l 1,58,59
 596 6 596 6 371 6 c 128,-1,60
 146 6 146 6 72 0 c 1,0,-1
459 723 m 1,61,-1
 686 723 l 2,62,63
 795 723 795 723 868.5 749.5 c 128,-1,64
 942 776 942 776 977 824 c 128,-1,65
 1012 872 1012 872 1025 920.5 c 128,-1,66
 1038 969 1038 969 1038 1030 c 0,67,68
 1038 1102 1038 1102 1022 1156 c 128,-1,69
 1006 1210 1006 1210 971 1242 c 128,-1,70
 936 1274 936 1274 901 1294.5 c 128,-1,71
 866 1315 866 1315 812 1323 c 128,-1,72
 758 1331 758 1331 721 1333 c 128,-1,73
 684 1335 684 1335 625 1335 c 0,74,75
 525 1335 525 1335 504 1331 c 0,76,77
 481 1329 481 1329 472 1318 c 128,-1,78
 463 1307 463 1307 461 1294.5 c 128,-1,79
 459 1282 459 1282 459 1253 c 2,80,-1
 459 723 l 1,61,-1
EndSplineSet
EndChar

StartChar: S
Encoding: 83 83 54
Width: 1136
GlyphClass: 2
Flags: W
LayerCount: 2
Fore
SplineSet
115 4 m 2,0,-1
 115 414 l 2,1,2
 115 437 115 437 116 445 c 128,-1,3
 117 453 117 453 123 459 c 128,-1,4
 129 465 129 465 141 465 c 0,5,6
 164 465 164 465 166 444 c 0,7,8
 172 241 172 241 293 129 c 0,9,10
 412 18 412 18 616 18 c 0,11,12
 739 18 739 18 815 106.5 c 128,-1,13
 891 195 891 195 891 311 c 0,14,15
 891 422 891 422 827 500 c 0,16,17
 800 535 800 535 766.5 557.5 c 128,-1,18
 733 580 733 580 712.5 587 c 128,-1,19
 692 594 692 594 653 604 c 0,20,21
 399 665 399 665 383 672 c 0,22,23
 262 713 262 713 188.5 816.5 c 128,-1,24
 115 920 115 920 115 1047 c 0,25,26
 115 1211 115 1211 230.5 1327.5 c 128,-1,27
 346 1444 346 1444 514 1444 c 0,28,29
 598 1444 598 1444 668.5 1417.5 c 128,-1,30
 739 1391 739 1391 768 1367 c 128,-1,31
 797 1343 797 1343 842 1300 c 1,32,-1
 913 1417 l 2,33,34
 929 1444 929 1444 944 1444 c 0,35,36
 960 1444 960 1444 963.5 1434.5 c 128,-1,37
 967 1425 967 1425 967 1395 c 2,38,-1
 967 983 l 2,39,40
 967 960 967 960 966 952 c 128,-1,41
 965 944 965 944 958.5 939 c 128,-1,42
 952 934 952 934 940 934 c 0,43,44
 920 934 920 934 915 958 c 0,45,46
 858 1386 858 1386 516 1386 c 0,47,48
 399 1386 399 1386 322.5 1307.5 c 128,-1,49
 246 1229 246 1229 246 1118 c 0,50,51
 246 1028 246 1028 302 954.5 c 128,-1,52
 358 881 358 881 453 858 c 2,53,-1
 715 795 l 2,54,55
 846 764 846 764 934 648 c 128,-1,56
 1022 532 1022 532 1022 381 c 0,57,58
 1022 207 1022 207 908.5 81 c 128,-1,59
 795 -45 795 -45 618 -45 c 0,60,61
 491 -45 491 -45 393 -3 c 128,-1,62
 295 39 295 39 242 98 c 1,63,64
 201 30 201 30 174 -8 c 2,65,-1
 168 -18 l 2,66,67
 152 -45 152 -45 137 -45 c 0,68,69
 121 -45 121 -45 118 -35 c 128,-1,70
 115 -25 115 -25 115 4 c 2,0,-1
EndSplineSet
EndChar

StartChar: T
Encoding: 84 84 55
Width: 1478
GlyphClass: 2
Flags: W
LayerCount: 2
Fore
SplineSet
74 926 m 1,0,-1
 113 1386 l 1,1,-1
 1364 1386 l 1,2,-1
 1403 926 l 1,3,-1
 1352 926 l 1,4,5
 1344 1018 1344 1018 1336.5 1071 c 128,-1,6
 1329 1124 1329 1124 1311.5 1174.5 c 128,-1,7
 1294 1225 1294 1225 1272.5 1249.5 c 128,-1,8
 1251 1274 1251 1274 1210 1293.5 c 128,-1,9
 1169 1313 1169 1313 1116 1318 c 128,-1,10
 1063 1323 1063 1323 983 1323 c 0,11,12
 889 1323 889 1323 866 1319 c 0,13,14
 841 1313 841 1313 835 1295.5 c 128,-1,15
 829 1278 829 1278 829 1241 c 2,16,-1
 829 162 l 2,17,18
 829 121 829 121 837.5 104.5 c 128,-1,19
 846 88 846 88 893 75.5 c 128,-1,20
 940 63 940 63 1044 63 c 2,21,-1
 1126 63 l 1,22,-1
 1126 0 l 1,23,24
 1042 6 1042 6 737 6 c 0,25,26
 434 6 434 6 350 0 c 1,27,-1
 350 63 l 1,28,-1
 432 63 l 2,29,30
 536 63 536 63 583.5 75.5 c 128,-1,31
 631 88 631 88 639 104.5 c 128,-1,32
 647 121 647 121 647 162 c 2,33,-1
 647 1241 l 2,34,35
 647 1270 647 1270 645 1282 c 128,-1,36
 643 1294 643 1294 634 1304.5 c 128,-1,37
 625 1315 625 1315 604.5 1319 c 128,-1,38
 584 1323 584 1323 494 1323 c 0,39,40
 414 1323 414 1323 360.5 1318 c 128,-1,41
 307 1313 307 1313 266 1293.5 c 128,-1,42
 225 1274 225 1274 203.5 1249.5 c 128,-1,43
 182 1225 182 1225 164.5 1174.5 c 128,-1,44
 147 1124 147 1124 140 1071 c 128,-1,45
 133 1018 133 1018 125 926 c 1,46,-1
 74 926 l 1,0,-1
EndSplineSet
EndChar

StartChar: U
Encoding: 85 85 56
Width: 1536
GlyphClass: 2
Flags: W
LayerCount: 2
Fore
SplineSet
68 1335 m 1,0,-1
 68 1399 l 1,1,2
 140 1393 140 1393 371 1393 c 0,3,4
 600 1393 600 1393 672 1399 c 1,5,-1
 672 1335 l 1,6,-1
 623 1335 l 2,7,8
 512 1335 512 1335 486.5 1316.5 c 128,-1,9
 461 1298 461 1298 461 1239 c 2,10,-1
 461 459 l 2,11,12
 461 322 461 322 499 227.5 c 128,-1,13
 537 133 537 133 596 91 c 128,-1,14
 655 49 655 49 703.5 33.5 c 128,-1,15
 752 18 752 18 799 18 c 0,16,17
 955 18 955 18 1073.5 142 c 128,-1,18
 1192 266 1192 266 1192 473 c 2,19,-1
 1192 1184 l 2,20,21
 1192 1215 1192 1215 1188 1233 c 128,-1,22
 1184 1251 1184 1251 1166.5 1279 c 128,-1,23
 1149 1307 1149 1307 1102 1321 c 128,-1,24
 1055 1335 1055 1335 981 1335 c 1,25,-1
 981 1399 l 1,26,27
 1202 1393 1202 1393 1225 1393 c 0,28,29
 1245 1393 1245 1393 1466 1399 c 1,30,-1
 1466 1335 l 1,31,32
 1392 1335 1392 1335 1345 1322 c 128,-1,33
 1298 1309 1298 1309 1281 1280 c 128,-1,34
 1264 1251 1264 1251 1259.5 1230.5 c 128,-1,35
 1255 1210 1255 1210 1255 1176 c 2,36,-1
 1255 520 l 2,37,38
 1255 420 1255 420 1249 379 c 0,39,40
 1222 201 1222 201 1095.5 78 c 128,-1,41
 969 -45 969 -45 795 -45 c 0,42,43
 584 -45 584 -45 431.5 103.5 c 128,-1,44
 279 252 279 252 279 467 c 2,45,-1
 279 1239 l 2,46,47
 279 1298 279 1298 253 1316.5 c 128,-1,48
 227 1335 227 1335 117 1335 c 2,49,-1
 68 1335 l 1,0,-1
EndSplineSet
EndChar

StartChar: V
Encoding: 86 86 57
Width: 1536
GlyphClass: 2
Flags: W
LayerCount: 2
Fore
SplineSet
39 1335 m 1,0,-1
 39 1399 l 1,1,2
 260 1393 260 1393 299 1393 c 0,3,4
 518 1393 518 1393 592 1399 c 1,5,-1
 592 1335 l 1,6,7
 424 1335 424 1335 424 1276 c 0,8,9
 424 1268 424 1268 436 1239 c 2,10,-1
 827 205 l 1,11,-1
 1202 1192 l 2,12,13
 1212 1223 1212 1223 1212 1233 c 0,14,15
 1212 1274 1212 1274 1174.5 1303.5 c 128,-1,16
 1137 1333 1137 1333 1063 1335 c 1,17,-1
 1063 1399 l 1,18,19
 1223 1393 1223 1393 1296 1393 c 0,20,21
 1400 1393 1400 1393 1495 1399 c 1,22,-1
 1495 1335 l 1,23,24
 1323 1333 1323 1333 1272 1198 c 2,25,-1
 815 -6 l 2,26,27
 807 -31 807 -31 799 -38 c 128,-1,28
 791 -45 791 -45 766 -45 c 0,29,30
 746 -45 746 -45 735.5 -37 c 128,-1,31
 725 -29 725 -29 715 0 c 2,32,-1
 240 1257 l 2,33,34
 220 1312 220 1312 184 1323.5 c 128,-1,35
 148 1335 148 1335 39 1335 c 1,0,-1
EndSplineSet
EndChar

StartChar: W
Encoding: 87 87 58
Width: 2103
GlyphClass: 2
Flags: W
LayerCount: 2
Fore
SplineSet
37 1335 m 1,0,-1
 37 1399 l 1,1,2
 66 1399 66 1399 118 1397 c 128,-1,3
 170 1395 170 1395 211 1394 c 128,-1,4
 252 1393 252 1393 287 1393 c 0,5,6
 504 1393 504 1393 578 1399 c 1,7,-1
 578 1335 l 1,8,9
 406 1335 406 1335 406 1274 c 0,10,11
 406 1260 406 1260 410 1247 c 2,12,-1
 739 240 l 1,13,-1
 1024 1118 l 1,14,-1
 979 1262 l 2,15,16
 963 1313 963 1313 928 1324 c 128,-1,17
 893 1335 893 1335 795 1335 c 1,18,-1
 795 1399 l 1,19,20
 824 1399 824 1399 876 1397 c 128,-1,21
 928 1395 928 1395 969 1394 c 128,-1,22
 1010 1393 1010 1393 1044 1393 c 0,23,24
 1261 1393 1261 1393 1335 1399 c 1,25,-1
 1335 1335 l 1,26,27
 1163 1335 1163 1335 1163 1274 c 0,28,29
 1163 1268 1163 1268 1169 1243 c 2,30,-1
 1497 240 l 1,31,-1
 1804 1186 l 2,32,33
 1814 1217 1814 1217 1815 1227 c 0,34,35
 1815 1264 1815 1264 1772 1298.5 c 128,-1,36
 1729 1333 1729 1333 1636 1335 c 1,37,-1
 1636 1399 l 1,38,39
 1796 1393 1796 1393 1880 1393 c 0,40,41
 1974 1393 1974 1393 2066 1399 c 1,42,-1
 2066 1335 l 1,43,44
 1904 1335 1904 1335 1862 1198 c 2,45,-1
 1470 -4 l 2,46,47
 1466 -20 1466 -20 1463 -27.5 c 128,-1,48
 1460 -35 1460 -35 1452 -40 c 128,-1,49
 1444 -45 1444 -45 1430 -45 c 0,50,51
 1403 -45 1403 -45 1391 -6 c 2,52,-1
 1051 1036 l 1,53,-1
 713 -4 l 2,54,55
 709 -20 709 -20 705.5 -27.5 c 128,-1,56
 702 -35 702 -35 694 -40 c 128,-1,57
 686 -45 686 -45 672 -45 c 0,58,59
 645 -45 645 -45 633 -6 c 2,60,-1
 223 1249 l 2,61,62
 205 1308 205 1308 177.5 1321.5 c 128,-1,63
 150 1335 150 1335 37 1335 c 1,0,-1
EndSplineSet
EndChar

StartChar: X
Encoding: 88 88 59
Width: 1536
GlyphClass: 2
Flags: W
LayerCount: 2
Fore
SplineSet
49 0 m 1,0,-1
 49 63 l 1,1,2
 143 63 143 63 212 92 c 128,-1,3
 281 121 281 121 301.5 142.5 c 128,-1,4
 322 164 322 164 346 199 c 2,5,-1
 682 694 l 1,6,-1
 305 1264 l 2,7,8
 276 1307 276 1307 237.5 1321 c 128,-1,9
 199 1335 199 1335 115 1335 c 2,10,-1
 76 1335 l 1,11,-1
 76 1399 l 1,12,13
 189 1393 189 1393 342 1393 c 0,14,15
 569 1393 569 1393 641 1399 c 1,16,-1
 641 1335 l 1,17,18
 580 1333 580 1333 544 1313.5 c 128,-1,19
 508 1294 508 1294 508 1274 c 0,20,21
 508 1266 508 1266 522 1243 c 2,22,-1
 786 848 l 1,23,-1
 1020 1194 l 2,24,25
 1038 1223 1038 1223 1038 1241 c 0,26,27
 1038 1278 1038 1278 1004.5 1305.5 c 128,-1,28
 971 1333 971 1333 911 1335 c 1,29,-1
 911 1399 l 1,30,31
 993 1393 993 1393 1174 1393 c 0,32,33
 1197 1393 1197 1393 1234.5 1394 c 128,-1,34
 1272 1395 1272 1395 1322 1397 c 128,-1,35
 1372 1399 1372 1399 1401 1399 c 1,36,-1
 1401 1335 l 1,37,38
 1194 1333 1194 1333 1104 1202 c 2,39,-1
 823 791 l 1,40,-1
 1255 137 l 2,41,42
 1286 92 1286 92 1325 77.5 c 128,-1,43
 1364 63 1364 63 1448 63 c 2,44,-1
 1487 63 l 1,45,-1
 1487 0 l 1,46,47
 1358 6 1358 6 1221 6 c 0,48,49
 994 6 994 6 922 0 c 1,50,-1
 922 63 l 1,51,52
 983 65 983 65 1019 84.5 c 128,-1,53
 1055 104 1055 104 1055 125 c 0,54,55
 1055 127 1055 127 1044 147 c 2,56,-1
 721 637 l 1,57,-1
 430 207 l 2,58,59
 410 174 410 174 410 158 c 0,60,61
 410 125 410 125 442.5 95.5 c 128,-1,62
 475 66 475 66 539 63 c 1,63,-1
 539 0 l 1,64,65
 465 6 465 6 276 6 c 0,66,67
 270 6 270 6 49 0 c 1,0,-1
EndSplineSet
EndChar

StartChar: Y
Encoding: 89 89 60
Width: 1536
GlyphClass: 2
Flags: W
LayerCount: 2
Fore
SplineSet
23 1335 m 1,0,-1
 23 1399 l 1,1,2
 152 1393 152 1393 289 1393 c 0,3,4
 518 1393 518 1393 592 1399 c 1,5,-1
 592 1335 l 1,6,7
 516 1335 516 1335 482.5 1325 c 128,-1,8
 449 1315 449 1315 449 1284 c 0,9,10
 449 1270 449 1270 463 1249 c 2,11,-1
 834 645 l 1,12,-1
 1171 1194 l 2,13,14
 1191 1225 1191 1225 1192 1255 c 0,15,16
 1192 1290 1192 1290 1163.5 1312.5 c 128,-1,17
 1135 1335 1135 1335 1075 1335 c 1,18,-1
 1075 1399 l 1,19,20
 1235 1393 1235 1393 1311 1393 c 0,21,22
 1417 1393 1417 1393 1511 1399 c 1,23,-1
 1511 1335 l 1,24,25
 1329 1335 1329 1335 1249 1202 c 2,26,-1
 854 559 l 1,27,-1
 854 164 l 2,28,29
 854 101 854 101 879.5 82 c 128,-1,30
 905 63 905 63 1018 63 c 2,31,-1
 1065 63 l 1,32,-1
 1065 0 l 1,33,34
 991 6 991 6 766 6 c 128,-1,35
 541 6 541 6 467 0 c 1,36,-1
 467 63 l 1,37,-1
 516 63 l 2,38,39
 627 63 627 63 652.5 81.5 c 128,-1,40
 678 100 678 100 678 160 c 2,41,-1
 678 559 l 1,42,-1
 248 1260 l 2,43,44
 230 1291 230 1291 215.5 1304 c 128,-1,45
 201 1317 201 1317 164 1326 c 128,-1,46
 127 1335 127 1335 59 1335 c 2,47,-1
 23 1335 l 1,0,-1
EndSplineSet
EndChar

StartChar: Z
Encoding: 90 90 61
Width: 1251
GlyphClass: 2
Flags: W
LayerCount: 2
Fore
SplineSet
115 35 m 0,0,1
 115 53 115 53 129 76 c 2,2,-1
 926 1335 l 1,3,-1
 604 1335 l 2,4,5
 481 1335 481 1335 400 1307.5 c 128,-1,6
 319 1280 319 1280 276 1221.5 c 128,-1,7
 233 1163 233 1163 216 1098.5 c 128,-1,8
 199 1034 199 1034 193 938 c 1,9,-1
 141 938 l 1,10,-1
 164 1399 l 1,11,-1
 1081 1399 l 2,12,13
 1099 1399 1099 1399 1106.5 1399 c 128,-1,14
 1114 1399 1114 1399 1122 1395 c 128,-1,15
 1130 1391 1130 1391 1132.5 1384.5 c 128,-1,16
 1135 1378 1135 1378 1135 1366 c 0,17,18
 1135 1350 1135 1350 1120 1327 c 2,19,-1
 326 70 l 1,20,-1
 662 70 l 2,21,22
 773 70 773 70 850.5 93.5 c 128,-1,23
 928 117 928 117 973 153.5 c 128,-1,24
 1018 190 1018 190 1044.5 257 c 128,-1,25
 1071 324 1071 324 1080.5 386.5 c 128,-1,26
 1090 449 1090 449 1096 547 c 1,27,-1
 1147 547 l 1,28,-1
 1112 0 l 1,29,-1
 168 0 l 2,30,31
 133 0 133 0 124 5 c 128,-1,32
 115 10 115 10 115 35 c 0,0,1
EndSplineSet
EndChar

StartChar: bracketleft
Encoding: 91 91 62
Width: 569
GlyphClass: 2
Flags: W
LayerCount: 2
Fore
SplineSet
213 -512 m 1,0,-1
 213 1536 l 1,1,-1
 522 1536 l 1,2,-1
 522 1489 l 1,3,-1
 350 1489 l 1,4,-1
 350 -465 l 1,5,-1
 522 -465 l 1,6,-1
 522 -512 l 1,7,-1
 213 -512 l 1,0,-1
EndSplineSet
EndChar

StartChar: backslash
Encoding: 92 92 63
Width: 1024
GlyphClass: 2
Flags: W
LayerCount: 2
Fore
SplineSet
117 1507 m 0,0,1
 117 1532 117 1532 135.5 1532 c 128,-1,2
 154 1532 154 1532 170 1489 c 2,3,-1
 895 -446 l 2,4,5
 905 -477 905 -477 905 -483 c 0,6,7
 905 -508 905 -508 885 -508 c 0,8,9
 869 -508 869 -508 850 -461 c 2,10,-1
 125 1477 l 2,11,12
 117 1497 117 1497 117 1507 c 0,0,1
EndSplineSet
EndChar

StartChar: bracketright
Encoding: 93 93 64
Width: 569
GlyphClass: 2
Flags: W
LayerCount: 2
Fore
SplineSet
43 -465 m 1,0,-1
 215 -465 l 1,1,-1
 215 1489 l 1,2,-1
 43 1489 l 1,3,-1
 43 1536 l 1,4,-1
 352 1536 l 1,5,-1
 352 -512 l 1,6,-1
 43 -512 l 1,7,-1
 43 -465 l 1,0,-1
EndSplineSet
EndChar

StartChar: asciicircum
Encoding: 94 94 65
Width: 1251
GlyphClass: 2
Flags: W
LayerCount: 2
Fore
SplineSet
240 991 m 1,0,-1
 623 1286 l 1,1,-1
 1008 991 l 1,2,-1
 977 948 l 1,3,-1
 623 1178 l 1,4,-1
 270 948 l 1,5,-1
 240 991 l 1,0,-1
EndSplineSet
EndChar

StartChar: underscore
Encoding: 95 95 66
Width: 1593
GlyphClass: 2
Flags: W
LayerCount: 2
Fore
SplineSet
172 -436 m 128,-1,1
 172 -395 172 -395 233 -395 c 2,2,-1
 1356 -395 l 2,3,4
 1417 -395 1417 -395 1417 -436 c 128,-1,5
 1417 -477 1417 -477 1360 -477 c 2,6,-1
 231 -477 l 2,7,0
 172 -477 172 -477 172 -436 c 128,-1,1
EndSplineSet
EndChar

StartChar: grave
Encoding: 96 96 67
Width: 1024
GlyphClass: 2
Flags: W
LayerCount: 2
Fore
SplineSet
205 1239 m 0,0,1
 205 1266 205 1266 225.5 1290.5 c 128,-1,2
 246 1315 246 1315 276 1315 c 0,3,4
 299 1315 299 1315 326.5 1292.5 c 128,-1,5
 354 1270 354 1270 467 1159 c 0,6,7
 537 1089 537 1089 584 1044 c 1,8,-1
 553 1004 l 1,9,10
 512 1024 512 1024 279 1157 c 1,11,-1
 266 1163 l 2,12,13
 256 1169 256 1169 251 1172.5 c 128,-1,14
 246 1176 246 1176 235.5 1184 c 128,-1,15
 225 1192 225 1192 220 1199 c 128,-1,16
 215 1206 215 1206 210 1216.5 c 128,-1,17
 205 1227 205 1227 205 1239 c 0,0,1
EndSplineSet
EndChar

StartChar: a
Encoding: 97 97 68
Width: 1024
GlyphClass: 2
Flags: W
LayerCount: 2
Fore
SplineSet
86 195 m 0,0,1
 86 369 86 369 291 461 c 0,2,3
 414 520 414 520 668 535 c 1,4,-1
 668 610 l 2,5,6
 668 737 668 737 601.5 804.5 c 128,-1,7
 535 872 535 872 451 872 c 0,8,9
 301 872 301 872 229 778 c 1,10,11
 290 776 290 776 312 745.5 c 128,-1,12
 334 715 334 715 334 684 c 0,13,14
 334 643 334 643 308.5 616.5 c 128,-1,15
 283 590 283 590 240 590 c 0,16,17
 199 590 199 590 172 615.5 c 128,-1,18
 145 641 145 641 145 686 c 0,19,20
 145 786 145 786 235.5 852 c 128,-1,21
 326 918 326 918 455 918 c 0,22,23
 623 918 623 918 735 805 c 0,24,25
 770 770 770 770 787.5 725 c 128,-1,26
 805 680 805 680 807 650.5 c 128,-1,27
 809 621 809 621 809 563 c 2,28,-1
 809 154 l 2,29,30
 809 142 809 142 813 122 c 128,-1,31
 817 102 817 102 835.5 76.5 c 128,-1,32
 854 51 854 51 885 51 c 0,33,34
 959 51 959 51 958 182 c 2,35,-1
 958 297 l 1,36,-1
 1010 297 l 1,37,-1
 1010 182 l 2,38,39
 1010 73 1010 73 952.5 30.5 c 128,-1,40
 895 -12 895 -12 842 -12 c 0,41,42
 774 -12 774 -12 731 38 c 128,-1,43
 688 88 688 88 682 156 c 1,44,45
 651 78 651 78 580.5 27.5 c 128,-1,46
 510 -23 510 -23 414 -23 c 0,47,48
 340 -23 340 -23 270.5 -4.5 c 128,-1,49
 201 14 201 14 143.5 65.5 c 128,-1,50
 86 117 86 117 86 195 c 0,0,1
244 197 m 0,51,52
 244 121 244 121 298 72 c 128,-1,53
 352 23 352 23 428 23 c 0,54,55
 514 23 514 23 591 89.5 c 128,-1,56
 668 156 668 156 668 287 c 2,57,-1
 668 492 l 1,58,59
 441 484 441 484 342.5 393.5 c 128,-1,60
 244 303 244 303 244 197 c 0,51,52
EndSplineSet
EndChar

StartChar: b
Encoding: 98 98 69
Width: 1136
GlyphClass: 2
Flags: W
LayerCount: 2
Fore
SplineSet
57 1335 m 1,0,-1
 57 1399 l 1,1,-1
 352 1421 l 1,2,-1
 352 772 l 1,3,4
 471 905 471 905 633 905 c 0,5,6
 809 905 809 905 938 770 c 128,-1,7
 1067 635 1067 635 1067 442 c 0,8,9
 1067 247 1067 247 932 112 c 128,-1,10
 797 -23 797 -23 610 -23 c 0,11,12
 440 -23 440 -23 342 127 c 1,13,14
 270 2 270 2 268 0 c 2,15,-1
 217 0 l 1,16,-1
 217 1221 l 2,17,18
 217 1297 217 1297 190 1316 c 128,-1,19
 163 1335 163 1335 57 1335 c 1,0,-1
358 233 m 2,20,21
 358 190 358 190 387 147 c 0,22,23
 468 23 468 23 600 23 c 0,24,25
 601 23 601 23 602 23 c 0,26,27
 745 23 745 23 834 154 c 0,28,29
 897 252 897 252 897 444 c 0,30,31
 897 634 897 634 838 729 c 0,32,33
 756 860 756 860 623 860 c 0,34,35
 473 860 473 860 381 729 c 0,36,37
 358 696 358 696 358 655 c 2,38,-1
 358 233 l 2,20,21
EndSplineSet
EndChar

StartChar: c
Encoding: 99 99 70
Width: 909
GlyphClass: 2
Flags: W
LayerCount: 2
Fore
SplineSet
70 442.5 m 128,-1,1
 70 637 70 637 198 777.5 c 128,-1,2
 326 918 326 918 514 918 c 0,3,4
 639 918 639 918 733 858.5 c 128,-1,5
 827 799 827 799 827 698 c 0,6,7
 827 653 827 653 800.5 627.5 c 128,-1,8
 774 602 774 602 733 602 c 0,9,10
 690 602 690 602 664.5 628.5 c 128,-1,11
 639 655 639 655 639 696 c 0,12,13
 639 714 639 714 645 732 c 128,-1,14
 651 750 651 750 673.5 769 c 128,-1,15
 696 788 696 788 735 791 c 1,16,17
 662 866 662 866 520 866 c 0,18,19
 518 866 518 866 516 866 c 0,20,21
 412 866 412 866 326 768 c 128,-1,22
 240 670 240 670 240 446 c 0,23,24
 240 329 240 329 268.5 243.5 c 128,-1,25
 297 158 297 158 344 114 c 128,-1,26
 391 70 391 70 437 49.5 c 128,-1,27
 483 29 483 29 528 29 c 0,28,29
 729 29 729 29 797 244 c 0,30,31
 803 264 803 264 823 264 c 0,32,33
 850 264 850 264 850 244 c 0,34,35
 850 234 850 234 842 208 c 128,-1,36
 834 182 834 182 809 141 c 128,-1,37
 784 100 784 100 748.5 64.5 c 128,-1,38
 713 29 713 29 650.5 3 c 128,-1,39
 588 -23 588 -23 510 -23 c 0,40,41
 330 -23 330 -23 200 112.5 c 128,-1,0
 70 248 70 248 70 442.5 c 128,-1,1
EndSplineSet
EndChar

StartChar: d
Encoding: 100 100 71
Width: 1136
GlyphClass: 2
Flags: W
LayerCount: 2
Fore
SplineSet
70 440 m 0,0,1
 70 635 70 635 206 770 c 128,-1,2
 342 905 342 905 526 905 c 0,3,4
 682 905 682 905 784 778 c 1,5,-1
 784 1221 l 2,6,7
 784 1297 784 1297 757.5 1316 c 128,-1,8
 731 1335 731 1335 625 1335 c 1,9,-1
 625 1399 l 1,10,-1
 920 1421 l 1,11,-1
 920 178 l 2,12,13
 920 102 920 102 946.5 82.5 c 128,-1,14
 973 63 973 63 1079 63 c 1,15,-1
 1079 0 l 1,16,-1
 778 -23 l 1,17,-1
 778 113 l 1,18,19
 672 -22 672 -22 504 -23 c 0,20,21
 328 -23 328 -23 199 112 c 128,-1,22
 70 247 70 247 70 440 c 0,0,1
240 438 m 0,23,24
 240 248 240 248 299 154 c 0,25,26
 381 23 381 23 514 23 c 0,27,28
 666 23 666 23 756 166 c 0,29,30
 779 201 779 201 778 242 c 2,31,-1
 778 662 l 2,32,33
 778 703 778 703 756 737 c 0,34,35
 672 860 672 860 535 860 c 0,36,37
 392 860 392 860 303 729 c 0,38,39
 240 631 240 631 240 438 c 0,23,24
EndSplineSet
EndChar

StartChar: e
Encoding: 101 101 72
Width: 909
GlyphClass: 2
Flags: W
LayerCount: 2
Fore
SplineSet
57 451 m 0,0,1
 57 644 57 644 181 781 c 128,-1,2
 305 918 305 918 483 918 c 0,3,4
 663 918 663 918 756.5 801 c 128,-1,5
 850 684 850 684 850 516 c 0,6,7
 850 485 850 485 842 479 c 128,-1,8
 834 473 834 473 799 473 c 2,9,-1
 227 473 l 1,10,11
 227 264 227 264 289 166 c 0,12,13
 375 29 375 29 520 29 c 0,14,15
 540 29 540 29 564 33 c 128,-1,16
 588 37 588 37 637 54.5 c 128,-1,17
 686 72 686 72 729 119 c 128,-1,18
 772 166 772 166 797 240 c 0,19,20
 803 269 803 269 823 268 c 0,21,22
 850 268 850 268 850 244 c 0,23,24
 850 226 850 226 830.5 185.5 c 128,-1,25
 811 145 811 145 774 97 c 128,-1,26
 737 49 737 49 665.5 13 c 128,-1,27
 594 -23 594 -23 508 -23 c 0,28,29
 328 -23 328 -23 192.5 113.5 c 128,-1,30
 57 250 57 250 57 451 c 0,0,1
229 516 m 1,31,-1
 715 516 l 1,32,33
 715 559 715 559 707.5 607 c 128,-1,34
 700 655 700 655 678.5 721.5 c 128,-1,35
 657 788 657 788 607 830 c 128,-1,36
 557 872 557 872 483 872 c 0,37,38
 450 872 450 872 414.5 858 c 128,-1,39
 379 844 379 844 336 810 c 128,-1,40
 293 776 293 776 263 699 c 128,-1,41
 233 622 233 622 229 516 c 1,31,-1
EndSplineSet
EndChar

StartChar: f
Encoding: 102 102 73
Width: 624
GlyphClass: 2
Flags: W
LayerCount: 2
Fore
SplineSet
68 819 m 1,0,-1
 68 883 l 1,1,-1
 229 883 l 1,2,-1
 229 1118 l 2,3,4
 229 1270 229 1270 327.5 1357 c 128,-1,5
 426 1444 426 1444 547 1444 c 0,6,7
 627 1444 627 1444 679 1401 c 128,-1,8
 731 1358 731 1358 731 1300 c 0,9,10
 731 1261 731 1261 707.5 1235.5 c 128,-1,11
 684 1210 684 1210 641 1210 c 0,12,13
 600 1210 600 1210 576.5 1236 c 128,-1,14
 553 1262 553 1262 553 1298 c 0,15,16
 553 1364 553 1364 614 1384 c 1,17,18
 583 1398 583 1398 547 1399 c 0,19,20
 473 1399 473 1399 415.5 1323 c 128,-1,21
 358 1247 358 1247 358 1120 c 2,22,-1
 358 883 l 1,23,-1
 598 883 l 1,24,-1
 598 819 l 1,25,-1
 365 819 l 1,26,-1
 365 160 l 2,27,28
 365 101 365 101 389.5 82 c 128,-1,29
 414 63 414 63 520 63 c 2,30,-1
 563 63 l 1,31,-1
 563 0 l 1,32,33
 481 6 481 6 303 6 c 0,34,35
 278 6 278 6 239.5 5 c 128,-1,36
 201 4 201 4 149.5 2 c 128,-1,37
 98 0 98 0 70 0 c 1,38,-1
 70 63 l 1,39,40
 179 63 179 63 204 76.5 c 128,-1,41
 229 90 229 90 229 156 c 2,42,-1
 229 819 l 1,43,-1
 68 819 l 1,0,-1
EndSplineSet
EndChar

StartChar: g
Encoding: 103 103 74
Width: 1024
GlyphClass: 2
Flags: W
LayerCount: 2
Fore
SplineSet
57 -162 m 0,0,1
 57 -96 57 -96 107.5 -39 c 128,-1,2
 158 18 158 18 246 43 c 1,3,4
 156 100 156 100 156 225 c 0,5,6
 156 321 156 321 219 395 c 1,7,8
 123 475 123 475 123 606 c 0,9,10
 123 727 123 727 219 816 c 128,-1,11
 315 905 315 905 455 905 c 0,12,13
 578 905 578 905 672 831 c 1,14,15
 770 927 770 927 889 928 c 0,16,17
 942 928 942 928 967.5 895 c 128,-1,18
 993 862 993 862 993 827 c 0,19,20
 993 796 993 796 973.5 781 c 128,-1,21
 954 766 954 766 934 766 c 0,22,23
 909 766 909 766 891.5 782.5 c 128,-1,24
 874 799 874 799 874 825 c 0,25,26
 874 868 874 868 907 881 c 1,27,28
 901 883 901 883 887 883 c 0,29,30
 787 883 787 883 702 803 c 1,31,32
 786 725 786 725 786 604 c 128,-1,33
 786 483 786 483 690 394 c 128,-1,34
 594 305 594 305 455 305 c 0,35,36
 340 305 340 305 252 369 c 1,37,38
 217 328 217 328 217 272 c 0,39,40
 217 221 217 221 248 181 c 128,-1,41
 279 141 279 141 326 135 c 0,42,43
 340 133 340 133 479 133 c 0,44,45
 561 133 561 133 606 131 c 128,-1,46
 651 129 651 129 715.5 115.5 c 128,-1,47
 780 102 780 102 831 76 c 0,48,49
 964 2 964 2 965 -158 c 0,50,51
 965 -275 965 -275 830.5 -348.5 c 128,-1,52
 696 -422 696 -422 510 -422 c 0,53,54
 322 -422 322 -422 189.5 -347.5 c 128,-1,55
 57 -273 57 -273 57 -162 c 0,0,1
164 -162 m 0,56,57
 164 -246 164 -246 263 -310.5 c 128,-1,58
 362 -375 362 -375 512 -375 c 0,59,60
 659 -375 659 -375 758.5 -311.5 c 128,-1,61
 858 -248 858 -248 858 -162 c 0,62,63
 858 -101 858 -101 823 -62 c 128,-1,64
 788 -23 788 -23 716.5 -7.5 c 128,-1,65
 645 8 645 8 595 11 c 128,-1,66
 545 14 545 14 453 14 c 2,67,-1
 332 14 l 1,68,69
 262 10 262 10 213 -41 c 128,-1,70
 164 -92 164 -92 164 -162 c 0,56,57
276 604 m 0,71,72
 276 352 276 352 455 352 c 0,73,74
 545 352 545 352 600 434 c 0,75,76
 633 489 633 489 633 606 c 0,77,78
 633 858 633 858 455 858 c 0,79,80
 365 858 365 858 309 776 c 0,81,82
 276 721 276 721 276 604 c 0,71,72
EndSplineSet
EndChar

StartChar: h
Encoding: 104 104 75
Width: 1136
GlyphClass: 2
Flags: W
LayerCount: 2
Fore
SplineSet
66 0 m 1,0,-1
 66 63 l 1,1,2
 175 63 175 63 200 76.5 c 128,-1,3
 225 90 225 90 225 156 c 2,4,-1
 225 1221 l 2,5,6
 225 1297 225 1297 198.5 1316 c 128,-1,7
 172 1335 172 1335 66 1335 c 1,8,-1
 66 1399 l 1,9,-1
 360 1421 l 1,10,-1
 360 709 l 1,11,-1
 362 709 l 1,12,13
 395 783 395 783 469 844 c 128,-1,14
 543 905 543 905 657 905 c 0,15,16
 811 905 811 905 872 829 c 0,17,18
 917 778 917 778 926.5 721 c 128,-1,19
 936 664 936 664 936 516 c 2,20,-1
 936 125 l 2,21,22
 938 82 938 82 971 72.5 c 128,-1,23
 1004 63 1004 63 1096 63 c 1,24,-1
 1096 0 l 1,25,26
 887 6 887 6 866 6 c 0,27,28
 850 6 850 6 635 0 c 1,29,-1
 635 63 l 1,30,31
 744 63 744 63 769.5 76.5 c 128,-1,32
 795 90 795 90 795 156 c 2,33,-1
 795 633 l 2,34,35
 795 737 795 737 763 798.5 c 128,-1,36
 731 860 731 860 643 860 c 0,37,38
 537 860 537 860 452 771 c 128,-1,39
 367 682 367 682 367 532 c 2,40,-1
 367 156 l 2,41,42
 367 90 367 90 392.5 76.5 c 128,-1,43
 418 63 418 63 526 63 c 1,44,-1
 526 0 l 1,45,46
 317 6 317 6 297 6 c 0,47,48
 281 6 281 6 66 0 c 1,0,-1
EndSplineSet
EndChar

StartChar: i
Encoding: 105 105 76
Width: 567
GlyphClass: 2
Flags: W
LayerCount: 2
Fore
SplineSet
68 0 m 1,0,-1
 68 63 l 1,1,2
 177 63 177 63 202 76.5 c 128,-1,3
 227 90 227 90 227 156 c 2,4,-1
 227 707 l 2,5,6
 227 783 227 783 201.5 801 c 128,-1,7
 176 819 176 819 76 819 c 1,8,-1
 76 883 l 1,9,-1
 362 905 l 1,10,-1
 362 154 l 2,11,12
 362 93 362 93 384 78 c 128,-1,13
 406 63 406 63 506 63 c 1,14,-1
 506 0 l 1,15,16
 297 6 297 6 293 6 c 0,17,18
 265 6 265 6 68 0 c 1,0,-1
154 1262 m 0,19,20
 154 1303 154 1303 185.5 1336.5 c 128,-1,21
 217 1370 217 1370 262 1370 c 128,-1,22
 307 1370 307 1370 339 1339.5 c 128,-1,23
 371 1309 371 1309 371 1261.5 c 128,-1,24
 371 1214 371 1214 339 1183.5 c 128,-1,25
 307 1153 307 1153 262 1153 c 0,26,27
 215 1153 215 1153 184.5 1186 c 128,-1,28
 154 1219 154 1219 154 1262 c 0,19,20
EndSplineSet
EndChar

StartChar: j
Encoding: 106 106 77
Width: 624
GlyphClass: 2
Flags: W
LayerCount: 2
Fore
SplineSet
-82 -256 m 0,0,1
 -82 -215 -82 -215 -56.5 -188.5 c 128,-1,2
 -31 -162 -31 -162 12 -162 c 128,-1,3
 55 -162 55 -162 80.5 -188.5 c 128,-1,4
 106 -215 106 -215 106 -256 c 0,5,6
 106 -293 106 -293 84.5 -316.5 c 128,-1,7
 63 -340 63 -340 35 -348 c 1,8,9
 88 -375 88 -375 145 -375 c 0,10,11
 192 -375 192 -375 224 -347 c 128,-1,12
 256 -319 256 -319 270.5 -273 c 128,-1,13
 285 -227 285 -227 290 -188.5 c 128,-1,14
 295 -150 295 -150 295 -106 c 2,15,-1
 295 705 l 2,16,17
 295 781 295 781 265.5 800 c 128,-1,18
 236 819 236 819 119 819 c 1,19,-1
 119 883 l 1,20,-1
 430 905 l 1,21,-1
 430 -102 l 2,22,23
 430 -239 430 -239 348 -329.5 c 128,-1,24
 266 -420 266 -420 150 -420 c 0,25,26
 56 -420 56 -420 -13 -376 c 128,-1,27
 -82 -332 -82 -332 -82 -256 c 0,0,1
213 1261 m 128,-1,29
 213 1306 213 1306 245 1338 c 128,-1,30
 277 1370 277 1370 322 1370 c 128,-1,31
 367 1370 367 1370 399 1338 c 128,-1,32
 431 1306 431 1306 431 1261 c 128,-1,33
 431 1216 431 1216 399 1184.5 c 128,-1,34
 367 1153 367 1153 322 1153 c 128,-1,35
 277 1153 277 1153 245 1184.5 c 128,-1,28
 213 1216 213 1216 213 1261 c 128,-1,29
EndSplineSet
EndChar

StartChar: k
Encoding: 107 107 78
Width: 1079
GlyphClass: 2
Flags: W
LayerCount: 2
Fore
SplineSet
57 0 m 1,0,-1
 57 63 l 1,1,2
 166 63 166 63 191.5 76.5 c 128,-1,3
 217 90 217 90 217 156 c 2,4,-1
 217 1221 l 2,5,6
 217 1297 217 1297 190.5 1316 c 128,-1,7
 164 1335 164 1335 57 1335 c 1,8,-1
 57 1399 l 1,9,-1
 352 1421 l 1,10,-1
 352 438 l 1,11,-1
 641 688 l 2,12,13
 686 727 686 727 686 768 c 0,14,15
 686 815 686 815 627 819 c 1,16,-1
 627 883 l 1,17,18
 713 877 713 877 856 877 c 0,19,20
 940 877 940 877 999 883 c 1,21,-1
 999 819 l 1,22,23
 870 813 870 813 741 709 c 0,24,25
 712 686 712 686 643.5 626.5 c 128,-1,26
 575 567 575 567 575 561 c 0,27,28
 575 559 575 559 577.5 554 c 128,-1,29
 580 549 580 549 584 545 c 128,-1,30
 588 541 588 541 588 539 c 2,31,-1
 848 172 l 2,32,33
 901 98 901 98 940 80.5 c 128,-1,34
 979 63 979 63 1047 63 c 1,35,-1
 1047 0 l 1,36,37
 959 6 959 6 868 6 c 0,38,39
 819 6 819 6 647 0 c 1,40,-1
 647 63 l 1,41,42
 721 63 721 63 721 111 c 0,43,44
 721 144 721 144 555 373 c 0,45,46
 543 389 543 389 516 424 c 0,47,48
 491 461 491 461 477 479 c 1,49,-1
 346 367 l 1,50,-1
 346 156 l 2,51,52
 346 90 346 90 371.5 76.5 c 128,-1,53
 397 63 397 63 506 63 c 1,54,-1
 506 0 l 1,55,56
 383 6 383 6 281 6 c 0,57,58
 260 6 260 6 57 0 c 1,0,-1
EndSplineSet
EndChar

StartChar: l
Encoding: 108 108 79
Width: 567
GlyphClass: 2
Flags: W
LayerCount: 2
Fore
SplineSet
68 0 m 1,0,-1
 68 63 l 1,1,2
 177 63 177 63 202 76.5 c 128,-1,3
 227 90 227 90 227 156 c 2,4,-1
 227 1221 l 2,5,6
 227 1297 227 1297 200.5 1316 c 128,-1,7
 174 1335 174 1335 68 1335 c 1,8,-1
 68 1399 l 1,9,-1
 362 1421 l 1,10,-1
 362 156 l 2,11,12
 362 90 362 90 388 76.5 c 128,-1,13
 414 63 414 63 522 63 c 1,14,-1
 522 0 l 1,15,16
 497 0 497 0 445 2 c 128,-1,17
 393 4 393 4 355 5 c 128,-1,18
 317 6 317 6 295 6 c 0,19,20
 271 6 271 6 68 0 c 1,0,-1
EndSplineSet
EndChar

StartChar: m
Encoding: 109 109 80
Width: 1705
GlyphClass: 2
Flags: W
LayerCount: 2
Fore
SplineSet
66 0 m 1,0,-1
 66 63 l 1,1,2
 175 63 175 63 200 76.5 c 128,-1,3
 225 90 225 90 225 156 c 2,4,-1
 225 705 l 2,5,6
 225 781 225 781 198.5 800 c 128,-1,7
 172 819 172 819 66 819 c 1,8,-1
 66 883 l 1,9,-1
 354 905 l 1,10,-1
 354 690 l 1,11,12
 450 905 450 905 657 905 c 0,13,14
 897 905 897 905 930 705 c 1,15,16
 965 783 965 783 1038.5 844 c 128,-1,17
 1112 905 1112 905 1227 905 c 0,18,19
 1381 905 1381 905 1442 829 c 0,20,21
 1487 778 1487 778 1496 721 c 128,-1,22
 1505 664 1505 664 1505 516 c 2,23,-1
 1505 125 l 2,24,25
 1507 82 1507 82 1540 72.5 c 128,-1,26
 1573 63 1573 63 1665 63 c 1,27,-1
 1665 0 l 1,28,29
 1456 6 1456 6 1436 6 c 0,30,31
 1420 6 1420 6 1204 0 c 1,32,-1
 1204 63 l 1,33,34
 1313 63 1313 63 1338.5 76.5 c 128,-1,35
 1364 90 1364 90 1364 156 c 2,36,-1
 1364 633 l 2,37,38
 1364 737 1364 737 1332 798.5 c 128,-1,39
 1300 860 1300 860 1212 860 c 0,40,41
 1106 860 1106 860 1021 771 c 128,-1,42
 936 682 936 682 936 532 c 2,43,-1
 936 156 l 2,44,45
 936 90 936 90 961.5 76.5 c 128,-1,46
 987 63 987 63 1096 63 c 1,47,-1
 1096 0 l 1,48,49
 887 6 887 6 866 6 c 0,50,51
 850 6 850 6 635 0 c 1,52,-1
 635 63 l 1,53,54
 744 63 744 63 769.5 76.5 c 128,-1,55
 795 90 795 90 795 156 c 2,56,-1
 795 633 l 2,57,58
 795 737 795 737 763 798.5 c 128,-1,59
 731 860 731 860 643 860 c 0,60,61
 537 860 537 860 452 771 c 128,-1,62
 367 682 367 682 367 532 c 2,63,-1
 367 156 l 2,64,65
 367 90 367 90 392.5 76.5 c 128,-1,66
 418 63 418 63 526 63 c 1,67,-1
 526 0 l 1,68,69
 317 6 317 6 297 6 c 0,70,71
 281 6 281 6 66 0 c 1,0,-1
EndSplineSet
EndChar

StartChar: n
Encoding: 110 110 81
Width: 1136
GlyphClass: 2
Flags: W
LayerCount: 2
Fore
SplineSet
66 0 m 1,0,-1
 66 63 l 1,1,2
 175 63 175 63 200 76.5 c 128,-1,3
 225 90 225 90 225 156 c 2,4,-1
 225 705 l 2,5,6
 225 781 225 781 198.5 800 c 128,-1,7
 172 819 172 819 66 819 c 1,8,-1
 66 883 l 1,9,-1
 354 905 l 1,10,-1
 354 690 l 1,11,12
 450 905 450 905 657 905 c 0,13,14
 811 905 811 905 872 829 c 0,15,16
 917 778 917 778 926.5 721 c 128,-1,17
 936 664 936 664 936 516 c 2,18,-1
 936 125 l 2,19,20
 938 82 938 82 971 72.5 c 128,-1,21
 1004 63 1004 63 1096 63 c 1,22,-1
 1096 0 l 1,23,24
 887 6 887 6 866 6 c 0,25,26
 850 6 850 6 635 0 c 1,27,-1
 635 63 l 1,28,29
 744 63 744 63 769.5 76.5 c 128,-1,30
 795 90 795 90 795 156 c 2,31,-1
 795 633 l 2,32,33
 795 737 795 737 763 798.5 c 128,-1,34
 731 860 731 860 643 860 c 0,35,36
 537 860 537 860 452 771 c 128,-1,37
 367 682 367 682 367 532 c 2,38,-1
 367 156 l 2,39,40
 367 90 367 90 392.5 76.5 c 128,-1,41
 418 63 418 63 526 63 c 1,42,-1
 526 0 l 1,43,44
 317 6 317 6 297 6 c 0,45,46
 281 6 281 6 66 0 c 1,0,-1
EndSplineSet
EndChar

StartChar: o
Encoding: 111 111 82
Width: 1024
GlyphClass: 2
Flags: W
LayerCount: 2
Fore
SplineSet
57 438.5 m 128,-1,1
 57 633 57 633 189.5 775.5 c 128,-1,2
 322 918 322 918 512 918 c 0,3,4
 698 918 698 918 831.5 776.5 c 128,-1,5
 965 635 965 635 965 438 c 0,6,7
 965 245 965 245 830.5 111 c 128,-1,8
 696 -23 696 -23 510 -23 c 0,9,10
 328 -23 328 -23 192.5 110.5 c 128,-1,0
 57 244 57 244 57 438.5 c 128,-1,1
227 455 m 0,11,12
 227 256 227 256 279 166 c 0,13,14
 359 29 359 29 512 29 c 0,15,16
 588 29 588 29 651.5 70 c 128,-1,17
 715 111 715 111 750 180 c 0,18,19
 795 270 795 270 795 455 c 0,20,21
 795 652 795 652 741 739 c 0,22,23
 661 872 661 872 510 872 c 0,24,25
 444 872 444 872 379.5 837.5 c 128,-1,26
 315 803 315 803 276 735 c 0,27,28
 227 645 227 645 227 455 c 0,11,12
EndSplineSet
EndChar

StartChar: p
Encoding: 112 112 83
Width: 1136
GlyphClass: 2
Flags: W
LayerCount: 2
Fore
SplineSet
57 -334 m 1,0,1
 166 -334 166 -334 191.5 -320.5 c 128,-1,2
 217 -307 217 -307 217 -242 c 2,3,-1
 217 717 l 2,4,5
 217 785 217 785 191.5 802 c 128,-1,6
 166 819 166 819 57 819 c 1,7,-1
 57 883 l 1,8,-1
 352 905 l 1,9,-1
 352 770 l 1,10,11
 475 905 475 905 639 905 c 0,12,13
 813 905 813 905 940 770 c 128,-1,14
 1067 635 1067 635 1067 442 c 0,15,16
 1067 247 1067 247 932 112 c 128,-1,17
 797 -23 797 -23 610 -23 c 0,18,19
 508 -23 508 -23 439.5 29.5 c 128,-1,20
 371 82 371 82 358 121 c 1,21,-1
 358 102 l 1,22,-1
 358 -242 l 2,23,24
 358 -308 358 -308 384 -321 c 128,-1,25
 410 -334 410 -334 518 -334 c 1,26,-1
 518 -397 l 1,27,28
 303 -391 303 -391 287 -391 c 0,29,30
 267 -391 267 -391 57 -397 c 1,31,-1
 57 -334 l 1,0,1
358 233 m 2,32,33
 358 202 358 202 362.5 191 c 128,-1,34
 367 180 367 180 387 147 c 0,35,36
 468 23 468 23 600 23 c 0,37,38
 601 23 601 23 602 23 c 0,39,40
 719 23 719 23 808 142.5 c 128,-1,41
 897 262 897 262 897 442 c 0,42,43
 897 614 897 614 816 734 c 128,-1,44
 735 854 735 854 623 854 c 0,45,46
 543 854 543 854 473 811 c 128,-1,47
 403 768 403 768 358 690 c 1,48,-1
 358 233 l 2,32,33
EndSplineSet
EndChar

StartChar: q
Encoding: 113 113 84
Width: 1079
GlyphClass: 2
Flags: W
LayerCount: 2
Fore
SplineSet
70 440 m 0,0,1
 70 637 70 637 205 771 c 128,-1,2
 340 905 340 905 522 905 c 0,3,4
 598 905 598 905 660.5 868 c 128,-1,5
 723 831 723 831 750.5 794.5 c 128,-1,6
 778 758 778 758 797 719 c 1,7,-1
 874 905 l 1,8,-1
 920 905 l 1,9,-1
 920 -242 l 2,10,11
 920 -308 920 -308 945.5 -321 c 128,-1,12
 971 -334 971 -334 1079 -334 c 1,13,-1
 1079 -397 l 1,14,15
 864 -391 864 -391 848 -391 c 0,16,17
 828 -391 828 -391 618 -397 c 1,18,-1
 618 -334 l 1,19,20
 727 -334 727 -334 752.5 -320.5 c 128,-1,21
 778 -307 778 -307 778 -242 c 2,22,-1
 778 125 l 1,23,24
 665 -22 665 -22 506 -23 c 0,25,26
 328 -23 328 -23 199 113.5 c 128,-1,27
 70 250 70 250 70 440 c 0,0,1
240 440 m 0,28,29
 240 264 240 264 320.5 143.5 c 128,-1,30
 401 23 401 23 514 23 c 0,31,32
 625 23 625 23 702 106 c 0,33,34
 784 196 784 196 784 279 c 2,35,-1
 784 567 l 2,36,37
 784 663 784 663 715.5 758.5 c 128,-1,38
 647 854 647 854 535 854 c 0,39,40
 418 854 418 854 329 736 c 128,-1,41
 240 618 240 618 240 440 c 0,28,29
EndSplineSet
EndChar

StartChar: r
Encoding: 114 114 85
Width: 800
GlyphClass: 2
Flags: W
LayerCount: 2
Fore
SplineSet
57 0 m 1,0,-1
 57 63 l 1,1,2
 166 63 166 63 191.5 76.5 c 128,-1,3
 217 90 217 90 217 156 c 2,4,-1
 217 705 l 2,5,6
 217 781 217 781 190.5 800 c 128,-1,7
 164 819 164 819 57 819 c 1,8,-1
 57 883 l 1,9,-1
 342 905 l 1,10,-1
 342 680 l 1,11,12
 371 768 371 768 432.5 836.5 c 128,-1,13
 494 905 494 905 594 905 c 0,14,15
 660 905 660 905 702.5 868 c 128,-1,16
 745 831 745 831 745 780 c 0,17,18
 745 735 745 735 717.5 712.5 c 128,-1,19
 690 690 690 690 657 690 c 0,20,21
 620 690 620 690 594.5 713.5 c 128,-1,22
 569 737 569 737 569 778 c 0,23,24
 569 803 569 803 580.5 822.5 c 128,-1,25
 592 842 592 842 601 849 c 128,-1,26
 610 856 610 856 616 858 c 1,27,28
 612 860 612 860 594 860 c 0,29,30
 481 860 481 860 416.5 747.5 c 128,-1,31
 352 635 352 635 352 475 c 2,32,-1
 352 160 l 2,33,34
 352 101 352 101 376.5 82 c 128,-1,35
 401 63 401 63 508 63 c 2,36,-1
 551 63 l 1,37,-1
 551 0 l 1,38,39
 469 6 469 6 291 6 c 0,40,41
 266 6 266 6 227 5 c 128,-1,42
 188 4 188 4 137 2 c 128,-1,43
 86 0 86 0 57 0 c 1,0,-1
EndSplineSet
EndChar

StartChar: s
Encoding: 115 115 86
Width: 806
GlyphClass: 2
Flags: W
LayerCount: 2
Fore
SplineSet
68 27 m 2,0,-1
 68 297 l 2,1,2
 68 320 68 320 69 328 c 128,-1,3
 70 336 70 336 76 342 c 128,-1,4
 82 348 82 348 94 348 c 0,5,6
 108 348 108 348 113.5 342 c 128,-1,7
 119 336 119 336 123 313 c 0,8,9
 154 172 154 172 220.5 97.5 c 128,-1,10
 287 23 287 23 408 23 c 0,11,12
 523 23 523 23 581 74 c 128,-1,13
 639 125 639 125 639 209 c 0,14,15
 639 359 639 359 426 397 c 0,16,17
 303 422 303 422 252 438.5 c 128,-1,18
 201 455 201 455 156 492 c 0,19,20
 68 564 68 564 68 666 c 128,-1,21
 68 768 68 768 145.5 843 c 128,-1,22
 223 918 223 918 395 918 c 0,23,24
 510 918 510 918 588 860 c 1,25,26
 611 878 611 878 623 893 c 0,27,28
 650 918 650 918 664 918 c 0,29,30
 680 918 680 918 683 907.5 c 128,-1,31
 686 897 686 897 686 868 c 2,32,-1
 686 662 l 2,33,34
 686 639 686 639 685 631 c 128,-1,35
 684 623 684 623 678 617.5 c 128,-1,36
 672 612 672 612 659 612 c 0,37,38
 636 612 636 612 635 631 c 0,39,40
 619 879 619 879 395 879 c 0,41,42
 274 879 274 879 220 832.5 c 128,-1,43
 166 786 166 786 166 723 c 0,44,45
 166 688 166 688 182.5 661.5 c 128,-1,46
 199 635 199 635 220.5 619.5 c 128,-1,47
 242 604 242 604 282 589.5 c 128,-1,48
 322 575 322 575 346.5 570 c 128,-1,49
 371 565 371 565 418 555 c 0,50,51
 582 524 582 524 651 457 c 0,52,53
 737 371 737 371 737 262 c 0,54,55
 737 141 737 141 655 59 c 128,-1,56
 573 -23 573 -23 408 -23 c 0,57,58
 275 -23 275 -23 182 66 c 1,59,60
 170 54 170 54 161 43.5 c 128,-1,61
 152 33 152 33 148.5 29 c 128,-1,62
 145 25 145 25 144 22.5 c 128,-1,63
 143 20 143 20 141 18 c 0,64,65
 100 -23 100 -23 90 -23 c 0,66,67
 74 -23 74 -23 71 -12.5 c 128,-1,68
 68 -2 68 -2 68 27 c 2,0,-1
EndSplineSet
EndChar

StartChar: t
Encoding: 116 116 87
Width: 794
GlyphClass: 2
Flags: W
LayerCount: 2
Fore
SplineSet
39 819 m 1,0,-1
 39 864 l 1,1,2
 133 868 133 868 195.5 934.5 c 128,-1,3
 258 1001 258 1001 279.5 1083 c 128,-1,4
 301 1165 301 1165 303 1260 c 1,5,-1
 354 1260 l 1,6,-1
 354 883 l 1,7,-1
 647 883 l 1,8,-1
 647 819 l 1,9,-1
 354 819 l 1,10,-1
 354 250 l 2,11,12
 354 29 354 29 492 29 c 0,13,14
 551 29 551 29 590 89.5 c 128,-1,15
 629 150 629 150 629 258 c 2,16,-1
 629 371 l 1,17,-1
 680 371 l 1,18,-1
 680 254 l 2,19,20
 680 143 680 143 629 60 c 128,-1,21
 578 -23 578 -23 477 -23 c 0,22,23
 440 -23 440 -23 403.5 -13.5 c 128,-1,24
 367 -4 367 -4 319.5 20.5 c 128,-1,25
 272 45 272 45 242.5 105.5 c 128,-1,26
 213 166 213 166 213 254 c 2,27,-1
 213 819 l 1,28,-1
 39 819 l 1,0,-1
EndSplineSet
EndChar

StartChar: u
Encoding: 117 117 88
Width: 1136
GlyphClass: 2
Flags: W
LayerCount: 2
Fore
SplineSet
66 819 m 1,0,-1
 66 883 l 1,1,-1
 367 905 l 1,2,-1
 367 225 l 2,3,4
 367 176 367 176 371 147.5 c 128,-1,5
 375 119 375 119 391.5 86 c 128,-1,6
 408 53 408 53 446.5 38 c 128,-1,7
 485 23 485 23 547 23 c 0,8,9
 658 23 658 23 726.5 114 c 128,-1,10
 795 205 795 205 795 340 c 2,11,-1
 795 705 l 2,12,13
 795 781 795 781 768 800 c 128,-1,14
 741 819 741 819 635 819 c 1,15,-1
 635 883 l 1,16,-1
 936 905 l 1,17,-1
 936 178 l 2,18,19
 936 102 936 102 962.5 82.5 c 128,-1,20
 989 63 989 63 1096 63 c 1,21,-1
 1096 0 l 1,22,-1
 801 -23 l 1,23,-1
 801 162 l 1,24,25
 715 -22 715 -22 537 -23 c 0,26,27
 447 -23 447 -23 385.5 0 c 128,-1,28
 324 23 324 23 293 51.5 c 128,-1,29
 262 80 262 80 245.5 135 c 128,-1,30
 229 190 229 190 227 224 c 128,-1,31
 225 258 225 258 225 324 c 2,32,-1
 225 631 l 2,33,34
 225 770 225 770 205 794.5 c 128,-1,35
 185 819 185 819 66 819 c 1,0,-1
EndSplineSet
EndChar

StartChar: v
Encoding: 118 118 89
Width: 1079
GlyphClass: 2
Flags: W
LayerCount: 2
Fore
SplineSet
39 819 m 1,0,-1
 39 883 l 1,1,2
 131 877 131 877 238 877 c 0,3,4
 277 877 277 877 461 883 c 1,5,-1
 461 819 l 1,6,7
 344 819 344 819 344 766 c 0,8,9
 344 758 344 758 356 731 c 2,10,-1
 586 160 l 1,11,-1
 795 682 l 2,12,13
 807 717 807 717 807 731 c 0,14,15
 807 766 807 766 783.5 791.5 c 128,-1,16
 760 817 760 817 709 819 c 1,17,-1
 709 883 l 1,18,19
 813 877 813 877 887 877 c 0,20,21
 971 877 971 877 1040 883 c 1,22,-1
 1040 819 l 1,23,24
 979 819 979 819 936 791.5 c 128,-1,25
 893 764 893 764 879.5 740.5 c 128,-1,26
 866 717 866 717 852 682 c 2,27,-1
 584 16 l 2,28,29
 568 -23 568 -23 541 -23 c 0,30,31
 523 -23 523 -23 515.5 -15.5 c 128,-1,32
 508 -8 508 -8 498 16 c 2,33,-1
 203 743 l 2,34,35
 183 794 183 794 157 806.5 c 128,-1,36
 131 819 131 819 39 819 c 1,0,-1
EndSplineSet
EndChar

StartChar: w
Encoding: 119 119 90
Width: 1478
GlyphClass: 2
Flags: W
LayerCount: 2
Fore
SplineSet
37 819 m 1,0,-1
 37 883 l 1,1,2
 148 877 148 877 227 877 c 0,3,4
 266 877 266 877 451 883 c 1,5,-1
 451 819 l 1,6,7
 330 819 330 819 330 764 c 0,8,9
 330 752 330 752 340 727 c 2,10,-1
 535 180 l 1,11,-1
 711 676 l 1,12,13
 674 776 674 776 664 788 c 0,14,15
 639 819 639 819 535 819 c 1,16,-1
 535 883 l 1,17,18
 627 877 627 877 717 877 c 0,19,20
 752 877 752 877 930 883 c 1,21,-1
 930 819 l 1,22,23
 809 819 809 819 809 764 c 0,24,25
 809 756 809 756 819 725 c 2,26,-1
 1022 154 l 1,27,-1
 1208 678 l 2,28,29
 1218 705 1218 705 1219 721 c 0,30,31
 1219 766 1219 766 1187 791.5 c 128,-1,32
 1155 817 1155 817 1100 819 c 1,33,-1
 1100 883 l 1,34,35
 1217 877 1217 877 1290 877 c 0,36,37
 1372 877 1372 877 1440 883 c 1,38,-1
 1440 819 l 1,39,40
 1313 815 1313 815 1268 688 c 2,41,-1
 1028 16 l 1,42,43
 1005 -21 1005 -21 987 -23 c 0,44,45
 960 -23 960 -23 946 16 c 2,46,-1
 737 598 l 1,47,-1
 530 18 l 2,48,49
 522 -7 522 -7 515 -15 c 128,-1,50
 508 -23 508 -23 489.5 -23 c 128,-1,51
 471 -23 471 -23 463 -12.5 c 128,-1,52
 455 -2 455 -2 446 23 c 2,53,-1
 188 748 l 2,54,55
 170 795 170 795 143.5 807 c 128,-1,56
 117 819 117 819 37 819 c 1,0,-1
EndSplineSet
EndChar

StartChar: x
Encoding: 120 120 91
Width: 1079
GlyphClass: 2
Flags: W
LayerCount: 2
Fore
SplineSet
25 0 m 1,0,-1
 25 63 l 1,1,2
 185 63 185 63 287 186 c 1,3,4
 287 186 287 186 479 430 c 1,5,-1
 276 694 l 2,6,7
 204 786 204 786 172.5 802.5 c 128,-1,8
 141 819 141 819 35 819 c 1,9,-1
 35 883 l 1,10,11
 119 877 119 877 229 877 c 0,12,13
 290 877 290 877 451 883 c 1,14,-1
 451 819 l 1,15,16
 379 815 379 815 379 768 c 0,17,18
 379 752 379 752 397 731 c 2,19,-1
 557 524 l 1,20,-1
 684 684 l 2,21,22
 715 721 715 721 715 756 c 0,23,24
 715 813 715 813 655 819 c 1,25,-1
 655 883 l 1,26,27
 735 877 735 877 852 877 c 0,28,29
 940 877 940 877 1020 883 c 1,30,-1
 1020 819 l 1,31,32
 864 815 864 815 776 713 c 0,33,34
 737 670 737 670 588 481 c 1,35,-1
 862 127 l 2,36,37
 895 84 895 84 932 73.5 c 128,-1,38
 969 63 969 63 1057 63 c 1,39,-1
 1057 0 l 1,40,41
 965 6 965 6 860 6 c 0,42,43
 823 6 823 6 639 0 c 1,44,-1
 639 63 l 1,45,46
 676 65 676 65 694.5 81.5 c 128,-1,47
 713 98 713 98 713 115 c 0,48,49
 713 123 713 123 670 182 c 2,50,-1
 514 387 l 1,51,52
 358 203 358 203 338 160 c 0,53,54
 330 142 330 142 330 127 c 0,55,56
 330 72 330 72 389 63 c 1,57,-1
 389 0 l 1,58,59
 242 6 242 6 195 6 c 0,60,61
 105 6 105 6 25 0 c 1,0,-1
EndSplineSet
EndChar

StartChar: y
Encoding: 121 121 92
Width: 1079
GlyphClass: 2
Flags: W
LayerCount: 2
Fore
SplineSet
39 -254 m 0,0,1
 39 -211 39 -211 64.5 -188.5 c 128,-1,2
 90 -166 90 -166 125 -166 c 0,3,4
 162 -166 162 -166 186.5 -189.5 c 128,-1,5
 211 -213 211 -213 211 -252 c 0,6,7
 211 -328 211 -328 131 -338 c 1,8,9
 170 -375 170 -375 227 -375 c 0,10,11
 288 -375 288 -375 337.5 -330 c 128,-1,12
 387 -285 387 -285 408.5 -242 c 128,-1,13
 430 -199 430 -199 461 -121 c 1,14,15
 490 -60 490 -60 512 0 c 1,16,-1
 205 748 l 2,17,18
 185 797 185 797 154 808 c 128,-1,19
 123 819 123 819 39 819 c 1,20,-1
 39 883 l 1,21,22
 131 877 131 877 238 877 c 0,23,24
 301 877 301 877 461 883 c 1,25,-1
 461 819 l 1,26,27
 346 819 346 819 346 766 c 0,28,29
 346 760 346 760 358 729 c 2,30,-1
 586 178 l 1,31,-1
 793 682 l 2,32,33
 805 711 805 711 805 731 c 0,34,35
 805 815 805 815 709 819 c 1,36,-1
 709 883 l 1,37,38
 844 877 844 877 887 877 c 0,39,40
 971 877 971 877 1040 883 c 1,41,-1
 1040 819 l 1,42,43
 903 819 903 819 850 688 c 2,44,-1
 489 -186 l 2,45,46
 391 -419 391 -419 227 -420 c 0,47,48
 149 -420 149 -420 94 -372 c 128,-1,49
 39 -324 39 -324 39 -254 c 0,0,1
EndSplineSet
EndChar

StartChar: z
Encoding: 122 122 93
Width: 909
GlyphClass: 2
Flags: W
LayerCount: 2
Fore
SplineSet
57 29 m 0,0,1
 57 43 57 43 76 66 c 2,2,-1
 647 838 l 1,3,-1
 414 838 l 2,4,5
 252 838 252 838 199.5 778.5 c 128,-1,6
 147 719 147 719 137 553 c 1,7,-1
 86 553 l 1,8,-1
 109 883 l 1,9,-1
 764 883 l 2,10,11
 787 883 787 883 796 882 c 128,-1,12
 805 881 805 881 811 874.5 c 128,-1,13
 817 868 817 868 817 856 c 128,-1,14
 817 844 817 844 799 821 c 2,15,-1
 229 51 l 1,16,-1
 471 51 l 2,17,18
 641 51 641 51 698.5 122 c 128,-1,19
 756 193 756 193 770 383 c 1,20,-1
 821 383 l 1,21,-1
 786 0 l 1,22,-1
 111 0 l 2,23,24
 78 0 78 0 67.5 4.5 c 128,-1,25
 57 9 57 9 57 29 c 0,0,1
EndSplineSet
EndChar

StartChar: braceleft
Encoding: 123 123 94
Width: 1024
GlyphClass: 2
Flags: W
LayerCount: 2
Fore
SplineSet
150 512 m 128,-1,1
 150 520 150 520 153 525 c 128,-1,2
 156 530 156 530 163 532.5 c 128,-1,3
 170 535 170 535 177 536 c 128,-1,4
 184 537 184 537 199.5 539 c 128,-1,5
 215 541 215 541 227 543 c 0,6,7
 301 557 301 557 361.5 607 c 128,-1,8
 422 657 422 657 434 731 c 0,9,10
 438 751 438 751 438 791 c 2,11,-1
 438 1237 l 2,12,13
 438 1343 438 1343 489 1405 c 0,14,15
 544 1473 544 1473 643.5 1504.5 c 128,-1,16
 743 1536 743 1536 834 1536 c 0,17,18
 871 1536 871 1536 870 1513 c 0,19,20
 870 1503 870 1503 864 1498 c 128,-1,21
 858 1493 858 1493 847 1491 c 128,-1,22
 836 1489 836 1489 822.5 1487 c 128,-1,23
 809 1485 809 1485 790.5 1482 c 128,-1,24
 772 1479 772 1479 756 1475 c 0,25,26
 582 1418 582 1418 582 1249 c 2,27,-1
 582 788 l 2,28,29
 582 573 582 573 338 512 c 1,30,31
 582 451 582 451 582 248 c 2,32,-1
 582 -207 l 2,33,34
 582 -256 582 -256 586 -281 c 0,35,36
 600 -351 600 -351 663.5 -402 c 128,-1,37
 727 -453 727 -453 821 -463 c 0,38,39
 870 -469 870 -469 870 -489 c 0,40,41
 870 -512 870 -512 836 -512 c 0,42,43
 691 -512 691 -512 573 -449.5 c 128,-1,44
 455 -387 455 -387 440 -268 c 0,45,46
 438 -248 438 -248 438 -209 c 2,47,-1
 438 240 l 2,48,49
 438 308 438 308 410.5 359 c 128,-1,50
 383 410 383 410 342 434.5 c 128,-1,51
 301 459 301 459 270.5 470 c 128,-1,52
 240 481 240 481 215 485 c 0,53,54
 209 485 209 485 197.5 486 c 128,-1,55
 186 487 186 487 179 488 c 128,-1,56
 172 489 172 489 165 491.5 c 128,-1,57
 158 494 158 494 154 499 c 128,-1,0
 150 504 150 504 150 512 c 128,-1,1
EndSplineSet
EndChar

StartChar: bar
Encoding: 124 124 95
Width: 569
GlyphClass: 2
Flags: W
LayerCount: 2
Fore
SplineSet
242 -449 m 2,0,-1
 242 1458 l 2,1,2
 242 1534 242 1534 283 1534 c 128,-1,3
 324 1534 324 1534 324 1473 c 2,4,-1
 324 -434 l 2,5,6
 324 -510 324 -510 283 -510 c 128,-1,7
 242 -510 242 -510 242 -449 c 2,0,-1
EndSplineSet
EndChar

StartChar: braceright
Encoding: 125 125 96
Width: 1024
GlyphClass: 2
Flags: W
LayerCount: 2
Fore
SplineSet
150 -489 m 0,0,1
 150 -475 150 -475 163 -471 c 128,-1,2
 176 -467 176 -467 208 -463 c 128,-1,3
 240 -459 240 -459 264 -451 c 0,4,5
 438 -394 438 -394 438 -225 c 2,6,-1
 438 236 l 2,7,8
 438 451 438 451 682 512 c 1,9,10
 438 573 438 573 438 774 c 2,11,-1
 438 1231 l 2,12,13
 438 1280 438 1280 434 1305 c 0,14,15
 420 1375 420 1375 356.5 1426 c 128,-1,16
 293 1477 293 1477 199 1487 c 0,17,18
 197 1487 197 1487 187.5 1488 c 128,-1,19
 178 1489 178 1489 174 1490 c 128,-1,20
 170 1491 170 1491 163 1493 c 128,-1,21
 156 1495 156 1495 153 1500 c 128,-1,22
 150 1505 150 1505 150 1511 c 0,23,24
 150 1536 150 1536 184 1536 c 0,25,26
 329 1536 329 1536 447 1473.5 c 128,-1,27
 565 1411 565 1411 580 1292 c 0,28,29
 582 1272 582 1272 582 1233 c 2,30,-1
 582 784 l 2,31,32
 582 716 582 716 608.5 665 c 128,-1,33
 635 614 635 614 677 589.5 c 128,-1,34
 719 565 719 565 747.5 554 c 128,-1,35
 776 543 776 543 805 539 c 0,36,37
 811 539 811 539 822.5 538 c 128,-1,38
 834 537 834 537 841 534.5 c 128,-1,39
 848 532 848 532 855 530 c 128,-1,40
 862 528 862 528 866 523 c 128,-1,41
 870 518 870 518 870 512 c 0,42,43
 870 504 870 504 867 499 c 128,-1,44
 864 494 864 494 856 491.5 c 128,-1,45
 848 489 848 489 839.5 488 c 128,-1,46
 831 487 831 487 817 485 c 128,-1,47
 803 483 803 483 791 481 c 0,48,49
 717 467 717 467 657.5 418 c 128,-1,50
 598 369 598 369 586 293 c 0,51,52
 582 273 582 273 582 233 c 2,53,-1
 582 -213 l 2,54,55
 582 -254 582 -254 578.5 -278.5 c 128,-1,56
 575 -303 575 -303 551.5 -347 c 128,-1,57
 528 -391 528 -391 483 -426 c 0,58,59
 366 -512 366 -512 186 -512 c 0,60,61
 150 -512 150 -512 150 -489 c 0,0,1
EndSplineSet
EndChar

StartChar: asciitilde
Encoding: 126 126 97
Width: 1251
GlyphClass: 2
Flags: W
LayerCount: 2
Fore
SplineSet
170 1204 m 1,0,1
 174 1208 174 1208 197.5 1236 c 128,-1,2
 221 1264 221 1264 228.5 1271 c 128,-1,3
 236 1278 236 1278 257.5 1299.5 c 128,-1,4
 279 1321 279 1321 293 1328 c 128,-1,5
 307 1335 307 1335 329.5 1347.5 c 128,-1,6
 352 1360 352 1360 375.5 1364 c 128,-1,7
 399 1368 399 1368 426 1368 c 0,8,9
 498 1368 498 1368 635 1319 c 128,-1,10
 772 1270 772 1270 844 1270 c 0,11,12
 910 1270 910 1270 952.5 1294.5 c 128,-1,13
 995 1319 995 1319 1044 1368 c 1,14,-1
 1079 1337 l 1,15,16
 1077 1333 1077 1333 1056.5 1309.5 c 128,-1,17
 1036 1286 1036 1286 1031 1280 c 128,-1,18
 1026 1274 1026 1274 1005.5 1254.5 c 128,-1,19
 985 1235 985 1235 976 1229 c 128,-1,20
 967 1223 967 1223 946.5 1208.5 c 128,-1,21
 926 1194 926 1194 909.5 1190 c 128,-1,22
 893 1186 893 1186 870.5 1181 c 128,-1,23
 848 1176 848 1176 823 1176 c 0,24,25
 751 1176 751 1176 614 1224 c 128,-1,26
 477 1272 477 1272 406 1272 c 0,27,28
 340 1272 340 1272 297 1248.5 c 128,-1,29
 254 1225 254 1225 205 1176 c 1,30,-1
 170 1204 l 1,0,1
EndSplineSet
EndChar

StartChar: exclamdown
Encoding: 161 161 99
Width: 569
GlyphClass: 2
Flags: W
LayerCount: 2
Fore
SplineSet
174 -336 m 0,0,1
 174 -320 174 -320 182 -246 c 2,2,-1
 254 588 l 2,3,4
 260 639 260 639 283 639 c 256,5,6
 306 639 306 639 309 604 c 0,7,8
 313 586 313 586 317 520 c 0,9,10
 323 450 323 450 328 403 c 2,11,-1
 387 -295 l 2,12,13
 391 -324 391 -324 391 -336 c 0,14,15
 391 -387 391 -387 357.5 -414.5 c 128,-1,16
 324 -442 324 -442 283 -442 c 0,17,18
 240 -442 240 -442 207 -413.5 c 128,-1,19
 174 -385 174 -385 174 -336 c 0,0,1
174 915 m 0,20,21
 174 962 174 962 207 993 c 128,-1,22
 240 1024 240 1024 283 1024 c 128,-1,23
 326 1024 326 1024 357.5 993.5 c 128,-1,24
 389 963 389 963 389 915 c 0,25,26
 389 870 389 870 356.5 839.5 c 128,-1,27
 324 809 324 809 283 809 c 0,28,29
 236 809 236 809 205 840.5 c 128,-1,30
 174 872 174 872 174 915 c 0,20,21
EndSplineSet
EndChar

StartChar: cent
Encoding: 162 162 100
Width: 1024
GlyphClass: 2
Flags: W
LayerCount: 2
Fore
SplineSet
68 440 m 0,0,1
 68 626 68 626 200 762.5 c 128,-1,2
 332 899 332 899 537 913 c 1,3,-1
 537 1092 l 1,4,-1
 600 1092 l 1,5,-1
 600 913 l 1,6,7
 758 909 758 909 850 853 c 128,-1,8
 942 797 942 797 942 700 c 0,9,10
 942 653 942 653 915.5 627.5 c 128,-1,11
 889 602 889 602 850 602 c 0,12,13
 809 602 809 602 782.5 629.5 c 128,-1,14
 756 657 756 657 756 696 c 0,15,16
 756 776 756 776 848 791 c 1,17,18
 760 857 760 857 600 862 c 1,19,-1
 600 31 l 1,20,21
 686 37 686 37 747.5 63.5 c 128,-1,22
 809 90 809 90 837.5 123 c 128,-1,23
 866 156 866 156 883.5 188.5 c 128,-1,24
 901 221 901 221 912.5 242.5 c 128,-1,25
 924 264 924 264 938 264 c 0,26,27
 963 264 963 264 963 242 c 0,28,29
 963 232 963 232 953.5 207 c 128,-1,30
 944 182 944 182 918.5 144 c 128,-1,31
 893 106 893 106 855 72.5 c 128,-1,32
 817 39 817 39 749.5 12.5 c 128,-1,33
 682 -14 682 -14 600 -20 c 1,34,-1
 600 -199 l 1,35,-1
 537 -199 l 1,36,-1
 537 -20 l 1,37,38
 334 -6 334 -6 201 126 c 128,-1,39
 68 258 68 258 68 440 c 0,0,1
240 442 m 0,40,41
 240 290 240 290 312.5 175.5 c 128,-1,42
 385 61 385 61 537 33 c 1,43,-1
 537 860 l 1,44,45
 400 842 400 842 320 733 c 128,-1,46
 240 624 240 624 240 442 c 0,40,41
EndSplineSet
EndChar

StartChar: sterling
Encoding: 163 163 101
Width: 1308
GlyphClass: 2
Flags: W
LayerCount: 2
Fore
SplineSet
113 98 m 0,0,1
 113 176 113 176 183.5 230.5 c 128,-1,2
 254 285 254 285 356 285 c 2,3,-1
 358 285 l 2,4,5
 413 285 413 285 492 260 c 1,6,7
 496 299 496 299 496 449 c 2,8,-1
 496 680 l 1,9,-1
 373 680 l 2,10,11
 334 680 334 680 326 694 c 0,12,13
 320 704 320 704 319 713 c 0,14,15
 319 744 319 744 369 743 c 2,16,-1
 496 743 l 1,17,-1
 496 1044 l 2,18,19
 496 1239 496 1239 607.5 1342.5 c 128,-1,20
 719 1446 719 1446 852 1446 c 0,21,22
 1002 1446 1002 1446 1097 1330 c 128,-1,23
 1192 1214 1192 1214 1192 1075 c 0,24,25
 1192 1020 1192 1020 1162.5 996.5 c 128,-1,26
 1133 973 1133 973 1098 973 c 0,27,28
 1059 973 1059 973 1031.5 998.5 c 128,-1,29
 1004 1024 1004 1024 1004 1065 c 128,-1,30
 1004 1106 1004 1106 1031.5 1132.5 c 128,-1,31
 1059 1159 1059 1159 1098 1159 c 0,32,33
 1110 1159 1110 1159 1130 1155 c 1,34,35
 1097 1274 1097 1274 1020.5 1336.5 c 128,-1,36
 944 1399 944 1399 856 1399 c 0,37,38
 745 1399 745 1399 682 1290 c 0,39,40
 639 1212 639 1212 639 1036 c 2,41,-1
 639 743 l 1,42,-1
 813 743 l 1,43,44
 866 731 866 731 870 713 c 1,45,46
 870 680 870 680 821 680 c 2,47,-1
 639 680 l 1,48,-1
 639 379 l 2,49,50
 639 289 639 289 610 209 c 1,51,52
 626 201 626 201 689 167 c 128,-1,53
 752 133 752 133 786.5 116.5 c 128,-1,54
 821 100 821 100 875.5 84 c 128,-1,55
 930 68 930 68 975 68 c 0,56,57
 1063 68 1063 68 1122.5 122 c 128,-1,58
 1182 176 1182 176 1194 250 c 0,59,60
 1202 303 1202 303 1221 303 c 0,61,62
 1229 303 1229 303 1235 299 c 0,63,64
 1249 291 1249 291 1249 266 c 0,65,66
 1249 170 1249 170 1167 73.5 c 128,-1,67
 1085 -23 1085 -23 948 -23 c 0,68,69
 919 -23 919 -23 890.5 -18.5 c 128,-1,70
 862 -14 862 -14 828.5 -2 c 128,-1,71
 795 10 795 10 771.5 18.5 c 128,-1,72
 748 27 748 27 710 45 c 128,-1,73
 672 63 672 63 658.5 70.5 c 128,-1,74
 645 78 645 78 605 99.5 c 128,-1,75
 565 121 565 121 563 123 c 1,76,77
 450 -22 450 -22 285 -23 c 0,78,79
 207 -23 207 -23 160 10 c 128,-1,80
 113 43 113 43 113 98 c 0,0,1
190 96 m 0,81,82
 190 65 190 65 219 45 c 128,-1,83
 248 25 248 25 287 25 c 0,84,85
 342 25 342 25 391 62.5 c 128,-1,86
 440 100 440 100 467 166 c 1,87,88
 395 193 395 193 330 193 c 0,89,90
 262 193 262 193 226 163 c 128,-1,91
 190 133 190 133 190 96 c 0,81,82
EndSplineSet
EndChar

StartChar: yen
Encoding: 165 165 102
Width: 1536
GlyphClass: 2
Flags: W
LayerCount: 2
Fore
SplineSet
23 1335 m 1,0,-1
 23 1399 l 1,1,2
 140 1393 140 1393 285 1393 c 0,3,4
 439 1393 439 1393 592 1399 c 1,5,-1
 592 1335 l 1,6,-1
 580 1335 l 2,7,8
 451 1335 451 1335 451 1284 c 0,9,10
 451 1280 451 1280 452 1275 c 128,-1,11
 453 1270 453 1270 457 1261.5 c 128,-1,12
 461 1253 461 1253 467 1243 c 128,-1,13
 473 1233 473 1233 483.5 1215.5 c 128,-1,14
 494 1198 494 1198 505 1179.5 c 128,-1,15
 516 1161 516 1161 535.5 1130.5 c 128,-1,16
 555 1100 555 1100 574.5 1068 c 128,-1,17
 594 1036 594 1036 622.5 989 c 128,-1,18
 651 942 651 942 682 893 c 1,19,-1
 985 893 l 1,20,21
 1182 1215 1182 1215 1188 1229 c 0,22,23
 1192 1241 1192 1241 1192 1257 c 0,24,25
 1192 1331 1192 1331 1077 1335 c 1,26,-1
 1077 1399 l 1,27,28
 1196 1393 1196 1393 1317 1393 c 0,29,30
 1421 1393 1421 1393 1511 1399 c 1,31,-1
 1511 1335 l 1,32,33
 1351 1333 1351 1333 1270 1231 c 0,34,35
 1258 1215 1258 1215 1061 893 c 1,36,-1
 1321 893 l 2,37,38
 1366 893 1366 893 1376 889 c 0,39,40
 1401 879 1401 879 1389 860 c 0,41,42
 1381 846 1381 846 1339 846 c 2,43,-1
 1065 846 l 2,44,45
 1042 846 1042 846 1034 841 c 128,-1,46
 1026 836 1026 836 1010 809 c 0,47,48
 865 573 865 573 860 557 c 0,49,50
 856 547 856 547 856 526 c 2,51,-1
 856 496 l 1,52,-1
 1339 496 l 2,53,54
 1388 496 1388 496 1389 471 c 0,55,56
 1389 448 1389 448 1343 449 c 2,57,-1
 856 449 l 1,58,-1
 856 158 l 2,59,60
 856 95 856 95 889 79 c 128,-1,61
 922 63 922 63 1047 63 c 2,62,-1
 1067 63 l 1,63,-1
 1067 0 l 1,64,65
 809 6 809 6 780 6 c 0,66,67
 622 6 622 6 467 0 c 1,68,-1
 467 63 l 1,69,-1
 487 63 l 2,70,71
 612 63 612 63 645 79.5 c 128,-1,72
 678 96 678 96 678 160 c 2,73,-1
 678 449 l 1,74,-1
 190 449 l 2,75,76
 143 449 143 449 143 471 c 0,77,78
 143 496 143 496 195 496 c 2,79,-1
 678 496 l 1,80,-1
 678 528 l 1,81,-1
 678 530 l 2,82,83
 678 559 678 559 647 608 c 0,84,85
 637 626 637 626 604 680 c 0,86,87
 557 756 557 756 524 809 c 0,88,89
 508 836 508 836 500 841 c 128,-1,90
 492 846 492 846 471 846 c 2,91,-1
 195 846 l 2,92,93
 144 846 144 846 143 870 c 0,94,95
 143 893 143 893 213 893 c 2,96,-1
 473 893 l 1,97,-1
 256 1247 l 2,98,99
 217 1308 217 1308 180 1321.5 c 128,-1,100
 143 1335 143 1335 41 1335 c 2,101,-1
 23 1335 l 1,0,-1
711 846 m 1,102,-1
 834 645 l 1,103,-1
 956 846 l 1,104,-1
 711 846 l 1,102,-1
EndSplineSet
EndChar

StartChar: section
Encoding: 167 167 103
Width: 909
GlyphClass: 2
Flags: W
LayerCount: 2
Fore
SplineSet
141 522 m 0,0,1
 141 706 141 706 303 799 c 1,2,3
 141 955 141 955 141 1126 c 0,4,5
 141 1263 141 1263 234.5 1353.5 c 128,-1,6
 328 1444 328 1444 455 1444 c 0,7,8
 574 1444 574 1444 655.5 1369 c 128,-1,9
 737 1294 737 1294 737 1200 c 0,10,11
 737 1159 737 1159 713.5 1140.5 c 128,-1,12
 690 1122 690 1122 666 1122 c 0,13,14
 637 1122 637 1122 616.5 1142.5 c 128,-1,15
 596 1163 596 1163 596 1194 c 0,16,17
 596 1206 596 1206 601 1220.5 c 128,-1,18
 606 1235 606 1235 624.5 1249.5 c 128,-1,19
 643 1264 643 1264 672 1266 c 1,20,21
 637 1340 637 1340 573.5 1368.5 c 128,-1,22
 510 1397 510 1397 457 1397 c 0,23,24
 355 1397 355 1397 294 1313 c 128,-1,25
 233 1229 233 1229 233 1135 c 0,26,27
 233 1106 233 1106 241.5 1080.5 c 128,-1,28
 250 1055 250 1055 270.5 1033.5 c 128,-1,29
 291 1012 291 1012 305 997.5 c 128,-1,30
 319 983 319 983 353 964.5 c 128,-1,31
 387 946 387 946 398.5 940 c 128,-1,32
 410 934 410 934 446 918 c 2,33,-1
 485 903 l 1,34,35
 630 837 630 837 698 723.5 c 128,-1,36
 766 610 766 610 766 502 c 0,37,38
 766 320 766 320 604 225 c 1,39,40
 766 75 766 75 766 -104 c 0,41,42
 766 -235 766 -235 676 -327.5 c 128,-1,43
 586 -420 586 -420 453 -420 c 0,44,45
 332 -420 332 -420 251 -345 c 128,-1,46
 170 -270 170 -270 170 -178 c 0,47,48
 170 -137 170 -137 193.5 -118.5 c 128,-1,49
 217 -100 217 -100 242 -100 c 0,50,51
 271 -100 271 -100 291 -119.5 c 128,-1,52
 311 -139 311 -139 311 -170 c 0,53,54
 311 -182 311 -182 306 -196.5 c 128,-1,55
 301 -211 301 -211 282.5 -225.5 c 128,-1,56
 264 -240 264 -240 236 -242 c 1,57,58
 271 -318 271 -318 335 -346.5 c 128,-1,59
 399 -375 399 -375 451 -375 c 0,60,61
 553 -375 553 -375 613.5 -292 c 128,-1,62
 674 -209 674 -209 674 -113 c 0,63,64
 674 -84 674 -84 665.5 -58.5 c 128,-1,65
 657 -33 657 -33 636.5 -11.5 c 128,-1,66
 616 10 616 10 602 24.5 c 128,-1,67
 588 39 588 39 554 57.5 c 128,-1,68
 520 76 520 76 509 82 c 128,-1,69
 498 88 498 88 459 102 c 2,70,-1
 422 119 l 2,71,72
 277 185 277 185 209 299 c 128,-1,73
 141 413 141 413 141 522 c 0,0,1
233 528 m 0,74,75
 233 485 233 485 251.5 449.5 c 128,-1,76
 270 414 270 414 306 388 c 128,-1,77
 342 362 342 362 374 346 c 128,-1,78
 406 330 406 330 453 309.5 c 128,-1,79
 500 289 500 289 520.5 278.5 c 128,-1,80
 541 268 541 268 551 268 c 0,81,82
 584 268 584 268 629 338 c 128,-1,83
 674 408 674 408 674 492 c 0,84,85
 674 537 674 537 654.5 572.5 c 128,-1,86
 635 608 635 608 598 635 c 128,-1,87
 561 662 561 662 529.5 678 c 128,-1,88
 498 694 498 694 452 714.5 c 128,-1,89
 406 735 406 735 387 743 c 0,90,91
 367 755 367 755 356 756 c 0,92,93
 319 756 319 756 276 684 c 128,-1,94
 233 612 233 612 233 528 c 0,74,75
EndSplineSet
EndChar

StartChar: dieresis
Encoding: 168 168 104
Width: 1024
GlyphClass: 2
Flags: W
LayerCount: 2
Fore
SplineSet
205 1241 m 0,0,1
 205 1288 205 1288 236.5 1319 c 128,-1,2
 268 1350 268 1350 311 1350 c 0,3,4
 352 1350 352 1350 386 1318 c 128,-1,5
 420 1286 420 1286 420 1241 c 128,-1,6
 420 1196 420 1196 386 1165.5 c 128,-1,7
 352 1135 352 1135 311 1135 c 0,8,9
 264 1135 264 1135 234.5 1166.5 c 128,-1,10
 205 1198 205 1198 205 1241 c 0,0,1
602 1241 m 0,11,12
 602 1288 602 1288 635 1319 c 128,-1,13
 668 1350 668 1350 711 1350 c 128,-1,14
 754 1350 754 1350 785.5 1319 c 128,-1,15
 817 1288 817 1288 817 1241 c 0,16,17
 817 1196 817 1196 784.5 1165.5 c 128,-1,18
 752 1135 752 1135 711 1135 c 0,19,20
 664 1135 664 1135 633 1166.5 c 128,-1,21
 602 1198 602 1198 602 1241 c 0,11,12
EndSplineSet
EndChar

StartChar: copyright
Encoding: 169 169 105
Width: 2275
GlyphClass: 2
Flags: W
LayerCount: 2
Fore
SplineSet
113 512 m 0,0,1
 113 813 113 813 257 1061 c 128,-1,2
 401 1309 401 1309 634.5 1445 c 128,-1,3
 868 1581 868 1581 1137 1581 c 0,4,5
 1340 1581 1340 1581 1527 1498 c 128,-1,6
 1714 1415 1714 1415 1853.5 1274 c 128,-1,7
 1993 1133 1993 1133 2076 933 c 128,-1,8
 2159 733 2159 733 2159 512 c 0,9,10
 2159 289 2159 289 2076 89 c 128,-1,11
 1993 -111 1993 -111 1853.5 -252 c 128,-1,12
 1714 -393 1714 -393 1525.5 -475 c 128,-1,13
 1337 -557 1337 -557 1134.5 -557 c 128,-1,14
 932 -557 932 -557 744.5 -474 c 128,-1,15
 557 -391 557 -391 418 -250 c 128,-1,16
 279 -109 279 -109 196 91 c 128,-1,17
 113 291 113 291 113 512 c 0,0,1
195 510 m 0,18,19
 195 96 195 96 473.5 -189.5 c 128,-1,20
 752 -475 752 -475 1133 -475 c 0,21,22
 1387 -475 1387 -475 1603 -345 c 128,-1,23
 1819 -215 1819 -215 1948 12.5 c 128,-1,24
 2077 240 2077 240 2077 512 c 0,25,26
 2077 786 2077 786 1947 1014.5 c 128,-1,27
 1817 1243 1817 1243 1601.5 1371 c 128,-1,28
 1386 1499 1386 1499 1139 1499 c 0,29,30
 887 1499 887 1499 671 1371 c 128,-1,31
 455 1243 455 1243 325 1013.5 c 128,-1,32
 195 784 195 784 195 510 c 0,18,19
567 489 m 0,33,34
 567 710 567 710 741 867 c 128,-1,35
 915 1024 915 1024 1153 1024 c 0,36,37
 1317 1024 1317 1024 1444 911 c 1,38,-1
 1446 911 l 1,39,40
 1546 1022 1546 1022 1567 1022 c 0,41,42
 1592 1022 1592 1022 1591 979 c 2,43,-1
 1591 643 l 2,44,45
 1591 614 1591 614 1577 600 c 0,46,47
 1548 580 1548 580 1532 610 c 0,48,49
 1532 616 1532 616 1525 647 c 128,-1,50
 1518 678 1518 678 1494 733 c 128,-1,51
 1470 788 1470 788 1434.5 837.5 c 128,-1,52
 1399 887 1399 887 1331.5 924 c 128,-1,53
 1264 961 1264 961 1180 961 c 0,54,55
 1137 961 1137 961 1092 952.5 c 128,-1,56
 1047 944 1047 944 987.5 914.5 c 128,-1,57
 928 885 928 885 884 836.5 c 128,-1,58
 840 788 840 788 809 698 c 128,-1,59
 778 608 778 608 778 492 c 0,60,61
 778 373 778 373 809 284 c 128,-1,62
 840 195 840 195 884 145.5 c 128,-1,63
 928 96 928 96 986 66.5 c 128,-1,64
 1044 37 1044 37 1090.5 27.5 c 128,-1,65
 1137 18 1137 18 1182 18 c 0,66,67
 1319 18 1319 18 1420.5 101 c 128,-1,68
 1522 184 1522 184 1536 317 c 0,69,70
 1542 364 1542 364 1566.5 364.5 c 128,-1,71
 1591 365 1591 365 1591 326 c 0,72,73
 1591 201 1591 201 1473.5 78 c 128,-1,74
 1356 -45 1356 -45 1155 -45 c 0,75,76
 911 -45 911 -45 739 113.5 c 128,-1,77
 567 272 567 272 567 489 c 0,33,34
EndSplineSet
EndChar

StartChar: ordfeminine
Encoding: 170 170 106
Width: 909
GlyphClass: 2
Flags: W
LayerCount: 2
Fore
SplineSet
84 889 m 0,0,1
 84 975 84 975 209 1026 c 128,-1,2
 334 1077 334 1077 553 1081 c 1,3,-1
 553 1174 l 2,4,5
 553 1356 553 1356 503 1439 c 128,-1,6
 453 1522 453 1522 393 1522 c 0,7,8
 332 1522 332 1522 279.5 1471.5 c 128,-1,9
 227 1421 227 1421 205 1321 c 1,10,11
 215 1323 215 1323 238 1323 c 0,12,13
 277 1323 277 1323 304.5 1296.5 c 128,-1,14
 332 1270 332 1270 332 1231 c 128,-1,15
 332 1192 332 1192 305.5 1164.5 c 128,-1,16
 279 1137 279 1137 238 1137 c 0,17,18
 220 1137 220 1137 201 1143 c 128,-1,19
 182 1149 182 1149 162.5 1174.5 c 128,-1,20
 143 1200 143 1200 143 1243 c 0,21,22
 143 1358 143 1358 209.5 1463.5 c 128,-1,23
 276 1569 276 1569 399 1569 c 0,24,25
 505 1569 505 1569 600.5 1473.5 c 128,-1,26
 696 1378 696 1378 696 1184 c 2,27,-1
 696 883 l 2,28,29
 696 865 696 865 700.5 853.5 c 128,-1,30
 705 842 705 842 722 832.5 c 128,-1,31
 739 823 739 823 772 823 c 0,32,33
 819 825 819 825 832.5 837.5 c 128,-1,34
 846 850 846 850 846 881 c 2,35,-1
 846 932 l 1,36,-1
 897 932 l 1,37,-1
 897 885 l 2,38,39
 897 815 897 815 857 787.5 c 128,-1,40
 817 760 817 760 680 758 c 2,41,-1
 653 758 l 2,42,43
 614 760 614 760 597 776.5 c 128,-1,44
 580 793 580 793 569 840 c 1,45,46
 497 746 497 746 350 745 c 0,47,48
 84 746 84 746 84 889 c 0,0,1
94 662 m 0,49,50
 94 687 94 687 133 686 c 2,51,-1
 768 686 l 2,52,53
 813 686 813 686 813 664 c 0,54,55
 813 639 813 639 768 639 c 2,56,-1
 135 639 l 2,57,58
 94 639 94 639 94 662 c 0,49,50
246 889 m 0,59,60
 246 846 246 846 282.5 819.5 c 128,-1,61
 319 793 319 793 373 793 c 0,62,63
 428 793 428 793 476 815.5 c 128,-1,64
 524 838 524 838 543 877 c 0,65,66
 553 900 553 900 553 948 c 2,67,-1
 553 1038 l 1,68,69
 418 1034 418 1034 332 994.5 c 128,-1,70
 246 955 246 955 246 889 c 0,59,60
EndSplineSet
EndChar

StartChar: guillemotleft
Encoding: 171 171 107
Width: 1136
GlyphClass: 2
Flags: W
LayerCount: 2
Fore
SplineSet
231 496 m 0,0,1
 231 508 231 508 264 532 c 0,2,3
 350 593 350 593 418.5 664 c 128,-1,4
 487 735 487 735 524 789.5 c 128,-1,5
 561 844 561 844 587.5 890 c 128,-1,6
 614 936 614 936 630.5 960.5 c 128,-1,7
 647 985 647 985 657 985 c 0,8,9
 675 985 675 985 676 969 c 0,10,11
 676 946 676 946 648.5 880.5 c 128,-1,12
 621 815 621 815 548 703.5 c 128,-1,13
 475 592 475 592 379 494 c 1,14,15
 469 406 469 406 541.5 296 c 128,-1,16
 614 186 614 186 645 115.5 c 128,-1,17
 676 45 676 45 676 23 c 0,18,19
 676 5 676 5 657 4 c 0,20,21
 634 4 634 4 623 41 c 1,22,23
 496 287 496 287 266 455 c 0,24,25
 231 480 231 480 231 496 c 0,0,1
571 493.5 m 128,-1,27
 571 504 571 504 592.5 522.5 c 128,-1,28
 614 541 614 541 654 572.5 c 128,-1,29
 694 604 694 604 741 648 c 128,-1,30
 788 692 788 692 848.5 772 c 128,-1,31
 909 852 909 852 963 950 c 0,32,33
 981 985 981 985 997 985 c 0,34,35
 1017 985 1017 985 1018 969 c 0,36,37
 1018 946 1018 946 990.5 880.5 c 128,-1,38
 963 815 963 815 889 703.5 c 128,-1,39
 815 592 815 592 719 494 c 1,40,41
 809 406 809 406 882.5 296 c 128,-1,42
 956 186 956 186 987 115.5 c 128,-1,43
 1018 45 1018 45 1018 23 c 0,44,45
 1018 5 1018 5 997 4 c 0,46,47
 974 4 974 4 963 41 c 1,48,49
 891 182 891 182 791.5 287.5 c 128,-1,50
 692 393 692 393 631.5 438 c 128,-1,26
 571 483 571 483 571 493.5 c 128,-1,27
EndSplineSet
EndChar

StartChar: logicalnot
Encoding: 172 172 108
Width: 1366
GlyphClass: 2
Flags: W
LayerCount: 2
Fore
SplineSet
115 688 m 128,-1,1
 115 729 115 729 174 729 c 2,2,-1
 1186 729 l 2,3,4
 1223 729 1223 729 1236 714.5 c 128,-1,5
 1249 700 1249 700 1249 662 c 2,6,-1
 1249 250 l 2,7,8
 1249 187 1249 187 1208 186.5 c 128,-1,9
 1167 186 1167 186 1167 244 c 2,10,-1
 1167 647 l 1,11,-1
 180 647 l 2,12,0
 115 647 115 647 115 688 c 128,-1,1
EndSplineSet
EndChar

StartChar: uni00AD
Encoding: 173 173 109
Width: 681
GlyphClass: 2
Flags: W
LayerCount: 2
Fore
SplineSet
20 381 m 1,0,-1
 20 502 l 1,1,-1
 565 502 l 1,2,-1
 565 381 l 1,3,-1
 20 381 l 1,0,-1
EndSplineSet
EndChar

StartChar: registered
Encoding: 174 174 110
Width: 2275
GlyphClass: 2
Flags: W
LayerCount: 2
Fore
SplineSet
113 512 m 0,0,1
 113 813 113 813 257 1061 c 128,-1,2
 401 1309 401 1309 634.5 1445 c 128,-1,3
 868 1581 868 1581 1137 1581 c 0,4,5
 1340 1581 1340 1581 1527 1498 c 128,-1,6
 1714 1415 1714 1415 1853.5 1274 c 128,-1,7
 1993 1133 1993 1133 2076 933 c 128,-1,8
 2159 733 2159 733 2159 512 c 0,9,10
 2159 289 2159 289 2076 89 c 128,-1,11
 1993 -111 1993 -111 1853.5 -252 c 128,-1,12
 1714 -393 1714 -393 1525.5 -475 c 128,-1,13
 1337 -557 1337 -557 1134.5 -557 c 128,-1,14
 932 -557 932 -557 744.5 -474 c 128,-1,15
 557 -391 557 -391 418 -250 c 128,-1,16
 279 -109 279 -109 196 91 c 128,-1,17
 113 291 113 291 113 512 c 0,0,1
195 510 m 0,18,19
 195 96 195 96 473.5 -189.5 c 128,-1,20
 752 -475 752 -475 1133 -475 c 0,21,22
 1387 -475 1387 -475 1603 -345 c 128,-1,23
 1819 -215 1819 -215 1948 12.5 c 128,-1,24
 2077 240 2077 240 2077 512 c 0,25,26
 2077 786 2077 786 1947 1014.5 c 128,-1,27
 1817 1243 1817 1243 1601.5 1371 c 128,-1,28
 1386 1499 1386 1499 1139 1499 c 0,29,30
 887 1499 887 1499 671 1371 c 128,-1,31
 455 1243 455 1243 325 1013.5 c 128,-1,32
 195 784 195 784 195 510 c 0,18,19
496 0 m 1,33,-1
 496 63 l 1,34,-1
 522 63 l 2,35,36
 643 63 643 63 675 80.5 c 128,-1,37
 707 98 707 98 707 160 c 2,38,-1
 707 819 l 2,39,40
 707 882 707 882 675 898.5 c 128,-1,41
 643 915 643 915 520 915 c 2,42,-1
 496 915 l 1,43,-1
 496 979 l 1,44,-1
 1044 979 l 2,45,46
 1306 979 1306 979 1433.5 896 c 128,-1,47
 1561 813 1561 813 1561 715 c 0,48,49
 1561 645 1561 645 1490 583.5 c 128,-1,50
 1419 522 1419 522 1274 485 c 1,51,52
 1331 465 1331 465 1368 441.5 c 128,-1,53
 1405 418 1405 418 1426.5 380 c 128,-1,54
 1448 342 1448 342 1456 314.5 c 128,-1,55
 1464 287 1464 287 1476.5 226.5 c 128,-1,56
 1489 166 1489 166 1499 129 c 0,57,58
 1532 2 1532 2 1612 2 c 0,59,60
 1653 2 1653 2 1681.5 28.5 c 128,-1,61
 1710 55 1710 55 1719.5 87 c 128,-1,62
 1729 119 1729 119 1735 150.5 c 128,-1,63
 1741 182 1741 182 1741 184 c 0,64,65
 1749 198 1749 198 1763 199 c 0,66,67
 1788 199 1788 199 1788 164 c 0,68,69
 1788 141 1788 141 1781 111.5 c 128,-1,70
 1774 82 1774 82 1756.5 44 c 128,-1,71
 1739 6 1739 6 1699 -19.5 c 128,-1,72
 1659 -45 1659 -45 1604 -45 c 0,73,74
 1454 -45 1454 -45 1364 10.5 c 128,-1,75
 1274 66 1274 66 1276 199 c 2,76,-1
 1276 283 l 2,77,78
 1276 375 1276 375 1216.5 421 c 128,-1,79
 1157 467 1157 467 1057 467 c 2,80,-1
 883 467 l 1,81,-1
 883 160 l 2,82,83
 883 97 883 97 916.5 80 c 128,-1,84
 950 63 950 63 1075 63 c 2,85,-1
 1094 63 l 1,86,-1
 1094 0 l 1,87,88
 942 6 942 6 795 6 c 128,-1,89
 648 6 648 6 496 0 c 1,33,-1
883 512 m 1,90,-1
 1036 512 l 2,91,92
 1085 512 1085 512 1119 514 c 128,-1,93
 1153 516 1153 516 1201 527.5 c 128,-1,94
 1249 539 1249 539 1278 559.5 c 128,-1,95
 1307 580 1307 580 1328.5 619.5 c 128,-1,96
 1350 659 1350 659 1350 715 c 0,97,98
 1350 830 1350 830 1277 872.5 c 128,-1,99
 1204 915 1204 915 1057 915 c 2,100,-1
 975 915 l 2,101,102
 914 915 914 915 898.5 897 c 128,-1,103
 883 879 883 879 883 823 c 2,104,-1
 883 512 l 1,90,-1
EndSplineSet
EndChar

StartChar: macron
Encoding: 175 175 111
Width: 1024
GlyphClass: 2
Flags: W
LayerCount: 2
Fore
SplineSet
141 1329 m 1,0,-1
 141 1395 l 1,1,-1
 879 1395 l 1,2,-1
 879 1329 l 1,3,-1
 141 1329 l 1,0,-1
EndSplineSet
EndChar

StartChar: degree
Encoding: 176 176 112
Width: 681
GlyphClass: 2
Flags: W
LayerCount: 2
Fore
SplineSet
113 1171 m 0,0,1
 113 1265 113 1265 179.5 1332 c 128,-1,2
 246 1399 246 1399 340 1399 c 0,3,4
 436 1399 436 1399 501.5 1331.5 c 128,-1,5
 567 1264 567 1264 567 1174 c 0,6,7
 567 1080 567 1080 499.5 1013 c 128,-1,8
 432 946 432 946 340 946 c 0,9,10
 244 946 244 946 178.5 1013.5 c 128,-1,11
 113 1081 113 1081 113 1171 c 0,0,1
195 1171.5 m 128,-1,13
 195 1110 195 1110 238 1069 c 128,-1,14
 281 1028 281 1028 340 1028 c 128,-1,15
 399 1028 399 1028 441 1069 c 128,-1,16
 483 1110 483 1110 483 1171.5 c 128,-1,17
 483 1233 483 1233 440 1275 c 128,-1,18
 397 1317 397 1317 340 1317 c 0,19,20
 281 1317 281 1317 238 1275 c 128,-1,12
 195 1233 195 1233 195 1171.5 c 128,-1,13
EndSplineSet
EndChar

StartChar: plusminus
Encoding: 177 177 113
Width: 1593
GlyphClass: 2
Flags: W
LayerCount: 2
Fore
SplineSet
115 41 m 0,0,1
 115 80 115 80 172 82 c 2,2,-1
 754 82 l 1,3,-1
 754 641 l 1,4,-1
 176 641 l 2,5,6
 115 641 115 641 115 682 c 128,-1,7
 115 723 115 723 176 723 c 2,8,-1
 754 723 l 1,9,-1
 754 1300 l 2,10,11
 754 1361 754 1361 795 1361.5 c 128,-1,12
 836 1362 836 1362 836 1300 c 2,13,-1
 836 723 l 1,14,-1
 1413 723 l 2,15,16
 1474 723 1474 723 1474.5 682 c 128,-1,17
 1475 641 1475 641 1413 641 c 2,18,-1
 836 641 l 1,19,-1
 836 82 l 1,20,-1
 1413 82 l 2,21,22
 1474 82 1474 82 1474.5 41 c 128,-1,23
 1475 0 1475 0 1415 0 c 2,24,-1
 176 0 l 2,25,26
 115 0 115 0 115 41 c 0,0,1
EndSplineSet
EndChar

StartChar: acute
Encoding: 180 180 114
Width: 1024
GlyphClass: 2
Flags: W
LayerCount: 2
Fore
SplineSet
438 1044 m 1,0,1
 493 1097 493 1097 573 1176 c 0,2,3
 671 1274 671 1274 697 1294.5 c 128,-1,4
 723 1315 723 1315 745 1315 c 0,5,6
 776 1315 776 1315 796.5 1290.5 c 128,-1,7
 817 1266 817 1266 817 1239 c 0,8,9
 817 1227 817 1227 813 1217.5 c 128,-1,10
 809 1208 809 1208 804 1201 c 128,-1,11
 799 1194 799 1194 789.5 1187 c 128,-1,12
 780 1180 780 1180 775 1177 c 128,-1,13
 770 1174 770 1174 759 1167.5 c 128,-1,14
 748 1161 748 1161 745 1159 c 0,15,16
 477 1007 477 1007 469 1004 c 1,17,-1
 438 1044 l 1,0,1
EndSplineSet
EndChar

StartChar: uni00B5
Encoding: 181 181 115
Width: 1136
GlyphClass: 2
Flags: W
LayerCount: 2
Fore
SplineSet
63 -336 m 1,0,-1
 84 -336 l 2,1,2
 180 -336 180 -336 201.5 -317.5 c 128,-1,3
 223 -299 223 -299 223 -231 c 2,4,-1
 223 700 l 2,5,6
 223 778 223 778 197.5 796.5 c 128,-1,7
 172 815 172 815 92 819 c 1,8,-1
 63 819 l 1,9,-1
 63 881 l 1,10,-1
 367 903 l 1,11,-1
 367 242 l 2,12,13
 367 189 367 189 370 160 c 128,-1,14
 373 131 373 131 389.5 94 c 128,-1,15
 406 57 406 57 443.5 41 c 128,-1,16
 481 25 481 25 545 25 c 0,17,18
 637 25 637 25 715 103.5 c 128,-1,19
 793 182 793 182 793 356 c 0,20,21
 793 364 793 364 792 381.5 c 128,-1,22
 791 399 791 399 791 408 c 2,23,-1
 791 717 l 2,24,25
 789 780 789 780 759 799.5 c 128,-1,26
 729 819 729 819 643 819 c 2,27,-1
 633 819 l 1,28,-1
 633 881 l 1,29,-1
 934 903 l 1,30,-1
 934 170 l 2,31,32
 934 102 934 102 963.5 82.5 c 128,-1,33
 993 63 993 63 1083 63 c 2,34,-1
 1094 63 l 1,35,-1
 1094 0 l 1,36,-1
 797 -23 l 1,37,-1
 797 158 l 1,38,39
 715 -22 715 -22 532 -23 c 0,40,41
 446 -23 446 -23 367 4 c 1,42,-1
 367 -244 l 2,43,44
 367 -303 367 -303 391.5 -319.5 c 128,-1,45
 416 -336 416 -336 514 -336 c 2,46,-1
 524 -336 l 1,47,-1
 524 -399 l 1,48,49
 405 -393 405 -393 287 -393 c 2,50,-1
 279 -393 l 2,51,52
 183 -393 183 -393 63 -399 c 1,53,-1
 63 -336 l 1,0,-1
EndSplineSet
EndChar

StartChar: paragraph
Encoding: 182 182 116
Width: 1251
GlyphClass: 2
Flags: W
LayerCount: 2
Fore
SplineSet
113 948 m 0,0,1
 113 1024 113 1024 142.5 1103 c 128,-1,2
 172 1182 172 1182 232.5 1255.5 c 128,-1,3
 293 1329 293 1329 402.5 1375 c 128,-1,4
 512 1421 512 1421 651 1421 c 2,5,-1
 1122 1421 l 2,6,7
 1190 1421 1190 1421 1190 1380 c 128,-1,8
 1190 1339 1190 1339 1126 1339 c 2,9,-1
 1022 1339 l 1,10,-1
 1022 -317 l 1,11,-1
 1118 -317 l 2,12,13
 1190 -317 1190 -317 1190 -358 c 128,-1,14
 1190 -399 1190 -399 1130 -399 c 2,15,-1
 608 -399 l 2,16,17
 549 -399 549 -399 549 -358 c 0,18,19
 549 -315 549 -315 608 -315 c 0,20,21
 612 -315 612 -315 617.5 -316 c 128,-1,22
 623 -317 623 -317 625 -317 c 2,23,-1
 717 -317 l 1,24,-1
 717 471 l 1,25,26
 461 483 461 483 287 612 c 128,-1,27
 113 741 113 741 113 948 c 0,0,1
799 -317 m 1,28,-1
 940 -317 l 1,29,-1
 940 1339 l 1,30,-1
 799 1339 l 1,31,-1
 799 -317 l 1,28,-1
EndSplineSet
EndChar

StartChar: periodcentered
Encoding: 183 183 117
Width: 569
GlyphClass: 2
Flags: W
LayerCount: 2
Fore
SplineSet
174 496 m 128,-1,1
 174 539 174 539 205 570.5 c 128,-1,2
 236 602 236 602 283 602 c 0,3,4
 328 602 328 602 358.5 572.5 c 128,-1,5
 389 543 389 543 389 495.5 c 128,-1,6
 389 448 389 448 356.5 417.5 c 128,-1,7
 324 387 324 387 283 387 c 0,8,9
 236 387 236 387 205 420 c 128,-1,0
 174 453 174 453 174 496 c 128,-1,1
EndSplineSet
EndChar

StartChar: cedilla
Encoding: 184 184 118
Width: 909
GlyphClass: 2
Flags: W
LayerCount: 2
Fore
SplineSet
211 -371 m 1,0,-1
 236 -371 l 2,1,2
 394 -371 394 -371 472.5 -346.5 c 128,-1,3
 551 -322 551 -322 551 -258 c 0,4,5
 551 -217 551 -217 512 -183.5 c 128,-1,6
 473 -150 473 -150 383 -145 c 1,7,-1
 383 0 l 1,8,-1
 526 0 l 1,9,-1
 526 -111 l 1,10,11
 694 -150 694 -150 694 -258 c 0,12,13
 694 -418 694 -418 301 -418 c 2,14,-1
 211 -418 l 1,15,-1
 211 -371 l 1,0,-1
EndSplineSet
EndChar

StartChar: ordmasculine
Encoding: 186 186 119
Width: 909
GlyphClass: 2
Flags: W
LayerCount: 2
Fore
SplineSet
55 1149 m 0,0,1
 55 1325 55 1325 173 1447 c 128,-1,2
 291 1569 291 1569 452.5 1569 c 128,-1,3
 614 1569 614 1569 732 1447 c 128,-1,4
 850 1325 850 1325 850 1149 c 0,5,6
 850 981 850 981 735.5 863 c 128,-1,7
 621 745 621 745 453 745 c 128,-1,8
 285 745 285 745 170 864 c 128,-1,9
 55 983 55 983 55 1149 c 0,0,1
94 662 m 0,10,11
 94 687 94 687 131 686 c 2,12,-1
 766 686 l 2,13,14
 813 686 813 686 813 664 c 0,15,16
 813 639 813 639 766 639 c 2,17,-1
 135 639 l 2,18,19
 94 639 94 639 94 662 c 0,10,11
227 1155 m 2,20,21
 227 1087 227 1087 229 1049.5 c 128,-1,22
 231 1012 231 1012 248.5 955.5 c 128,-1,23
 266 899 266 899 301 864 c 0,24,25
 362 798 362 798 453 799 c 0,26,27
 549 799 549 799 612 870 c 0,28,29
 680 948 680 948 680 1147 c 2,30,-1
 680 1192 l 2,31,32
 680 1288 680 1288 665.5 1350.5 c 128,-1,33
 651 1413 651 1413 604 1460 c 0,34,35
 543 1521 543 1521 453 1522 c 0,36,37
 355 1522 355 1522 291 1448 c 0,38,39
 262 1413 262 1413 246.5 1363 c 128,-1,40
 231 1313 231 1313 229 1278 c 128,-1,41
 227 1243 227 1243 227 1180 c 2,42,-1
 227 1155 l 2,20,21
EndSplineSet
EndChar

StartChar: guillemotright
Encoding: 187 187 120
Width: 1136
GlyphClass: 2
Flags: W
LayerCount: 2
Fore
SplineSet
117 22.5 m 128,-1,1
 117 41 117 41 141.5 102.5 c 128,-1,2
 166 164 166 164 239.5 278.5 c 128,-1,3
 313 393 313 393 416 496 c 1,4,5
 326 584 326 584 253 693.5 c 128,-1,6
 180 803 180 803 148.5 873.5 c 128,-1,7
 117 944 117 944 117 967 c 0,8,9
 117 985 117 985 135 985 c 0,10,11
 151 985 151 985 170 950 c 0,12,13
 244 807 244 807 343 701.5 c 128,-1,14
 442 596 442 596 502.5 552 c 128,-1,15
 563 508 563 508 563 496 c 0,16,17
 563 486 563 486 540.5 467.5 c 128,-1,18
 518 449 518 449 477 416 c 128,-1,19
 436 383 436 383 388 338 c 128,-1,20
 340 293 340 293 280.5 214 c 128,-1,21
 221 135 221 135 170 41 c 0,22,23
 150 4 150 4 135 4 c 0,24,0
 117 4 117 4 117 22.5 c 128,-1,1
457 22.5 m 128,-1,26
 457 41 457 41 481.5 102.5 c 128,-1,27
 506 164 506 164 579.5 277.5 c 128,-1,28
 653 391 653 391 756 496 c 1,29,30
 666 584 666 584 593 693.5 c 128,-1,31
 520 803 520 803 488.5 873.5 c 128,-1,32
 457 944 457 944 457 967 c 0,33,34
 457 985 457 985 477 985 c 0,35,36
 493 985 493 985 512 950 c 0,37,38
 586 807 586 807 685 701.5 c 128,-1,39
 784 596 784 596 843.5 552 c 128,-1,40
 903 508 903 508 903 496 c 0,41,42
 903 486 903 486 880.5 467.5 c 128,-1,43
 858 449 858 449 817 416 c 128,-1,44
 776 383 776 383 729 338 c 128,-1,45
 682 293 682 293 622.5 214 c 128,-1,46
 563 135 563 135 512 41 c 0,47,48
 492 4 492 4 477 4 c 0,49,25
 457 4 457 4 457 22.5 c 128,-1,26
EndSplineSet
EndChar

StartChar: questiondown
Encoding: 191 191 121
Width: 966
GlyphClass: 2
Flags: W
LayerCount: 2
Fore
SplineSet
113 -141 m 0,0,1
 113 -88 113 -88 130 -44 c 128,-1,2
 147 0 147 0 164.5 21.5 c 128,-1,3
 182 43 182 43 220 77 c 128,-1,4
 258 111 258 111 268 123 c 0,5,6
 428 293 428 293 428 563 c 2,7,-1
 428 594 l 2,8,9
 426 641 426 641 455 641 c 0,10,11
 482 641 482 641 481 586 c 2,12,-1
 481 573 l 2,13,14
 481 428 481 428 455.5 304 c 128,-1,15
 430 180 430 180 348 57 c 0,16,17
 323 24 323 24 313 6 c 128,-1,18
 303 -12 303 -12 294 -54 c 128,-1,19
 285 -96 285 -96 285 -156 c 0,20,21
 285 -197 285 -197 286 -219.5 c 128,-1,22
 287 -242 287 -242 296 -275.5 c 128,-1,23
 305 -309 305 -309 322.5 -327.5 c 128,-1,24
 340 -346 340 -346 375 -360.5 c 128,-1,25
 410 -375 410 -375 459 -375 c 0,26,27
 674 -375 674 -375 774 -236 c 1,28,-1
 764 -236 l 2,29,30
 713 -236 713 -236 688.5 -207 c 128,-1,31
 664 -178 664 -178 664 -141 c 0,32,33
 664 -100 664 -100 690.5 -74.5 c 128,-1,34
 717 -49 717 -49 756 -49 c 0,35,36
 789 -49 789 -49 820.5 -72.5 c 128,-1,37
 852 -96 852 -96 852 -150 c 0,38,39
 852 -269 852 -269 736.5 -344.5 c 128,-1,40
 621 -420 621 -420 461 -420 c 0,41,42
 357 -420 357 -420 283 -392.5 c 128,-1,43
 209 -365 209 -365 175 -319.5 c 128,-1,44
 141 -274 141 -274 127 -231 c 128,-1,45
 113 -188 113 -188 113 -141 c 0,0,1
346 915 m 0,46,47
 346 962 346 962 379 993 c 128,-1,48
 412 1024 412 1024 455 1024 c 128,-1,49
 498 1024 498 1024 529.5 993.5 c 128,-1,50
 561 963 561 963 561 915 c 0,51,52
 561 870 561 870 528.5 839.5 c 128,-1,53
 496 809 496 809 455 809 c 0,54,55
 408 809 408 809 377 840.5 c 128,-1,56
 346 872 346 872 346 915 c 0,46,47
EndSplineSet
EndChar

StartChar: Agrave
Encoding: 192 192 122
Width: 1536
GlyphClass: 2
Flags: W
LayerCount: 2
Fore
SplineSet
66 0 m 1,0,-1
 66 63 l 1,1,2
 248 67 248 67 295 201 c 2,3,-1
 719 1425 l 2,4,5
 727 1450 727 1450 736 1458 c 128,-1,6
 745 1466 745 1466 768 1466 c 0,7,8
 780 1466 780 1466 787.5 1464 c 128,-1,9
 795 1462 795 1462 800 1455 c 128,-1,10
 805 1448 805 1448 807 1444 c 128,-1,11
 809 1440 809 1440 815 1425 c 2,12,-1
 1257 145 l 2,13,14
 1273 94 1273 94 1306 78.5 c 128,-1,15
 1339 63 1339 63 1432 63 c 2,16,-1
 1468 63 l 1,17,-1
 1468 0 l 1,18,19
 1339 6 1339 6 1200 6 c 0,20,21
 979 6 979 6 905 0 c 1,22,-1
 905 63 l 1,23,24
 1075 63 1075 63 1075 125 c 0,25,26
 1075 129 1075 129 1069 154 c 2,27,-1
 961 467 l 1,28,-1
 455 467 l 1,29,-1
 360 199 l 2,30,31
 356 191 356 191 356 168 c 0,32,33
 356 125 356 125 396 94 c 128,-1,34
 436 63 436 63 510 63 c 1,35,-1
 510 0 l 1,36,37
 313 6 313 6 274 6 c 0,38,39
 207 6 207 6 66 0 c 1,0,-1
477 530 m 1,40,-1
 938 530 l 1,41,-1
 707 1196 l 1,42,-1
 477 530 l 1,40,-1
479 1690 m 0,43,44
 479 1717 479 1717 498.5 1741 c 128,-1,45
 518 1765 518 1765 549 1765 c 0,46,47
 569 1765 569 1765 610 1741.5 c 128,-1,48
 651 1718 651 1718 893 1567 c 1,49,-1
 870 1518 l 1,50,51
 856 1522 856 1522 565 1612 c 0,52,53
 536 1620 536 1620 523 1626 c 128,-1,54
 510 1632 510 1632 494.5 1648.5 c 128,-1,55
 479 1665 479 1665 479 1690 c 0,43,44
EndSplineSet
EndChar

StartChar: Aacute
Encoding: 193 193 123
Width: 1536
GlyphClass: 2
Flags: W
LayerCount: 2
Fore
SplineSet
66 0 m 1,0,-1
 66 63 l 1,1,2
 248 67 248 67 295 201 c 2,3,-1
 719 1425 l 2,4,5
 727 1450 727 1450 736 1458 c 128,-1,6
 745 1466 745 1466 768 1466 c 0,7,8
 780 1466 780 1466 787.5 1464 c 128,-1,9
 795 1462 795 1462 800 1455 c 128,-1,10
 805 1448 805 1448 807 1444 c 128,-1,11
 809 1440 809 1440 815 1425 c 2,12,-1
 1257 145 l 2,13,14
 1273 94 1273 94 1306 78.5 c 128,-1,15
 1339 63 1339 63 1432 63 c 2,16,-1
 1468 63 l 1,17,-1
 1468 0 l 1,18,19
 1339 6 1339 6 1200 6 c 0,20,21
 979 6 979 6 905 0 c 1,22,-1
 905 63 l 1,23,24
 1075 63 1075 63 1075 125 c 0,25,26
 1075 129 1075 129 1069 154 c 2,27,-1
 961 467 l 1,28,-1
 455 467 l 1,29,-1
 360 199 l 2,30,31
 356 191 356 191 356 168 c 0,32,33
 356 125 356 125 396 94 c 128,-1,34
 436 63 436 63 510 63 c 1,35,-1
 510 0 l 1,36,37
 313 6 313 6 274 6 c 0,38,39
 207 6 207 6 66 0 c 1,0,-1
477 530 m 1,40,-1
 938 530 l 1,41,-1
 707 1196 l 1,42,-1
 477 530 l 1,40,-1
586 1567 m 1,43,44
 893 1757 893 1757 913 1763 c 0,45,46
 919 1765 919 1765 930 1765 c 0,47,48
 959 1765 959 1765 979 1740.5 c 128,-1,49
 999 1716 999 1716 999 1689 c 0,50,51
 999 1630 999 1630 913 1614 c 1,52,53
 634 1528 634 1528 606 1519 c 1,54,-1
 586 1567 l 1,43,44
EndSplineSet
EndChar

StartChar: Acircumflex
Encoding: 194 194 124
Width: 1536
GlyphClass: 2
Flags: W
LayerCount: 2
Fore
SplineSet
66 0 m 1,0,-1
 66 63 l 1,1,2
 248 67 248 67 295 201 c 2,3,-1
 719 1425 l 2,4,5
 727 1450 727 1450 736 1458 c 128,-1,6
 745 1466 745 1466 768 1466 c 0,7,8
 780 1466 780 1466 787.5 1464 c 128,-1,9
 795 1462 795 1462 800 1455 c 128,-1,10
 805 1448 805 1448 807 1444 c 128,-1,11
 809 1440 809 1440 815 1425 c 2,12,-1
 1257 145 l 2,13,14
 1273 94 1273 94 1306 78.5 c 128,-1,15
 1339 63 1339 63 1432 63 c 2,16,-1
 1468 63 l 1,17,-1
 1468 0 l 1,18,19
 1339 6 1339 6 1200 6 c 0,20,21
 979 6 979 6 905 0 c 1,22,-1
 905 63 l 1,23,24
 1075 63 1075 63 1075 125 c 0,25,26
 1075 129 1075 129 1069 154 c 2,27,-1
 961 467 l 1,28,-1
 455 467 l 1,29,-1
 360 199 l 2,30,31
 356 191 356 191 356 168 c 0,32,33
 356 125 356 125 396 94 c 128,-1,34
 436 63 436 63 510 63 c 1,35,-1
 510 0 l 1,36,37
 313 6 313 6 274 6 c 0,38,39
 207 6 207 6 66 0 c 1,0,-1
477 530 m 1,40,-1
 938 530 l 1,41,-1
 707 1196 l 1,42,-1
 477 530 l 1,40,-1
494 1559 m 1,43,-1
 766 1847 l 1,44,-1
 768 1847 l 1,45,-1
 1040 1559 l 1,46,-1
 1006 1524 l 1,47,-1
 1004 1524 l 1,48,-1
 768 1739 l 1,49,-1
 766 1739 l 1,50,-1
 530 1524 l 1,51,-1
 528 1524 l 1,52,-1
 494 1559 l 1,43,-1
EndSplineSet
EndChar

StartChar: Atilde
Encoding: 195 195 125
Width: 1536
GlyphClass: 2
Flags: W
LayerCount: 2
Fore
SplineSet
66 0 m 1,0,-1
 66 63 l 1,1,2
 248 67 248 67 295 201 c 2,3,-1
 719 1425 l 2,4,5
 727 1450 727 1450 736 1458 c 128,-1,6
 745 1466 745 1466 768 1466 c 0,7,8
 780 1466 780 1466 787.5 1464 c 128,-1,9
 795 1462 795 1462 800 1455 c 128,-1,10
 805 1448 805 1448 807 1444 c 128,-1,11
 809 1440 809 1440 815 1425 c 2,12,-1
 1257 145 l 2,13,14
 1273 94 1273 94 1306 78.5 c 128,-1,15
 1339 63 1339 63 1432 63 c 2,16,-1
 1468 63 l 1,17,-1
 1468 0 l 1,18,19
 1339 6 1339 6 1200 6 c 0,20,21
 979 6 979 6 905 0 c 1,22,-1
 905 63 l 1,23,24
 1075 63 1075 63 1075 125 c 0,25,26
 1075 129 1075 129 1069 154 c 2,27,-1
 961 467 l 1,28,-1
 455 467 l 1,29,-1
 360 199 l 2,30,31
 356 191 356 191 356 168 c 0,32,33
 356 125 356 125 396 94 c 128,-1,34
 436 63 436 63 510 63 c 1,35,-1
 510 0 l 1,36,37
 313 6 313 6 274 6 c 0,38,39
 207 6 207 6 66 0 c 1,0,-1
369 1685 m 1,40,41
 373 1689 373 1689 391.5 1710.5 c 128,-1,42
 410 1732 410 1732 415 1737.5 c 128,-1,43
 420 1743 420 1743 437.5 1760.5 c 128,-1,44
 455 1778 455 1778 463 1783 c 128,-1,45
 471 1788 471 1788 488.5 1799 c 128,-1,46
 506 1810 506 1810 520.5 1813 c 128,-1,47
 535 1816 535 1816 554 1820.5 c 128,-1,48
 573 1825 573 1825 594 1825 c 0,49,50
 649 1825 649 1825 776 1787 c 128,-1,51
 903 1749 903 1749 961 1749 c 0,52,53
 1049 1749 1049 1749 1130 1827 c 1,54,-1
 1165 1794 l 1,55,56
 1161 1790 1161 1790 1139.5 1764.5 c 128,-1,57
 1118 1739 1118 1739 1112 1733.5 c 128,-1,58
 1106 1728 1106 1728 1086.5 1708.5 c 128,-1,59
 1067 1689 1067 1689 1055.5 1684 c 128,-1,60
 1044 1679 1044 1679 1025 1669 c 128,-1,61
 1006 1659 1006 1659 985.5 1656 c 128,-1,62
 965 1653 965 1653 940 1653 c 0,63,64
 883 1653 883 1653 756 1691.5 c 128,-1,65
 629 1730 629 1730 573 1730 c 0,66,67
 485 1730 485 1730 403 1653 c 1,68,-1
 369 1685 l 1,40,41
477 530 m 1,69,-1
 938 530 l 1,70,-1
 707 1196 l 1,71,-1
 477 530 l 1,69,-1
EndSplineSet
EndChar

StartChar: Adieresis
Encoding: 196 196 126
Width: 1536
GlyphClass: 2
Flags: W
LayerCount: 2
Fore
SplineSet
66 0 m 1,0,-1
 66 63 l 1,1,2
 248 67 248 67 295 201 c 2,3,-1
 719 1425 l 2,4,5
 727 1450 727 1450 736 1458 c 128,-1,6
 745 1466 745 1466 768 1466 c 0,7,8
 780 1466 780 1466 787.5 1464 c 128,-1,9
 795 1462 795 1462 800 1455 c 128,-1,10
 805 1448 805 1448 807 1444 c 128,-1,11
 809 1440 809 1440 815 1425 c 2,12,-1
 1257 145 l 2,13,14
 1273 94 1273 94 1306 78.5 c 128,-1,15
 1339 63 1339 63 1432 63 c 2,16,-1
 1468 63 l 1,17,-1
 1468 0 l 1,18,19
 1339 6 1339 6 1200 6 c 0,20,21
 979 6 979 6 905 0 c 1,22,-1
 905 63 l 1,23,24
 1075 63 1075 63 1075 125 c 0,25,26
 1075 129 1075 129 1069 154 c 2,27,-1
 961 467 l 1,28,-1
 455 467 l 1,29,-1
 360 199 l 2,30,31
 356 191 356 191 356 168 c 0,32,33
 356 125 356 125 396 94 c 128,-1,34
 436 63 436 63 510 63 c 1,35,-1
 510 0 l 1,36,37
 313 6 313 6 274 6 c 0,38,39
 207 6 207 6 66 0 c 1,0,-1
461 1665 m 0,40,41
 461 1708 461 1708 491.5 1741 c 128,-1,42
 522 1774 522 1774 567 1774 c 0,43,44
 608 1774 608 1774 642 1742 c 128,-1,45
 676 1710 676 1710 676 1665 c 128,-1,46
 676 1620 676 1620 642 1589.5 c 128,-1,47
 608 1559 608 1559 567 1559 c 0,48,49
 522 1559 522 1559 491.5 1591.5 c 128,-1,50
 461 1624 461 1624 461 1665 c 0,40,41
477 530 m 1,51,-1
 938 530 l 1,52,-1
 707 1196 l 1,53,-1
 477 530 l 1,51,-1
858 1665 m 0,54,55
 858 1712 858 1712 890 1743 c 128,-1,56
 922 1774 922 1774 965 1774 c 0,57,58
 1012 1774 1012 1774 1042.5 1741 c 128,-1,59
 1073 1708 1073 1708 1073 1667 c 0,60,61
 1073 1624 1073 1624 1042.5 1591.5 c 128,-1,62
 1012 1559 1012 1559 967 1559 c 0,63,64
 926 1559 926 1559 892 1589.5 c 128,-1,65
 858 1620 858 1620 858 1665 c 0,54,55
EndSplineSet
EndChar

StartChar: Aring
Encoding: 197 197 127
Width: 1536
GlyphClass: 2
Flags: W
LayerCount: 2
Fore
SplineSet
66 0 m 1,0,-1
 66 63 l 1,1,2
 132 65 132 65 175.5 77.5 c 128,-1,3
 219 90 219 90 244.5 122 c 128,-1,4
 270 154 270 154 280.5 175.5 c 128,-1,5
 291 197 291 197 309 248 c 2,6,-1
 674 1294 l 2,7,8
 680 1317 680 1317 696.5 1361 c 128,-1,9
 713 1405 713 1405 719 1427 c 1,10,11
 572 1484 572 1484 571 1647 c 0,12,13
 571 1733 571 1733 624.5 1801.5 c 128,-1,14
 678 1870 678 1870 766 1870 c 0,15,16
 852 1870 852 1870 907.5 1802.5 c 128,-1,17
 963 1735 963 1735 963 1647 c 0,18,19
 963 1485 963 1485 815 1427 c 1,20,-1
 1245 184 l 2,21,22
 1276 98 1276 98 1305.5 80.5 c 128,-1,23
 1335 63 1335 63 1460 63 c 2,24,-1
 1468 63 l 1,25,-1
 1468 0 l 1,26,27
 1337 6 1337 6 1206 6 c 0,28,29
 1056 6 1056 6 905 0 c 1,30,-1
 905 63 l 1,31,-1
 909 63 l 2,32,33
 1071 63 1071 63 1071 129 c 0,34,35
 1071 145 1071 145 961 467 c 1,36,-1
 453 467 l 1,37,38
 441 426 441 426 414 352.5 c 128,-1,39
 387 279 387 279 371.5 230.5 c 128,-1,40
 356 182 356 182 356 166 c 0,41,42
 356 129 356 129 392 97.5 c 128,-1,43
 428 66 428 66 508 63 c 1,44,-1
 508 0 l 1,45,46
 389 6 389 6 268 6 c 0,47,48
 168 6 168 6 66 0 c 1,0,-1
475 530 m 1,49,-1
 938 530 l 1,50,-1
 707 1196 l 1,51,-1
 475 530 l 1,49,-1
623 1649 m 0,52,53
 623 1547 623 1547 667 1507.5 c 128,-1,54
 711 1468 711 1468 768 1468 c 128,-1,55
 825 1468 825 1468 868 1507 c 128,-1,56
 911 1546 911 1546 911 1645 c 0,57,58
 911 1747 911 1747 867 1786 c 128,-1,59
 823 1825 823 1825 766 1825 c 128,-1,60
 709 1825 709 1825 666 1786 c 128,-1,61
 623 1747 623 1747 623 1649 c 0,52,53
EndSplineSet
EndChar

StartChar: AE
Encoding: 198 198 128
Width: 1849
GlyphClass: 2
Flags: W
LayerCount: 2
Fore
SplineSet
66 0 m 1,0,-1
 66 63 l 1,1,2
 132 65 132 65 175.5 78.5 c 128,-1,3
 219 92 219 92 245.5 123 c 128,-1,4
 272 154 272 154 284.5 176.5 c 128,-1,5
 297 199 297 199 313 248 c 2,6,-1
 705 1333 l 1,7,-1
 528 1335 l 1,8,-1
 528 1399 l 1,9,-1
 1677 1399 l 1,10,-1
 1735 938 l 1,11,-1
 1681 938 l 1,12,13
 1671 1022 1671 1022 1662 1068 c 128,-1,14
 1653 1114 1653 1114 1636.5 1166.5 c 128,-1,15
 1620 1219 1620 1219 1595.5 1244.5 c 128,-1,16
 1571 1270 1571 1270 1531 1294.5 c 128,-1,17
 1491 1319 1491 1319 1435.5 1327 c 128,-1,18
 1380 1335 1380 1335 1300 1335 c 2,19,-1
 1157 1335 l 2,20,21
 1153 1335 1153 1335 1141.5 1336 c 128,-1,22
 1130 1337 1130 1337 1122 1337 c 0,23,24
 1056 1337 1056 1337 1039 1318.5 c 128,-1,25
 1022 1300 1022 1300 1022 1255 c 2,26,-1
 1022 705 l 1,27,-1
 1176 705 l 2,28,29
 1225 705 1225 705 1253.5 708 c 128,-1,30
 1282 711 1282 711 1318 722 c 128,-1,31
 1354 733 1354 733 1374.5 762 c 128,-1,32
 1395 791 1395 791 1401 836 c 0,33,34
 1407 871 1407 871 1407 942 c 1,35,-1
 1458 942 l 1,36,-1
 1458 401 l 1,37,-1
 1407 401 l 1,38,-1
 1407 424 l 2,39,40
 1407 563 1407 563 1357 602 c 128,-1,41
 1307 641 1307 641 1176 641 c 2,42,-1
 1022 641 l 1,43,-1
 1022 139 l 2,44,45
 1024 90 1024 90 1046.5 76.5 c 128,-1,46
 1069 63 1069 63 1128 63 c 2,47,-1
 1313 63 l 2,48,49
 1387 63 1387 63 1443 74.5 c 128,-1,50
 1499 86 1499 86 1539 101.5 c 128,-1,51
 1579 117 1579 117 1609.5 152.5 c 128,-1,52
 1640 188 1640 188 1657.5 216 c 128,-1,53
 1675 244 1675 244 1692.5 305.5 c 128,-1,54
 1710 367 1710 367 1717 406.5 c 128,-1,55
 1724 446 1724 446 1739 528 c 1,56,-1
 1790 528 l 1,57,-1
 1704 0 l 1,58,-1
 694 0 l 1,59,-1
 694 63 l 1,60,-1
 711 63 l 2,61,62
 797 63 797 63 823.5 77.5 c 128,-1,63
 850 92 850 92 852 145 c 2,64,-1
 852 641 l 1,65,-1
 522 641 l 1,66,67
 516 625 516 625 471 501 c 128,-1,68
 426 377 426 377 392 278.5 c 128,-1,69
 358 180 358 180 358 166 c 0,70,71
 358 129 358 129 393 98.5 c 128,-1,72
 428 68 428 68 508 63 c 1,73,-1
 508 0 l 1,74,75
 389 6 389 6 270 6 c 0,76,77
 189 6 189 6 66 0 c 1,0,-1
545 705 m 1,78,-1
 852 705 l 1,79,-1
 852 1227 l 2,80,81
 852 1254 852 1254 851 1266 c 128,-1,82
 850 1278 850 1278 843 1293.5 c 128,-1,83
 836 1309 836 1309 818.5 1317 c 128,-1,84
 801 1325 801 1325 770 1329 c 1,85,-1
 545 705 l 1,78,-1
EndSplineSet
EndChar

StartChar: Ccedilla
Encoding: 199 199 129
Width: 1478
GlyphClass: 2
Flags: W
LayerCount: 2
Fore
SplineSet
113 700 m 0,0,1
 113 1015 113 1015 327 1229.5 c 128,-1,2
 541 1444 541 1444 827 1444 c 0,3,4
 1040 1444 1040 1444 1204 1268 c 1,5,6
 1315 1442 1315 1442 1339 1442 c 2,7,-1
 1341 1442 l 2,8,9
 1343 1440 1343 1440 1346 1440 c 0,10,11
 1364 1434 1364 1434 1364 1397 c 2,12,-1
 1364 901 l 2,13,14
 1364 860 1364 860 1331 860 c 0,15,16
 1321 860 1321 860 1309 868 c 0,17,18
 1303 874 1303 874 1298.5 899 c 128,-1,19
 1294 924 1294 924 1283 973 c 128,-1,20
 1272 1022 1272 1022 1253 1069 c 0,21,22
 1194 1216 1194 1216 1087.5 1298 c 128,-1,23
 981 1380 981 1380 848 1380 c 0,24,25
 698 1380 698 1380 573.5 1293 c 128,-1,26
 449 1206 449 1206 389 1069 c 0,27,28
 323 919 323 919 324 698 c 0,29,30
 324 534 324 534 362.5 408.5 c 128,-1,31
 401 283 401 283 458.5 211 c 128,-1,32
 516 139 516 139 592 93 c 128,-1,33
 668 47 668 47 730.5 32.5 c 128,-1,34
 793 18 793 18 852 18 c 0,35,36
 1034 18 1034 18 1164 146 c 128,-1,37
 1294 274 1294 274 1311 461 c 0,38,39
 1311 465 1311 465 1312 473 c 128,-1,40
 1313 481 1313 481 1313 485 c 128,-1,41
 1313 489 1313 489 1315 495.5 c 128,-1,42
 1317 502 1317 502 1319 505 c 128,-1,43
 1321 508 1321 508 1326 510 c 128,-1,44
 1331 512 1331 512 1339 512 c 0,45,46
 1364 512 1364 512 1364 469 c 0,47,48
 1364 412 1364 412 1341.5 340 c 128,-1,49
 1319 268 1319 268 1271 188.5 c 128,-1,50
 1223 109 1223 109 1126.5 45.5 c 128,-1,51
 1030 -18 1030 -18 903 -41 c 1,52,-1
 903 -111 l 1,53,54
 932 -115 932 -115 961.5 -124 c 128,-1,55
 991 -133 991 -133 1032 -169 c 128,-1,56
 1073 -205 1073 -205 1073 -258 c 0,57,58
 1073 -348 1073 -348 962.5 -383 c 128,-1,59
 852 -418 852 -418 616 -418 c 2,60,-1
 588 -418 l 1,61,-1
 588 -371 l 1,62,-1
 612 -371 l 2,63,64
 764 -371 764 -371 846 -348.5 c 128,-1,65
 928 -326 928 -326 928 -260 c 0,66,67
 928 -217 928 -217 890 -183.5 c 128,-1,68
 852 -150 852 -150 760 -145 c 1,69,-1
 760 -41 l 1,70,71
 473 -8 473 -8 293 205.5 c 128,-1,72
 113 419 113 419 113 700 c 0,0,1
EndSplineSet
EndChar

StartChar: Egrave
Encoding: 200 200 130
Width: 1392
GlyphClass: 2
Flags: W
LayerCount: 2
Fore
SplineSet
68 0 m 1,0,-1
 68 63 l 1,1,-1
 117 63 l 2,2,3
 228 63 228 63 253.5 81.5 c 128,-1,4
 279 100 279 100 279 160 c 2,5,-1
 279 1233 l 2,6,7
 279 1292 279 1292 253 1310.5 c 128,-1,8
 227 1329 227 1329 117 1329 c 2,9,-1
 68 1329 l 1,10,-1
 68 1393 l 1,11,-1
 1221 1393 l 1,12,-1
 1278 932 l 1,13,-1
 1227 932 l 1,14,15
 1213 1049 1213 1049 1194.5 1116.5 c 128,-1,16
 1176 1184 1176 1184 1131.5 1236 c 128,-1,17
 1087 1288 1087 1288 1014.5 1308.5 c 128,-1,18
 942 1329 942 1329 825 1329 c 2,19,-1
 561 1329 l 2,20,21
 491 1329 491 1329 476 1314.5 c 128,-1,22
 461 1300 461 1300 461 1247 c 2,23,-1
 461 756 l 1,24,-1
 645 756 l 2,25,26
 786 756 786 756 826 805 c 128,-1,27
 866 854 866 854 866 995 c 1,28,-1
 918 995 l 1,29,-1
 918 453 l 1,30,-1
 866 453 l 1,31,32
 866 592 866 592 826 642 c 128,-1,33
 786 692 786 692 645 692 c 2,34,-1
 461 692 l 1,35,-1
 461 145 l 2,36,37
 461 92 461 92 476.5 77.5 c 128,-1,38
 492 63 492 63 561 63 c 2,39,-1
 834 63 l 2,40,41
 922 63 922 63 986.5 74.5 c 128,-1,42
 1051 86 1051 86 1096 114.5 c 128,-1,43
 1141 143 1141 143 1171.5 176 c 128,-1,44
 1202 209 1202 209 1223.5 268.5 c 128,-1,45
 1245 328 1245 328 1257.5 383 c 128,-1,46
 1270 438 1270 438 1284 528 c 1,47,-1
 1335 528 l 1,48,-1
 1249 0 l 1,49,-1
 68 0 l 1,0,-1
480 1689 m 0,50,51
 480 1716 480 1716 499 1740.5 c 128,-1,52
 518 1765 518 1765 549 1765 c 0,53,54
 569 1765 569 1765 603 1745.5 c 128,-1,55
 637 1726 637 1726 893 1567 c 1,56,-1
 871 1519 l 1,57,58
 857 1523 857 1523 566 1614 c 0,59,60
 541 1622 541 1622 534 1624 c 128,-1,61
 527 1626 527 1626 509.5 1635 c 128,-1,62
 492 1644 492 1644 486 1657.5 c 128,-1,63
 480 1671 480 1671 480 1689 c 0,50,51
EndSplineSet
EndChar

StartChar: Eacute
Encoding: 201 201 131
Width: 1392
GlyphClass: 2
Flags: W
LayerCount: 2
Fore
SplineSet
68 0 m 1,0,-1
 68 63 l 1,1,-1
 117 63 l 2,2,3
 228 63 228 63 253.5 81.5 c 128,-1,4
 279 100 279 100 279 160 c 2,5,-1
 279 1233 l 2,6,7
 279 1292 279 1292 253 1310.5 c 128,-1,8
 227 1329 227 1329 117 1329 c 2,9,-1
 68 1329 l 1,10,-1
 68 1393 l 1,11,-1
 1221 1393 l 1,12,-1
 1278 932 l 1,13,-1
 1227 932 l 1,14,15
 1213 1049 1213 1049 1194.5 1116.5 c 128,-1,16
 1176 1184 1176 1184 1131.5 1236 c 128,-1,17
 1087 1288 1087 1288 1014.5 1308.5 c 128,-1,18
 942 1329 942 1329 825 1329 c 2,19,-1
 561 1329 l 2,20,21
 491 1329 491 1329 476 1314.5 c 128,-1,22
 461 1300 461 1300 461 1247 c 2,23,-1
 461 756 l 1,24,-1
 645 756 l 2,25,26
 786 756 786 756 826 805 c 128,-1,27
 866 854 866 854 866 995 c 1,28,-1
 918 995 l 1,29,-1
 918 453 l 1,30,-1
 866 453 l 1,31,32
 866 592 866 592 826 642 c 128,-1,33
 786 692 786 692 645 692 c 2,34,-1
 461 692 l 1,35,-1
 461 145 l 2,36,37
 461 92 461 92 476.5 77.5 c 128,-1,38
 492 63 492 63 561 63 c 2,39,-1
 834 63 l 2,40,41
 922 63 922 63 986.5 74.5 c 128,-1,42
 1051 86 1051 86 1096 114.5 c 128,-1,43
 1141 143 1141 143 1171.5 176 c 128,-1,44
 1202 209 1202 209 1223.5 268.5 c 128,-1,45
 1245 328 1245 328 1257.5 383 c 128,-1,46
 1270 438 1270 438 1284 528 c 1,47,-1
 1335 528 l 1,48,-1
 1249 0 l 1,49,-1
 68 0 l 1,0,-1
615 1567 m 1,50,51
 922 1757 922 1757 942 1763 c 0,52,53
 948 1765 948 1765 959 1765 c 0,54,55
 988 1765 988 1765 1008 1740.5 c 128,-1,56
 1028 1716 1028 1716 1028 1689 c 0,57,58
 1028 1630 1028 1630 942 1614 c 1,59,60
 663 1528 663 1528 635 1519 c 1,61,-1
 615 1567 l 1,50,51
EndSplineSet
EndChar

StartChar: Ecircumflex
Encoding: 202 202 132
Width: 1392
GlyphClass: 2
Flags: W
LayerCount: 2
Fore
SplineSet
68 0 m 1,0,-1
 68 63 l 1,1,-1
 117 63 l 2,2,3
 228 63 228 63 253.5 81.5 c 128,-1,4
 279 100 279 100 279 160 c 2,5,-1
 279 1233 l 2,6,7
 279 1292 279 1292 253 1310.5 c 128,-1,8
 227 1329 227 1329 117 1329 c 2,9,-1
 68 1329 l 1,10,-1
 68 1393 l 1,11,-1
 1221 1393 l 1,12,-1
 1278 932 l 1,13,-1
 1227 932 l 1,14,15
 1213 1049 1213 1049 1194.5 1116.5 c 128,-1,16
 1176 1184 1176 1184 1131.5 1236 c 128,-1,17
 1087 1288 1087 1288 1014.5 1308.5 c 128,-1,18
 942 1329 942 1329 825 1329 c 2,19,-1
 561 1329 l 2,20,21
 491 1329 491 1329 476 1314.5 c 128,-1,22
 461 1300 461 1300 461 1247 c 2,23,-1
 461 756 l 1,24,-1
 645 756 l 2,25,26
 786 756 786 756 826 805 c 128,-1,27
 866 854 866 854 866 995 c 1,28,-1
 918 995 l 1,29,-1
 918 453 l 1,30,-1
 866 453 l 1,31,32
 866 592 866 592 826 642 c 128,-1,33
 786 692 786 692 645 692 c 2,34,-1
 461 692 l 1,35,-1
 461 145 l 2,36,37
 461 92 461 92 476.5 77.5 c 128,-1,38
 492 63 492 63 561 63 c 2,39,-1
 834 63 l 2,40,41
 922 63 922 63 986.5 74.5 c 128,-1,42
 1051 86 1051 86 1096 114.5 c 128,-1,43
 1141 143 1141 143 1171.5 176 c 128,-1,44
 1202 209 1202 209 1223.5 268.5 c 128,-1,45
 1245 328 1245 328 1257.5 383 c 128,-1,46
 1270 438 1270 438 1284 528 c 1,47,-1
 1335 528 l 1,48,-1
 1249 0 l 1,49,-1
 68 0 l 1,0,-1
436 1559 m 1,50,-1
 711 1847 l 1,51,-1
 713 1847 l 1,52,-1
 985 1559 l 1,53,-1
 948 1524 l 1,54,-1
 713 1739 l 1,55,-1
 711 1739 l 1,56,-1
 475 1524 l 1,57,-1
 473 1524 l 1,58,-1
 436 1559 l 1,50,-1
EndSplineSet
EndChar

StartChar: Edieresis
Encoding: 203 203 133
Width: 1392
GlyphClass: 2
Flags: W
LayerCount: 2
Fore
SplineSet
68 0 m 1,0,-1
 68 63 l 1,1,-1
 117 63 l 2,2,3
 228 63 228 63 253.5 81.5 c 128,-1,4
 279 100 279 100 279 160 c 2,5,-1
 279 1233 l 2,6,7
 279 1292 279 1292 253 1310.5 c 128,-1,8
 227 1329 227 1329 117 1329 c 2,9,-1
 68 1329 l 1,10,-1
 68 1393 l 1,11,-1
 1221 1393 l 1,12,-1
 1278 932 l 1,13,-1
 1227 932 l 1,14,15
 1213 1049 1213 1049 1194.5 1116.5 c 128,-1,16
 1176 1184 1176 1184 1131.5 1236 c 128,-1,17
 1087 1288 1087 1288 1014.5 1308.5 c 128,-1,18
 942 1329 942 1329 825 1329 c 2,19,-1
 561 1329 l 2,20,21
 491 1329 491 1329 476 1314.5 c 128,-1,22
 461 1300 461 1300 461 1247 c 2,23,-1
 461 756 l 1,24,-1
 645 756 l 2,25,26
 786 756 786 756 826 805 c 128,-1,27
 866 854 866 854 866 995 c 1,28,-1
 918 995 l 1,29,-1
 918 453 l 1,30,-1
 866 453 l 1,31,32
 866 592 866 592 826 642 c 128,-1,33
 786 692 786 692 645 692 c 2,34,-1
 461 692 l 1,35,-1
 461 145 l 2,36,37
 461 92 461 92 476.5 77.5 c 128,-1,38
 492 63 492 63 561 63 c 2,39,-1
 834 63 l 2,40,41
 922 63 922 63 986.5 74.5 c 128,-1,42
 1051 86 1051 86 1096 114.5 c 128,-1,43
 1141 143 1141 143 1171.5 176 c 128,-1,44
 1202 209 1202 209 1223.5 268.5 c 128,-1,45
 1245 328 1245 328 1257.5 383 c 128,-1,46
 1270 438 1270 438 1284 528 c 1,47,-1
 1335 528 l 1,48,-1
 1249 0 l 1,49,-1
 68 0 l 1,0,-1
404 1665 m 0,50,51
 404 1712 404 1712 435.5 1743 c 128,-1,52
 467 1774 467 1774 510 1774 c 0,53,54
 551 1774 551 1774 585 1742 c 128,-1,55
 619 1710 619 1710 619 1665 c 128,-1,56
 619 1620 619 1620 585 1589.5 c 128,-1,57
 551 1559 551 1559 510 1559 c 0,58,59
 463 1559 463 1559 433.5 1590.5 c 128,-1,60
 404 1622 404 1622 404 1665 c 0,50,51
801 1665 m 0,61,62
 801 1712 801 1712 834 1743 c 128,-1,63
 867 1774 867 1774 910 1774 c 128,-1,64
 953 1774 953 1774 984.5 1743 c 128,-1,65
 1016 1712 1016 1712 1016 1665 c 0,66,67
 1016 1620 1016 1620 983.5 1589.5 c 128,-1,68
 951 1559 951 1559 910 1559 c 0,69,70
 863 1559 863 1559 832 1590.5 c 128,-1,71
 801 1622 801 1622 801 1665 c 0,61,62
EndSplineSet
EndChar

StartChar: Igrave
Encoding: 204 204 134
Width: 739
GlyphClass: 2
Flags: W
LayerCount: 2
Fore
SplineSet
57 0 m 1,0,-1
 57 63 l 1,1,-1
 111 63 l 2,2,3
 226 63 226 63 252.5 81.5 c 128,-1,4
 279 100 279 100 279 160 c 2,5,-1
 279 1239 l 2,6,7
 279 1298 279 1298 252 1316.5 c 128,-1,8
 225 1335 225 1335 111 1335 c 2,9,-1
 57 1335 l 1,10,-1
 57 1399 l 1,11,12
 129 1393 129 1393 371 1393 c 0,13,14
 611 1393 611 1393 682 1399 c 1,15,-1
 682 1335 l 1,16,-1
 629 1335 l 2,17,18
 514 1335 514 1335 487.5 1316.5 c 128,-1,19
 461 1298 461 1298 461 1239 c 2,20,-1
 461 160 l 2,21,22
 461 101 461 101 487.5 82 c 128,-1,23
 514 63 514 63 629 63 c 2,24,-1
 682 63 l 1,25,-1
 682 0 l 1,26,27
 610 6 610 6 369 6 c 0,28,29
 129 6 129 6 57 0 c 1,0,-1
109 1690 m 0,30,31
 109 1717 109 1717 128 1741 c 128,-1,32
 147 1765 147 1765 178 1765 c 2,33,-1
 182 1765 l 2,34,35
 198 1765 198 1765 236 1742.5 c 128,-1,36
 274 1720 274 1720 520 1567 c 1,37,-1
 500 1518 l 1,38,39
 482 1522 482 1522 197 1612 c 0,40,41
 168 1620 168 1620 153.5 1626 c 128,-1,42
 139 1632 139 1632 124 1648.5 c 128,-1,43
 109 1665 109 1665 109 1690 c 0,30,31
EndSplineSet
EndChar

StartChar: Iacute
Encoding: 205 205 135
Width: 739
GlyphClass: 2
Flags: W
LayerCount: 2
Fore
SplineSet
57 0 m 1,0,-1
 57 63 l 1,1,-1
 111 63 l 2,2,3
 226 63 226 63 252.5 81.5 c 128,-1,4
 279 100 279 100 279 160 c 2,5,-1
 279 1239 l 2,6,7
 279 1298 279 1298 252 1316.5 c 128,-1,8
 225 1335 225 1335 111 1335 c 2,9,-1
 57 1335 l 1,10,-1
 57 1399 l 1,11,12
 129 1393 129 1393 371 1393 c 0,13,14
 611 1393 611 1393 682 1399 c 1,15,-1
 682 1335 l 1,16,-1
 629 1335 l 2,17,18
 514 1335 514 1335 487.5 1316.5 c 128,-1,19
 461 1298 461 1298 461 1239 c 2,20,-1
 461 160 l 2,21,22
 461 101 461 101 487.5 82 c 128,-1,23
 514 63 514 63 629 63 c 2,24,-1
 682 63 l 1,25,-1
 682 0 l 1,26,27
 610 6 610 6 369 6 c 0,28,29
 129 6 129 6 57 0 c 1,0,-1
166 1567 m 1,30,31
 232 1608 232 1608 324 1665 c 0,32,33
 484 1765 484 1765 508 1765 c 0,34,35
 539 1765 539 1765 558.5 1740.5 c 128,-1,36
 578 1716 578 1716 578 1690 c 0,37,38
 578 1665 578 1665 562.5 1647.5 c 128,-1,39
 547 1630 547 1630 533.5 1625 c 128,-1,40
 520 1620 520 1620 492 1612 c 0,41,42
 207 1522 207 1522 188 1518 c 1,43,-1
 166 1567 l 1,30,31
EndSplineSet
EndChar

StartChar: Icircumflex
Encoding: 206 206 136
Width: 739
GlyphClass: 2
Flags: W
LayerCount: 2
Fore
SplineSet
57 0 m 1,0,-1
 57 63 l 1,1,-1
 111 63 l 2,2,3
 226 63 226 63 252.5 81.5 c 128,-1,4
 279 100 279 100 279 160 c 2,5,-1
 279 1239 l 2,6,7
 279 1298 279 1298 252 1316.5 c 128,-1,8
 225 1335 225 1335 111 1335 c 2,9,-1
 57 1335 l 1,10,-1
 57 1399 l 1,11,12
 129 1393 129 1393 371 1393 c 0,13,14
 611 1393 611 1393 682 1399 c 1,15,-1
 682 1335 l 1,16,-1
 629 1335 l 2,17,18
 514 1335 514 1335 487.5 1316.5 c 128,-1,19
 461 1298 461 1298 461 1239 c 2,20,-1
 461 160 l 2,21,22
 461 101 461 101 487.5 82 c 128,-1,23
 514 63 514 63 629 63 c 2,24,-1
 682 63 l 1,25,-1
 682 0 l 1,26,27
 610 6 610 6 369 6 c 0,28,29
 129 6 129 6 57 0 c 1,0,-1
94 1561 m 1,30,-1
 367 1847 l 1,31,-1
 369 1847 l 1,32,-1
 641 1559 l 1,33,-1
 604 1524 l 1,34,-1
 369 1739 l 1,35,-1
 367 1739 l 1,36,-1
 131 1524 l 1,37,-1
 94 1561 l 1,30,-1
EndSplineSet
EndChar

StartChar: Idieresis
Encoding: 207 207 137
Width: 739
GlyphClass: 2
Flags: W
LayerCount: 2
Fore
SplineSet
57 0 m 1,0,-1
 57 63 l 1,1,-1
 111 63 l 2,2,3
 226 63 226 63 252.5 81.5 c 128,-1,4
 279 100 279 100 279 160 c 2,5,-1
 279 1239 l 2,6,7
 279 1298 279 1298 252 1316.5 c 128,-1,8
 225 1335 225 1335 111 1335 c 2,9,-1
 57 1335 l 1,10,-1
 57 1399 l 1,11,12
 129 1393 129 1393 371 1393 c 0,13,14
 611 1393 611 1393 682 1399 c 1,15,-1
 682 1335 l 1,16,-1
 629 1335 l 2,17,18
 514 1335 514 1335 487.5 1316.5 c 128,-1,19
 461 1298 461 1298 461 1239 c 2,20,-1
 461 160 l 2,21,22
 461 101 461 101 487.5 82 c 128,-1,23
 514 63 514 63 629 63 c 2,24,-1
 682 63 l 1,25,-1
 682 0 l 1,26,27
 610 6 610 6 369 6 c 0,28,29
 129 6 129 6 57 0 c 1,0,-1
61 1665 m 0,30,31
 61 1712 61 1712 94 1743 c 128,-1,32
 127 1774 127 1774 170 1774 c 128,-1,33
 213 1774 213 1774 244.5 1743 c 128,-1,34
 276 1712 276 1712 276 1665 c 0,35,36
 276 1620 276 1620 243.5 1589.5 c 128,-1,37
 211 1559 211 1559 170 1559 c 0,38,39
 123 1559 123 1559 92 1590.5 c 128,-1,40
 61 1622 61 1622 61 1665 c 0,30,31
459 1665 m 0,41,42
 459 1712 459 1712 490.5 1743 c 128,-1,43
 522 1774 522 1774 565 1774 c 0,44,45
 606 1774 606 1774 640 1742 c 128,-1,46
 674 1710 674 1710 674 1665 c 128,-1,47
 674 1620 674 1620 641 1589.5 c 128,-1,48
 608 1559 608 1559 567 1559 c 0,49,50
 520 1559 520 1559 489.5 1590.5 c 128,-1,51
 459 1622 459 1622 459 1665 c 0,41,42
EndSplineSet
EndChar

StartChar: Eth
Encoding: 208 208 138
Width: 1564
GlyphClass: 2
Flags: W
LayerCount: 2
Fore
SplineSet
70 0 m 1,0,-1
 70 63 l 1,1,-1
 92 63 l 2,2,3
 213 63 213 63 247 79.5 c 128,-1,4
 281 96 281 96 281 156 c 2,5,-1
 281 655 l 1,6,7
 263 655 263 655 226.5 654 c 128,-1,8
 190 653 190 653 172 653 c 0,9,10
 109 653 109 653 93.5 657.5 c 128,-1,11
 78 662 78 662 72 678 c 1,12,-1
 72 688 l 2,13,14
 72 717 72 717 121 717 c 0,15,16
 131 717 131 717 147.5 718 c 128,-1,17
 164 719 164 719 174 719 c 0,18,19
 192 719 192 719 227 718 c 128,-1,20
 262 717 262 717 281 717 c 1,21,-1
 281 1243 l 2,22,23
 281 1302 281 1302 247 1318.5 c 128,-1,24
 213 1335 213 1335 92 1335 c 2,25,-1
 70 1335 l 1,26,-1
 70 1399 l 1,27,-1
 780 1399 l 2,28,29
 985 1399 985 1399 1122 1313 c 0,30,31
 1274 1219 1274 1219 1361 1049 c 128,-1,32
 1448 879 1448 879 1448 688 c 0,33,34
 1448 424 1448 424 1289 228.5 c 128,-1,35
 1130 33 1130 33 891 4 c 0,36,37
 858 0 858 0 791 0 c 2,38,-1
 70 0 l 1,0,-1
459 137 m 2,39,40
 461 84 461 84 483.5 73.5 c 128,-1,41
 506 63 506 63 602 63 c 2,42,-1
 752 63 l 2,43,44
 1014 63 1014 63 1143 256 c 0,45,46
 1243 401 1243 401 1243 692 c 0,47,48
 1243 995 1243 995 1137 1147 c 0,49,50
 1006 1335 1006 1335 752 1335 c 2,51,-1
 717 1335 l 2,52,53
 697 1335 697 1335 660 1336 c 128,-1,54
 623 1337 623 1337 602 1337 c 2,55,-1
 582 1337 l 2,56,57
 508 1337 508 1337 484.5 1325 c 128,-1,58
 461 1313 461 1313 459 1262 c 2,59,-1
 459 717 l 1,60,-1
 799 717 l 1,61,62
 844 713 844 713 844 686 c 128,-1,63
 844 659 844 659 797 655 c 1,64,-1
 459 655 l 1,65,-1
 459 137 l 2,39,40
EndSplineSet
EndChar

StartChar: Ntilde
Encoding: 209 209 139
Width: 1536
GlyphClass: 2
Flags: W
LayerCount: 2
Fore
SplineSet
68 0 m 1,0,-1
 68 63 l 1,1,2
 142 63 142 63 189 77.5 c 128,-1,3
 236 92 236 92 253 119.5 c 128,-1,4
 270 147 270 147 274.5 165.5 c 128,-1,5
 279 184 279 184 279 215 c 2,6,-1
 279 1284 l 2,7,8
 279 1313 279 1313 271.5 1320 c 128,-1,9
 264 1327 264 1327 229 1331 c 0,10,11
 168 1335 168 1335 127 1335 c 2,12,-1
 68 1335 l 1,13,-1
 68 1399 l 1,14,-1
 416 1399 l 2,15,16
 445 1399 445 1399 453 1395 c 128,-1,17
 461 1391 461 1391 475 1372 c 2,18,-1
 1198 309 l 1,19,-1
 1198 1184 l 2,20,21
 1198 1215 1198 1215 1194 1233 c 128,-1,22
 1190 1251 1190 1251 1172.5 1279 c 128,-1,23
 1155 1307 1155 1307 1108 1321 c 128,-1,24
 1061 1335 1061 1335 987 1335 c 1,25,-1
 987 1399 l 1,26,27
 1202 1393 1202 1393 1226.5 1393 c 128,-1,28
 1251 1393 1251 1393 1466 1399 c 1,29,-1
 1466 1335 l 1,30,31
 1392 1335 1392 1335 1345 1321 c 128,-1,32
 1298 1307 1298 1307 1281 1279 c 128,-1,33
 1264 1251 1264 1251 1259.5 1232.5 c 128,-1,34
 1255 1214 1255 1214 1255 1184 c 2,35,-1
 1255 53 l 2,36,37
 1255 20 1255 20 1251 10 c 128,-1,38
 1247 0 1247 0 1227 0 c 0,39,40
 1213 0 1213 0 1192 27 c 2,41,-1
 356 1255 l 2,42,43
 348 1267 348 1267 336 1280 c 1,44,-1
 336 215 l 2,45,46
 336 184 336 184 340 165.5 c 128,-1,47
 344 147 344 147 361.5 119.5 c 128,-1,48
 379 92 379 92 426 77.5 c 128,-1,49
 473 63 473 63 547 63 c 1,50,-1
 547 0 l 1,51,52
 332 6 332 6 307.5 6 c 128,-1,53
 283 6 283 6 68 0 c 1,0,-1
369 1685 m 1,54,55
 373 1689 373 1689 391.5 1710.5 c 128,-1,56
 410 1732 410 1732 415 1737.5 c 128,-1,57
 420 1743 420 1743 437.5 1760.5 c 128,-1,58
 455 1778 455 1778 463 1783 c 128,-1,59
 471 1788 471 1788 488.5 1799 c 128,-1,60
 506 1810 506 1810 520.5 1813 c 128,-1,61
 535 1816 535 1816 554 1820.5 c 128,-1,62
 573 1825 573 1825 594 1825 c 0,63,64
 649 1825 649 1825 776 1787 c 128,-1,65
 903 1749 903 1749 961 1749 c 0,66,67
 1049 1749 1049 1749 1130 1827 c 1,68,-1
 1165 1794 l 1,69,70
 1161 1790 1161 1790 1139.5 1764.5 c 128,-1,71
 1118 1739 1118 1739 1112 1733.5 c 128,-1,72
 1106 1728 1106 1728 1086.5 1708.5 c 128,-1,73
 1067 1689 1067 1689 1055.5 1684 c 128,-1,74
 1044 1679 1044 1679 1025 1669 c 128,-1,75
 1006 1659 1006 1659 985.5 1656 c 128,-1,76
 965 1653 965 1653 940 1653 c 0,77,78
 883 1653 883 1653 756 1691.5 c 128,-1,79
 629 1730 629 1730 573 1730 c 0,80,81
 485 1730 485 1730 403 1653 c 1,82,-1
 369 1685 l 1,54,55
EndSplineSet
EndChar

StartChar: Ograve
Encoding: 210 210 140
Width: 1591
GlyphClass: 2
Flags: W
LayerCount: 2
Fore
SplineSet
115 694 m 0,0,1
 115 1007 115 1007 315.5 1225.5 c 128,-1,2
 516 1444 516 1444 795 1444 c 0,3,4
 1076 1444 1076 1444 1276.5 1225 c 128,-1,5
 1477 1006 1477 1006 1477 694 c 0,6,7
 1477 385 1477 385 1276 170 c 128,-1,8
 1075 -45 1075 -45 795 -45 c 0,9,10
 519 -45 519 -45 317 169 c 128,-1,11
 115 383 115 383 115 694 c 0,0,1
326 723 m 0,12,13
 326 533 326 533 371 387.5 c 128,-1,14
 416 242 416 242 488.5 163 c 128,-1,15
 561 84 561 84 639 46 c 128,-1,16
 717 8 717 8 797 8 c 0,17,18
 875 8 875 8 951.5 45 c 128,-1,19
 1028 82 1028 82 1101 160 c 128,-1,20
 1174 238 1174 238 1220 384 c 128,-1,21
 1266 530 1266 530 1266 723 c 0,22,23
 1266 873 1266 873 1234 993.5 c 128,-1,24
 1202 1114 1202 1114 1152 1187 c 128,-1,25
 1102 1260 1102 1260 1037.5 1308 c 128,-1,26
 973 1356 973 1356 912.5 1374.5 c 128,-1,27
 852 1393 852 1393 795 1393 c 0,28,29
 723 1393 723 1393 648 1361 c 128,-1,30
 573 1329 573 1329 497.5 1258.5 c 128,-1,31
 422 1188 422 1188 374 1049.5 c 128,-1,32
 326 911 326 911 326 723 c 0,12,13
564 1689 m 0,33,34
 564 1716 564 1716 583 1740.5 c 128,-1,35
 602 1765 602 1765 633 1765 c 0,36,37
 653 1765 653 1765 687 1745.5 c 128,-1,38
 721 1726 721 1726 977 1567 c 1,39,-1
 955 1519 l 1,40,41
 941 1523 941 1523 650 1614 c 0,42,43
 625 1622 625 1622 618 1624 c 128,-1,44
 611 1626 611 1626 593.5 1635 c 128,-1,45
 576 1644 576 1644 570 1657.5 c 128,-1,46
 564 1671 564 1671 564 1689 c 0,33,34
EndSplineSet
EndChar

StartChar: Oacute
Encoding: 211 211 141
Width: 1591
GlyphClass: 2
Flags: W
LayerCount: 2
Fore
SplineSet
115 694 m 0,0,1
 115 1007 115 1007 315.5 1225.5 c 128,-1,2
 516 1444 516 1444 795 1444 c 0,3,4
 1076 1444 1076 1444 1276.5 1225 c 128,-1,5
 1477 1006 1477 1006 1477 694 c 0,6,7
 1477 385 1477 385 1276 170 c 128,-1,8
 1075 -45 1075 -45 795 -45 c 0,9,10
 519 -45 519 -45 317 169 c 128,-1,11
 115 383 115 383 115 694 c 0,0,1
326 723 m 0,12,13
 326 533 326 533 371 387.5 c 128,-1,14
 416 242 416 242 488.5 163 c 128,-1,15
 561 84 561 84 639 46 c 128,-1,16
 717 8 717 8 797 8 c 0,17,18
 875 8 875 8 951.5 45 c 128,-1,19
 1028 82 1028 82 1101 160 c 128,-1,20
 1174 238 1174 238 1220 384 c 128,-1,21
 1266 530 1266 530 1266 723 c 0,22,23
 1266 873 1266 873 1234 993.5 c 128,-1,24
 1202 1114 1202 1114 1152 1187 c 128,-1,25
 1102 1260 1102 1260 1037.5 1308 c 128,-1,26
 973 1356 973 1356 912.5 1374.5 c 128,-1,27
 852 1393 852 1393 795 1393 c 0,28,29
 723 1393 723 1393 648 1361 c 128,-1,30
 573 1329 573 1329 497.5 1258.5 c 128,-1,31
 422 1188 422 1188 374 1049.5 c 128,-1,32
 326 911 326 911 326 723 c 0,12,13
615 1567 m 1,33,34
 922 1757 922 1757 942 1763 c 0,35,36
 948 1765 948 1765 959 1765 c 0,37,38
 988 1765 988 1765 1008 1740.5 c 128,-1,39
 1028 1716 1028 1716 1028 1689 c 0,40,41
 1028 1630 1028 1630 942 1614 c 1,42,43
 663 1528 663 1528 635 1519 c 1,44,-1
 615 1567 l 1,33,34
EndSplineSet
EndChar

StartChar: Ocircumflex
Encoding: 212 212 142
Width: 1591
GlyphClass: 2
Flags: W
LayerCount: 2
Fore
SplineSet
115 694 m 0,0,1
 115 1007 115 1007 315.5 1225.5 c 128,-1,2
 516 1444 516 1444 795 1444 c 0,3,4
 1076 1444 1076 1444 1276.5 1225 c 128,-1,5
 1477 1006 1477 1006 1477 694 c 0,6,7
 1477 385 1477 385 1276 170 c 128,-1,8
 1075 -45 1075 -45 795 -45 c 0,9,10
 519 -45 519 -45 317 169 c 128,-1,11
 115 383 115 383 115 694 c 0,0,1
326 723 m 0,12,13
 326 533 326 533 371 387.5 c 128,-1,14
 416 242 416 242 488.5 163 c 128,-1,15
 561 84 561 84 639 46 c 128,-1,16
 717 8 717 8 797 8 c 0,17,18
 875 8 875 8 951.5 45 c 128,-1,19
 1028 82 1028 82 1101 160 c 128,-1,20
 1174 238 1174 238 1220 384 c 128,-1,21
 1266 530 1266 530 1266 723 c 0,22,23
 1266 873 1266 873 1234 993.5 c 128,-1,24
 1202 1114 1202 1114 1152 1187 c 128,-1,25
 1102 1260 1102 1260 1037.5 1308 c 128,-1,26
 973 1356 973 1356 912.5 1374.5 c 128,-1,27
 852 1393 852 1393 795 1393 c 0,28,29
 723 1393 723 1393 648 1361 c 128,-1,30
 573 1329 573 1329 497.5 1258.5 c 128,-1,31
 422 1188 422 1188 374 1049.5 c 128,-1,32
 326 911 326 911 326 723 c 0,12,13
522 1559 m 1,33,-1
 522 1561 l 1,34,-1
 795 1847 l 1,35,-1
 797 1847 l 1,36,-1
 1069 1561 l 1,37,-1
 1069 1559 l 1,38,-1
 1034 1524 l 1,39,-1
 1032 1524 l 1,40,-1
 797 1739 l 1,41,-1
 795 1739 l 1,42,-1
 559 1524 l 1,43,-1
 557 1524 l 1,44,-1
 522 1559 l 1,33,-1
EndSplineSet
EndChar

StartChar: Otilde
Encoding: 213 213 143
Width: 1591
GlyphClass: 2
Flags: W
LayerCount: 2
Fore
SplineSet
115 694 m 0,0,1
 115 1007 115 1007 315.5 1225.5 c 128,-1,2
 516 1444 516 1444 795 1444 c 0,3,4
 1076 1444 1076 1444 1276.5 1225 c 128,-1,5
 1477 1006 1477 1006 1477 694 c 0,6,7
 1477 385 1477 385 1276 170 c 128,-1,8
 1075 -45 1075 -45 795 -45 c 0,9,10
 519 -45 519 -45 317 169 c 128,-1,11
 115 383 115 383 115 694 c 0,0,1
326 723 m 0,12,13
 326 533 326 533 371 387.5 c 128,-1,14
 416 242 416 242 488.5 163 c 128,-1,15
 561 84 561 84 639 46 c 128,-1,16
 717 8 717 8 797 8 c 0,17,18
 875 8 875 8 951.5 45 c 128,-1,19
 1028 82 1028 82 1101 160 c 128,-1,20
 1174 238 1174 238 1220 384 c 128,-1,21
 1266 530 1266 530 1266 723 c 0,22,23
 1266 873 1266 873 1234 993.5 c 128,-1,24
 1202 1114 1202 1114 1152 1187 c 128,-1,25
 1102 1260 1102 1260 1037.5 1308 c 128,-1,26
 973 1356 973 1356 912.5 1374.5 c 128,-1,27
 852 1393 852 1393 795 1393 c 0,28,29
 723 1393 723 1393 648 1361 c 128,-1,30
 573 1329 573 1329 497.5 1258.5 c 128,-1,31
 422 1188 422 1188 374 1049.5 c 128,-1,32
 326 911 326 911 326 723 c 0,12,13
397 1683 m 1,33,34
 401 1687 401 1687 422.5 1713 c 128,-1,35
 444 1739 444 1739 450.5 1744 c 128,-1,36
 457 1749 457 1749 476.5 1768.5 c 128,-1,37
 496 1788 496 1788 507 1793 c 128,-1,38
 518 1798 518 1798 537.5 1808.5 c 128,-1,39
 557 1819 557 1819 577.5 1822 c 128,-1,40
 598 1825 598 1825 623 1825 c 0,41,42
 684 1825 684 1825 805 1786 c 128,-1,43
 926 1747 926 1747 989 1747 c 0,44,45
 1042 1747 1042 1747 1078 1764.5 c 128,-1,46
 1114 1782 1114 1782 1157 1825 c 1,47,-1
 1192 1794 l 1,48,49
 1188 1790 1188 1790 1166.5 1764.5 c 128,-1,50
 1145 1739 1145 1739 1139 1734 c 128,-1,51
 1133 1729 1133 1729 1113.5 1709.5 c 128,-1,52
 1094 1690 1094 1690 1082.5 1684.5 c 128,-1,53
 1071 1679 1071 1679 1051.5 1669 c 128,-1,54
 1032 1659 1032 1659 1011.5 1656 c 128,-1,55
 991 1653 991 1653 967 1653 c 0,56,57
 906 1653 906 1653 785 1692 c 128,-1,58
 664 1731 664 1731 602 1731 c 0,59,60
 514 1731 514 1731 432 1653 c 1,61,-1
 397 1683 l 1,33,34
EndSplineSet
EndChar

StartChar: Odieresis
Encoding: 214 214 144
Width: 1591
GlyphClass: 2
Flags: W
LayerCount: 2
Fore
SplineSet
115 694 m 0,0,1
 115 1007 115 1007 315.5 1225.5 c 128,-1,2
 516 1444 516 1444 795 1444 c 0,3,4
 1076 1444 1076 1444 1276.5 1225 c 128,-1,5
 1477 1006 1477 1006 1477 694 c 0,6,7
 1477 385 1477 385 1276 170 c 128,-1,8
 1075 -45 1075 -45 795 -45 c 0,9,10
 519 -45 519 -45 317 169 c 128,-1,11
 115 383 115 383 115 694 c 0,0,1
326 723 m 0,12,13
 326 533 326 533 371 387.5 c 128,-1,14
 416 242 416 242 488.5 163 c 128,-1,15
 561 84 561 84 639 46 c 128,-1,16
 717 8 717 8 797 8 c 0,17,18
 875 8 875 8 951.5 45 c 128,-1,19
 1028 82 1028 82 1101 160 c 128,-1,20
 1174 238 1174 238 1220 384 c 128,-1,21
 1266 530 1266 530 1266 723 c 0,22,23
 1266 873 1266 873 1234 993.5 c 128,-1,24
 1202 1114 1202 1114 1152 1187 c 128,-1,25
 1102 1260 1102 1260 1037.5 1308 c 128,-1,26
 973 1356 973 1356 912.5 1374.5 c 128,-1,27
 852 1393 852 1393 795 1393 c 0,28,29
 723 1393 723 1393 648 1361 c 128,-1,30
 573 1329 573 1329 497.5 1258.5 c 128,-1,31
 422 1188 422 1188 374 1049.5 c 128,-1,32
 326 911 326 911 326 723 c 0,12,13
489 1665 m 0,33,34
 489 1712 489 1712 522 1743 c 128,-1,35
 555 1774 555 1774 598 1774 c 128,-1,36
 641 1774 641 1774 673 1743 c 128,-1,37
 705 1712 705 1712 705 1665 c 0,38,39
 705 1620 705 1620 672 1589.5 c 128,-1,40
 639 1559 639 1559 598 1559 c 0,41,42
 551 1559 551 1559 520 1590.5 c 128,-1,43
 489 1622 489 1622 489 1665 c 0,33,34
887 1665 m 0,44,45
 887 1712 887 1712 918.5 1743 c 128,-1,46
 950 1774 950 1774 993 1774 c 0,47,48
 1034 1774 1034 1774 1068 1742 c 128,-1,49
 1102 1710 1102 1710 1102 1665 c 128,-1,50
 1102 1620 1102 1620 1069 1589.5 c 128,-1,51
 1036 1559 1036 1559 995 1559 c 0,52,53
 948 1559 948 1559 917.5 1590.5 c 128,-1,54
 887 1622 887 1622 887 1665 c 0,44,45
EndSplineSet
EndChar

StartChar: Oslash
Encoding: 216 216 145
Width: 1593
GlyphClass: 2
Flags: W
LayerCount: 2
Fore
SplineSet
113 694 m 0,0,1
 113 1009 113 1009 315.5 1226.5 c 128,-1,2
 518 1444 518 1444 795 1444 c 0,3,4
 1006 1444 1006 1444 1182 1313 c 1,5,-1
 1317 1513 l 1,6,-1
 1360 1485 l 1,7,-1
 1223 1282 l 1,8,-1
 1223 1280 l 1,9,10
 1344 1171 1344 1171 1410.5 1018.5 c 128,-1,11
 1477 866 1477 866 1477 694 c 0,12,13
 1477 379 1477 379 1274 167 c 128,-1,14
 1071 -45 1071 -45 795 -45 c 0,15,16
 588 -45 588 -45 408 84 c 1,17,-1
 272 -115 l 1,18,-1
 229 -86 l 1,19,-1
 369 119 l 1,20,21
 336 148 336 148 306 181.5 c 128,-1,22
 276 215 276 215 225 287.5 c 128,-1,23
 174 360 174 360 143.5 466.5 c 128,-1,24
 113 573 113 573 113 694 c 0,0,1
297 692 m 0,25,26
 297 555 297 555 318.5 448.5 c 128,-1,27
 340 342 340 342 362.5 296 c 128,-1,28
 385 250 385 250 420 197 c 1,29,-1
 1133 1243 l 1,30,31
 981 1399 981 1399 795 1399 c 0,32,33
 654 1399 654 1399 549 1323 c 128,-1,34
 444 1247 444 1247 387 1143 c 0,35,36
 297 979 297 979 297 692 c 0,25,26
457 154 m 1,37,38
 609 2 609 2 795 2 c 0,39,40
 938 2 938 2 1044.5 78 c 128,-1,41
 1151 154 1151 154 1210 266 c 0,42,43
 1294 426 1294 426 1294 696 c 0,44,45
 1294 835 1294 835 1270.5 945 c 128,-1,46
 1247 1055 1247 1055 1225.5 1099 c 128,-1,47
 1204 1143 1204 1143 1167 1200 c 1,48,-1
 457 156 l 1,49,-1
 457 154 l 1,37,38
EndSplineSet
EndChar

StartChar: Ugrave
Encoding: 217 217 146
Width: 1536
GlyphClass: 2
Flags: W
LayerCount: 2
Fore
SplineSet
68 1335 m 1,0,-1
 68 1399 l 1,1,2
 140 1393 140 1393 371 1393 c 0,3,4
 600 1393 600 1393 672 1399 c 1,5,-1
 672 1335 l 1,6,-1
 623 1335 l 2,7,8
 512 1335 512 1335 486.5 1316.5 c 128,-1,9
 461 1298 461 1298 461 1239 c 2,10,-1
 461 459 l 2,11,12
 461 322 461 322 499 227.5 c 128,-1,13
 537 133 537 133 596 91 c 128,-1,14
 655 49 655 49 703.5 33.5 c 128,-1,15
 752 18 752 18 799 18 c 0,16,17
 955 18 955 18 1073.5 142 c 128,-1,18
 1192 266 1192 266 1192 473 c 2,19,-1
 1192 1184 l 2,20,21
 1192 1215 1192 1215 1188 1233 c 128,-1,22
 1184 1251 1184 1251 1166.5 1279 c 128,-1,23
 1149 1307 1149 1307 1102 1321 c 128,-1,24
 1055 1335 1055 1335 981 1335 c 1,25,-1
 981 1399 l 1,26,27
 1202 1393 1202 1393 1225 1393 c 0,28,29
 1245 1393 1245 1393 1466 1399 c 1,30,-1
 1466 1335 l 1,31,32
 1392 1335 1392 1335 1345 1322 c 128,-1,33
 1298 1309 1298 1309 1281 1280 c 128,-1,34
 1264 1251 1264 1251 1259.5 1230.5 c 128,-1,35
 1255 1210 1255 1210 1255 1176 c 2,36,-1
 1255 520 l 2,37,38
 1255 420 1255 420 1249 379 c 0,39,40
 1222 201 1222 201 1095.5 78 c 128,-1,41
 969 -45 969 -45 795 -45 c 0,42,43
 584 -45 584 -45 431.5 103.5 c 128,-1,44
 279 252 279 252 279 467 c 2,45,-1
 279 1239 l 2,46,47
 279 1298 279 1298 253 1316.5 c 128,-1,48
 227 1335 227 1335 117 1335 c 2,49,-1
 68 1335 l 1,0,-1
535 1689 m 0,50,51
 535 1716 535 1716 554 1740.5 c 128,-1,52
 573 1765 573 1765 604 1765 c 0,53,54
 624 1765 624 1765 658 1745.5 c 128,-1,55
 692 1726 692 1726 948 1567 c 1,56,-1
 926 1519 l 1,57,58
 912 1523 912 1523 621 1614 c 0,59,60
 596 1622 596 1622 589 1624 c 128,-1,61
 582 1626 582 1626 564.5 1635 c 128,-1,62
 547 1644 547 1644 541 1657.5 c 128,-1,63
 535 1671 535 1671 535 1689 c 0,50,51
EndSplineSet
EndChar

StartChar: Uacute
Encoding: 218 218 147
Width: 1536
GlyphClass: 2
Flags: W
LayerCount: 2
Fore
SplineSet
68 1335 m 1,0,-1
 68 1399 l 1,1,2
 140 1393 140 1393 371 1393 c 0,3,4
 600 1393 600 1393 672 1399 c 1,5,-1
 672 1335 l 1,6,-1
 623 1335 l 2,7,8
 512 1335 512 1335 486.5 1316.5 c 128,-1,9
 461 1298 461 1298 461 1239 c 2,10,-1
 461 459 l 2,11,12
 461 322 461 322 499 227.5 c 128,-1,13
 537 133 537 133 596 91 c 128,-1,14
 655 49 655 49 703.5 33.5 c 128,-1,15
 752 18 752 18 799 18 c 0,16,17
 955 18 955 18 1073.5 142 c 128,-1,18
 1192 266 1192 266 1192 473 c 2,19,-1
 1192 1184 l 2,20,21
 1192 1215 1192 1215 1188 1233 c 128,-1,22
 1184 1251 1184 1251 1166.5 1279 c 128,-1,23
 1149 1307 1149 1307 1102 1321 c 128,-1,24
 1055 1335 1055 1335 981 1335 c 1,25,-1
 981 1399 l 1,26,27
 1202 1393 1202 1393 1225 1393 c 0,28,29
 1245 1393 1245 1393 1466 1399 c 1,30,-1
 1466 1335 l 1,31,32
 1392 1335 1392 1335 1345 1322 c 128,-1,33
 1298 1309 1298 1309 1281 1280 c 128,-1,34
 1264 1251 1264 1251 1259.5 1230.5 c 128,-1,35
 1255 1210 1255 1210 1255 1176 c 2,36,-1
 1255 520 l 2,37,38
 1255 420 1255 420 1249 379 c 0,39,40
 1222 201 1222 201 1095.5 78 c 128,-1,41
 969 -45 969 -45 795 -45 c 0,42,43
 584 -45 584 -45 431.5 103.5 c 128,-1,44
 279 252 279 252 279 467 c 2,45,-1
 279 1239 l 2,46,47
 279 1298 279 1298 253 1316.5 c 128,-1,48
 227 1335 227 1335 117 1335 c 2,49,-1
 68 1335 l 1,0,-1
672 1567 m 1,50,51
 979 1757 979 1757 999 1763 c 0,52,53
 1005 1765 1005 1765 1016 1765 c 0,54,55
 1045 1765 1045 1765 1065 1740.5 c 128,-1,56
 1085 1716 1085 1716 1085 1689 c 0,57,58
 1085 1630 1085 1630 999 1614 c 1,59,60
 720 1528 720 1528 692 1519 c 1,61,-1
 672 1567 l 1,50,51
EndSplineSet
EndChar

StartChar: Ucircumflex
Encoding: 219 219 148
Width: 1536
GlyphClass: 2
Flags: W
LayerCount: 2
Fore
SplineSet
68 1335 m 1,0,-1
 68 1399 l 1,1,2
 140 1393 140 1393 371 1393 c 0,3,4
 600 1393 600 1393 672 1399 c 1,5,-1
 672 1335 l 1,6,-1
 623 1335 l 2,7,8
 512 1335 512 1335 486.5 1316.5 c 128,-1,9
 461 1298 461 1298 461 1239 c 2,10,-1
 461 459 l 2,11,12
 461 322 461 322 499 227.5 c 128,-1,13
 537 133 537 133 596 91 c 128,-1,14
 655 49 655 49 703.5 33.5 c 128,-1,15
 752 18 752 18 799 18 c 0,16,17
 955 18 955 18 1073.5 142 c 128,-1,18
 1192 266 1192 266 1192 473 c 2,19,-1
 1192 1184 l 2,20,21
 1192 1215 1192 1215 1188 1233 c 128,-1,22
 1184 1251 1184 1251 1166.5 1279 c 128,-1,23
 1149 1307 1149 1307 1102 1321 c 128,-1,24
 1055 1335 1055 1335 981 1335 c 1,25,-1
 981 1399 l 1,26,27
 1202 1393 1202 1393 1225 1393 c 0,28,29
 1245 1393 1245 1393 1466 1399 c 1,30,-1
 1466 1335 l 1,31,32
 1392 1335 1392 1335 1345 1322 c 128,-1,33
 1298 1309 1298 1309 1281 1280 c 128,-1,34
 1264 1251 1264 1251 1259.5 1230.5 c 128,-1,35
 1255 1210 1255 1210 1255 1176 c 2,36,-1
 1255 520 l 2,37,38
 1255 420 1255 420 1249 379 c 0,39,40
 1222 201 1222 201 1095.5 78 c 128,-1,41
 969 -45 969 -45 795 -45 c 0,42,43
 584 -45 584 -45 431.5 103.5 c 128,-1,44
 279 252 279 252 279 467 c 2,45,-1
 279 1239 l 2,46,47
 279 1298 279 1298 253 1316.5 c 128,-1,48
 227 1335 227 1335 117 1335 c 2,49,-1
 68 1335 l 1,0,-1
524 1559 m 1,50,-1
 797 1847 l 1,51,-1
 799 1847 l 1,52,-1
 1071 1559 l 1,53,-1
 1036 1524 l 1,54,-1
 1034 1524 l 1,55,-1
 799 1739 l 1,56,-1
 797 1739 l 1,57,-1
 561 1524 l 1,58,-1
 559 1524 l 1,59,-1
 524 1559 l 1,50,-1
EndSplineSet
EndChar

StartChar: Udieresis
Encoding: 220 220 149
Width: 1536
GlyphClass: 2
Flags: W
LayerCount: 2
Fore
SplineSet
68 1335 m 1,0,-1
 68 1399 l 1,1,2
 140 1393 140 1393 371 1393 c 0,3,4
 600 1393 600 1393 672 1399 c 1,5,-1
 672 1335 l 1,6,-1
 623 1335 l 2,7,8
 512 1335 512 1335 486.5 1316.5 c 128,-1,9
 461 1298 461 1298 461 1239 c 2,10,-1
 461 459 l 2,11,12
 461 322 461 322 499 227.5 c 128,-1,13
 537 133 537 133 596 91 c 128,-1,14
 655 49 655 49 703.5 33.5 c 128,-1,15
 752 18 752 18 799 18 c 0,16,17
 955 18 955 18 1073.5 142 c 128,-1,18
 1192 266 1192 266 1192 473 c 2,19,-1
 1192 1184 l 2,20,21
 1192 1215 1192 1215 1188 1233 c 128,-1,22
 1184 1251 1184 1251 1166.5 1279 c 128,-1,23
 1149 1307 1149 1307 1102 1321 c 128,-1,24
 1055 1335 1055 1335 981 1335 c 1,25,-1
 981 1399 l 1,26,27
 1202 1393 1202 1393 1225 1393 c 0,28,29
 1245 1393 1245 1393 1466 1399 c 1,30,-1
 1466 1335 l 1,31,32
 1392 1335 1392 1335 1345 1322 c 128,-1,33
 1298 1309 1298 1309 1281 1280 c 128,-1,34
 1264 1251 1264 1251 1259.5 1230.5 c 128,-1,35
 1255 1210 1255 1210 1255 1176 c 2,36,-1
 1255 520 l 2,37,38
 1255 420 1255 420 1249 379 c 0,39,40
 1222 201 1222 201 1095.5 78 c 128,-1,41
 969 -45 969 -45 795 -45 c 0,42,43
 584 -45 584 -45 431.5 103.5 c 128,-1,44
 279 252 279 252 279 467 c 2,45,-1
 279 1239 l 2,46,47
 279 1298 279 1298 253 1316.5 c 128,-1,48
 227 1335 227 1335 117 1335 c 2,49,-1
 68 1335 l 1,0,-1
461 1665 m 0,50,51
 461 1708 461 1708 491.5 1741 c 128,-1,52
 522 1774 522 1774 567 1774 c 0,53,54
 608 1774 608 1774 642 1742 c 128,-1,55
 676 1710 676 1710 676 1665 c 128,-1,56
 676 1620 676 1620 642 1589.5 c 128,-1,57
 608 1559 608 1559 567 1559 c 0,58,59
 522 1559 522 1559 491.5 1591.5 c 128,-1,60
 461 1624 461 1624 461 1665 c 0,50,51
858 1665 m 0,61,62
 858 1712 858 1712 891 1743 c 128,-1,63
 924 1774 924 1774 967 1774 c 0,64,65
 1014 1774 1014 1774 1043.5 1742 c 128,-1,66
 1073 1710 1073 1710 1073 1667 c 128,-1,67
 1073 1624 1073 1624 1042.5 1591.5 c 128,-1,68
 1012 1559 1012 1559 967 1559 c 0,69,70
 926 1559 926 1559 892 1589.5 c 128,-1,71
 858 1620 858 1620 858 1665 c 0,61,62
EndSplineSet
EndChar

StartChar: Yacute
Encoding: 221 221 150
Width: 1536
GlyphClass: 2
Flags: W
LayerCount: 2
Fore
SplineSet
23 1335 m 1,0,-1
 23 1399 l 1,1,2
 152 1393 152 1393 289 1393 c 0,3,4
 518 1393 518 1393 592 1399 c 1,5,-1
 592 1335 l 1,6,7
 516 1335 516 1335 482.5 1325 c 128,-1,8
 449 1315 449 1315 449 1284 c 0,9,10
 449 1270 449 1270 463 1249 c 2,11,-1
 834 645 l 1,12,-1
 1171 1194 l 2,13,14
 1191 1225 1191 1225 1192 1255 c 0,15,16
 1192 1290 1192 1290 1163.5 1312.5 c 128,-1,17
 1135 1335 1135 1335 1075 1335 c 1,18,-1
 1075 1399 l 1,19,20
 1235 1393 1235 1393 1311 1393 c 0,21,22
 1417 1393 1417 1393 1511 1399 c 1,23,-1
 1511 1335 l 1,24,25
 1329 1335 1329 1335 1249 1202 c 2,26,-1
 854 559 l 1,27,-1
 854 164 l 2,28,29
 854 101 854 101 879.5 82 c 128,-1,30
 905 63 905 63 1018 63 c 2,31,-1
 1065 63 l 1,32,-1
 1065 0 l 1,33,34
 991 6 991 6 766 6 c 128,-1,35
 541 6 541 6 467 0 c 1,36,-1
 467 63 l 1,37,-1
 516 63 l 2,38,39
 627 63 627 63 652.5 81.5 c 128,-1,40
 678 100 678 100 678 160 c 2,41,-1
 678 559 l 1,42,-1
 248 1260 l 2,43,44
 230 1291 230 1291 215.5 1304 c 128,-1,45
 201 1317 201 1317 164 1326 c 128,-1,46
 127 1335 127 1335 59 1335 c 2,47,-1
 23 1335 l 1,0,-1
670 1567 m 1,48,49
 977 1757 977 1757 997 1763 c 0,50,51
 1003 1765 1003 1765 1014 1765 c 0,52,53
 1043 1765 1043 1765 1063 1740.5 c 128,-1,54
 1083 1716 1083 1716 1083 1689 c 0,55,56
 1083 1630 1083 1630 997 1614 c 1,57,58
 718 1528 718 1528 690 1519 c 1,59,-1
 670 1567 l 1,48,49
EndSplineSet
EndChar

StartChar: Thorn
Encoding: 222 222 151
Width: 1280
GlyphClass: 2
Flags: W
LayerCount: 2
Fore
SplineSet
72 0 m 1,0,-1
 72 63 l 1,1,-1
 104 63 l 2,2,3
 215 63 215 63 248 79.5 c 128,-1,4
 281 96 281 96 283 150 c 2,5,-1
 283 1249 l 2,6,7
 281 1306 281 1306 247 1320.5 c 128,-1,8
 213 1335 213 1335 102 1335 c 2,9,-1
 72 1335 l 1,10,-1
 72 1399 l 1,11,12
 217 1393 217 1393 358 1393 c 2,13,-1
 666 1399 l 1,14,-1
 666 1335 l 1,15,-1
 643 1335 l 2,16,17
 516 1335 516 1335 485.5 1319 c 128,-1,18
 455 1303 455 1303 455 1239 c 2,19,-1
 455 1130 l 1,20,-1
 719 1130 l 2,21,22
 832 1130 832 1130 921 1093.5 c 128,-1,23
 1010 1057 1010 1057 1061 997.5 c 128,-1,24
 1112 938 1112 938 1137.5 873.5 c 128,-1,25
 1163 809 1163 809 1163 747.5 c 128,-1,26
 1163 686 1163 686 1138.5 622.5 c 128,-1,27
 1114 559 1114 559 1064 499.5 c 128,-1,28
 1014 440 1014 440 924 402.5 c 128,-1,29
 834 365 834 365 717 365 c 2,30,-1
 455 365 l 1,31,-1
 455 160 l 2,32,33
 455 97 455 97 487.5 80 c 128,-1,34
 520 63 520 63 645 63 c 2,35,-1
 666 63 l 1,36,-1
 666 0 l 1,37,38
 512 6 512 6 358 6 c 2,39,-1
 344 6 l 2,40,41
 224 6 224 6 72 0 c 1,0,-1
455 428 m 1,42,-1
 614 428 l 2,43,44
 620 428 620 428 636.5 427 c 128,-1,45
 653 426 653 426 662 426 c 0,46,47
 807 426 807 426 882.5 525.5 c 128,-1,48
 958 625 958 625 958 749.5 c 128,-1,49
 958 874 958 874 887.5 970.5 c 128,-1,50
 817 1067 817 1067 700 1067 c 2,51,-1
 455 1067 l 1,52,-1
 455 428 l 1,42,-1
EndSplineSet
EndChar

StartChar: germandbls
Encoding: 223 223 152
Width: 1024
GlyphClass: 2
Flags: W
LayerCount: 2
Fore
SplineSet
55 0 m 1,0,-1
 55 63 l 1,1,-1
 72 63 l 2,2,3
 168 63 168 63 191.5 79.5 c 128,-1,4
 215 96 215 96 215 158 c 2,5,-1
 215 819 l 1,6,-1
 55 819 l 1,7,-1
 55 881 l 1,8,-1
 215 881 l 1,9,-1
 215 1135 l 2,10,11
 215 1223 215 1223 241.5 1286.5 c 128,-1,12
 268 1350 268 1350 314 1382.5 c 128,-1,13
 360 1415 360 1415 411.5 1429.5 c 128,-1,14
 463 1444 463 1444 522 1444 c 0,15,16
 637 1444 637 1444 716 1374.5 c 128,-1,17
 795 1305 795 1305 795 1139 c 0,18,19
 795 1063 795 1063 783.5 1009.5 c 128,-1,20
 772 956 772 956 762 931.5 c 128,-1,21
 752 907 752 907 727 892 c 128,-1,22
 702 877 702 877 697 875.5 c 128,-1,23
 692 874 692 874 672 872 c 0,24,25
 654 870 654 870 634 862 c 128,-1,26
 614 854 614 854 590.5 817 c 128,-1,27
 567 780 567 780 567 719 c 0,28,29
 567 670 567 670 581.5 637 c 128,-1,30
 596 604 596 604 622.5 587.5 c 128,-1,31
 649 571 649 571 671.5 563 c 128,-1,32
 694 555 694 555 727 549 c 128,-1,33
 760 543 760 543 772 539 c 0,34,35
 842 514 842 514 898 442.5 c 128,-1,36
 954 371 954 371 954 260 c 0,37,38
 954 131 954 131 883.5 54 c 128,-1,39
 813 -23 813 -23 690 -23 c 0,40,41
 610 -23 610 -23 553 33 c 1,42,43
 508 -18 508 -18 489 -18 c 0,44,45
 464 -18 464 -18 465 25 c 2,46,-1
 465 281 l 2,47,48
 465 326 465 326 481 334 c 0,49,50
 504 346 504 346 516 319 c 0,51,52
 518 315 518 315 528.5 231 c 128,-1,53
 539 147 539 147 575.5 86 c 128,-1,54
 612 25 612 25 688 25 c 0,55,56
 768 25 768 25 811 75 c 128,-1,57
 854 125 854 125 854 207 c 0,58,59
 854 268 854 268 825.5 313 c 128,-1,60
 797 358 797 358 754 381 c 0,61,62
 734 391 734 391 672 402.5 c 128,-1,63
 610 414 610 414 578 436 c 0,64,65
 465 512 465 512 465 664 c 0,66,67
 465 699 465 699 472 732.5 c 128,-1,68
 479 766 479 766 497.5 808 c 128,-1,69
 516 850 516 850 559 878.5 c 128,-1,70
 602 907 602 907 666 913 c 0,71,72
 680 915 680 915 684 916.5 c 128,-1,73
 688 918 688 918 703.5 930 c 128,-1,74
 719 942 719 942 725 962.5 c 128,-1,75
 731 983 731 983 737 1027 c 128,-1,76
 743 1071 743 1071 743 1135 c 0,77,78
 743 1397 743 1397 530 1397 c 0,79,80
 454 1397 454 1397 412.5 1355 c 128,-1,81
 371 1313 371 1313 361.5 1266 c 128,-1,82
 352 1219 352 1219 352 1149 c 2,83,-1
 352 0 l 1,84,-1
 305 4 l 1,85,-1
 203 4 l 1,86,-1
 55 0 l 1,0,-1
EndSplineSet
EndChar

StartChar: agrave
Encoding: 224 224 153
Width: 1024
GlyphClass: 2
Flags: W
LayerCount: 2
Fore
SplineSet
86 195 m 0,0,1
 86 369 86 369 291 461 c 0,2,3
 414 520 414 520 668 535 c 1,4,-1
 668 610 l 2,5,6
 668 737 668 737 601.5 804.5 c 128,-1,7
 535 872 535 872 451 872 c 0,8,9
 301 872 301 872 229 778 c 1,10,11
 290 776 290 776 312 745.5 c 128,-1,12
 334 715 334 715 334 684 c 0,13,14
 334 643 334 643 308.5 616.5 c 128,-1,15
 283 590 283 590 240 590 c 0,16,17
 199 590 199 590 172 615.5 c 128,-1,18
 145 641 145 641 145 686 c 0,19,20
 145 786 145 786 235.5 852 c 128,-1,21
 326 918 326 918 455 918 c 0,22,23
 623 918 623 918 735 805 c 0,24,25
 770 770 770 770 787.5 725 c 128,-1,26
 805 680 805 680 807 650.5 c 128,-1,27
 809 621 809 621 809 563 c 2,28,-1
 809 154 l 2,29,30
 809 142 809 142 813 122 c 128,-1,31
 817 102 817 102 835.5 76.5 c 128,-1,32
 854 51 854 51 885 51 c 0,33,34
 959 51 959 51 958 182 c 2,35,-1
 958 297 l 1,36,-1
 1010 297 l 1,37,-1
 1010 182 l 2,38,39
 1010 73 1010 73 952.5 30.5 c 128,-1,40
 895 -12 895 -12 842 -12 c 0,41,42
 774 -12 774 -12 731 38 c 128,-1,43
 688 88 688 88 682 156 c 1,44,45
 651 78 651 78 580.5 27.5 c 128,-1,46
 510 -23 510 -23 414 -23 c 0,47,48
 340 -23 340 -23 270.5 -4.5 c 128,-1,49
 201 14 201 14 143.5 65.5 c 128,-1,50
 86 117 86 117 86 195 c 0,0,1
244 197 m 0,51,52
 244 121 244 121 298 72 c 128,-1,53
 352 23 352 23 428 23 c 0,54,55
 514 23 514 23 591 89.5 c 128,-1,56
 668 156 668 156 668 287 c 2,57,-1
 668 492 l 1,58,59
 441 484 441 484 342.5 393.5 c 128,-1,60
 244 303 244 303 244 197 c 0,51,52
318 1239 m 0,61,62
 318 1266 318 1266 338.5 1290.5 c 128,-1,63
 359 1315 359 1315 389 1315 c 0,64,65
 412 1315 412 1315 439.5 1292.5 c 128,-1,66
 467 1270 467 1270 580 1159 c 0,67,68
 650 1089 650 1089 697 1044 c 1,69,-1
 666 1004 l 1,70,71
 625 1024 625 1024 392 1157 c 1,72,-1
 379 1163 l 2,73,74
 369 1169 369 1169 364 1172.5 c 128,-1,75
 359 1176 359 1176 348.5 1184 c 128,-1,76
 338 1192 338 1192 333 1199 c 128,-1,77
 328 1206 328 1206 323 1216.5 c 128,-1,78
 318 1227 318 1227 318 1239 c 0,61,62
EndSplineSet
EndChar

StartChar: aacute
Encoding: 225 225 154
Width: 1024
GlyphClass: 2
Flags: W
LayerCount: 2
Fore
SplineSet
86 195 m 0,0,1
 86 369 86 369 291 461 c 0,2,3
 414 520 414 520 668 535 c 1,4,-1
 668 610 l 2,5,6
 668 737 668 737 601.5 804.5 c 128,-1,7
 535 872 535 872 451 872 c 0,8,9
 301 872 301 872 229 778 c 1,10,11
 290 776 290 776 312 745.5 c 128,-1,12
 334 715 334 715 334 684 c 0,13,14
 334 643 334 643 308.5 616.5 c 128,-1,15
 283 590 283 590 240 590 c 0,16,17
 199 590 199 590 172 615.5 c 128,-1,18
 145 641 145 641 145 686 c 0,19,20
 145 786 145 786 235.5 852 c 128,-1,21
 326 918 326 918 455 918 c 0,22,23
 623 918 623 918 735 805 c 0,24,25
 770 770 770 770 787.5 725 c 128,-1,26
 805 680 805 680 807 650.5 c 128,-1,27
 809 621 809 621 809 563 c 2,28,-1
 809 154 l 2,29,30
 809 142 809 142 813 122 c 128,-1,31
 817 102 817 102 835.5 76.5 c 128,-1,32
 854 51 854 51 885 51 c 0,33,34
 959 51 959 51 958 182 c 2,35,-1
 958 297 l 1,36,-1
 1010 297 l 1,37,-1
 1010 182 l 2,38,39
 1010 73 1010 73 952.5 30.5 c 128,-1,40
 895 -12 895 -12 842 -12 c 0,41,42
 774 -12 774 -12 731 38 c 128,-1,43
 688 88 688 88 682 156 c 1,44,45
 651 78 651 78 580.5 27.5 c 128,-1,46
 510 -23 510 -23 414 -23 c 0,47,48
 340 -23 340 -23 270.5 -4.5 c 128,-1,49
 201 14 201 14 143.5 65.5 c 128,-1,50
 86 117 86 117 86 195 c 0,0,1
244 197 m 0,51,52
 244 121 244 121 298 72 c 128,-1,53
 352 23 352 23 428 23 c 0,54,55
 514 23 514 23 591 89.5 c 128,-1,56
 668 156 668 156 668 287 c 2,57,-1
 668 492 l 1,58,59
 441 484 441 484 342.5 393.5 c 128,-1,60
 244 303 244 303 244 197 c 0,51,52
323 1044 m 1,61,62
 378 1097 378 1097 458 1176 c 0,63,64
 556 1274 556 1274 582 1294.5 c 128,-1,65
 608 1315 608 1315 630 1315 c 0,66,67
 661 1315 661 1315 681.5 1290.5 c 128,-1,68
 702 1266 702 1266 702 1239 c 0,69,70
 702 1227 702 1227 698 1217.5 c 128,-1,71
 694 1208 694 1208 689 1201 c 128,-1,72
 684 1194 684 1194 674.5 1187 c 128,-1,73
 665 1180 665 1180 660 1177 c 128,-1,74
 655 1174 655 1174 644 1167.5 c 128,-1,75
 633 1161 633 1161 630 1159 c 0,76,77
 362 1007 362 1007 354 1004 c 1,78,-1
 323 1044 l 1,61,62
EndSplineSet
EndChar

StartChar: acircumflex
Encoding: 226 226 155
Width: 1024
GlyphClass: 2
Flags: W
LayerCount: 2
Fore
SplineSet
86 195 m 0,0,1
 86 369 86 369 291 461 c 0,2,3
 414 520 414 520 668 535 c 1,4,-1
 668 610 l 2,5,6
 668 737 668 737 601.5 804.5 c 128,-1,7
 535 872 535 872 451 872 c 0,8,9
 301 872 301 872 229 778 c 1,10,11
 290 776 290 776 312 745.5 c 128,-1,12
 334 715 334 715 334 684 c 0,13,14
 334 643 334 643 308.5 616.5 c 128,-1,15
 283 590 283 590 240 590 c 0,16,17
 199 590 199 590 172 615.5 c 128,-1,18
 145 641 145 641 145 686 c 0,19,20
 145 786 145 786 235.5 852 c 128,-1,21
 326 918 326 918 455 918 c 0,22,23
 623 918 623 918 735 805 c 0,24,25
 770 770 770 770 787.5 725 c 128,-1,26
 805 680 805 680 807 650.5 c 128,-1,27
 809 621 809 621 809 563 c 2,28,-1
 809 154 l 2,29,30
 809 142 809 142 813 122 c 128,-1,31
 817 102 817 102 835.5 76.5 c 128,-1,32
 854 51 854 51 885 51 c 0,33,34
 959 51 959 51 958 182 c 2,35,-1
 958 297 l 1,36,-1
 1010 297 l 1,37,-1
 1010 182 l 2,38,39
 1010 73 1010 73 952.5 30.5 c 128,-1,40
 895 -12 895 -12 842 -12 c 0,41,42
 774 -12 774 -12 731 38 c 128,-1,43
 688 88 688 88 682 156 c 1,44,45
 651 78 651 78 580.5 27.5 c 128,-1,46
 510 -23 510 -23 414 -23 c 0,47,48
 340 -23 340 -23 270.5 -4.5 c 128,-1,49
 201 14 201 14 143.5 65.5 c 128,-1,50
 86 117 86 117 86 195 c 0,0,1
179 1024 m 1,51,-1
 453 1329 l 1,52,-1
 455 1329 l 1,53,-1
 727 1024 l 1,54,-1
 691 987 l 1,55,-1
 455 1221 l 1,56,-1
 453 1221 l 1,57,-1
 215 987 l 1,58,-1
 179 1024 l 1,51,-1
244 197 m 0,59,60
 244 121 244 121 298 72 c 128,-1,61
 352 23 352 23 428 23 c 0,62,63
 514 23 514 23 591 89.5 c 128,-1,64
 668 156 668 156 668 287 c 2,65,-1
 668 492 l 1,66,67
 441 484 441 484 342.5 393.5 c 128,-1,68
 244 303 244 303 244 197 c 0,59,60
EndSplineSet
EndChar

